<svg width="40" height="40" viewBox="0 0 40 40" fill="none" xmlns="http://www.w3.org/2000/svg">
<rect width="40" height="40" rx="20" fill="#37D5C7" fill-opacity="0.1"/>
<path d="M17 17H23M17 20H23M17 23H20M28.1844 23H23V28.1844M22.6906 28.25H12.5C12.3011 28.25 12.1103 28.171 11.9697 28.0303C11.829 27.8897 11.75 27.6989 11.75 27.5V12.5C11.75 12.3011 11.829 12.1103 11.9697 11.9697C12.1103 11.829 12.3011 11.75 12.5 11.75H27.5C27.6989 11.75 27.8897 11.829 28.0303 11.9697C28.171 12.1103 28.25 12.3011 28.25 12.5V22.6906C28.2503 22.788 28.2315 22.8845 28.1945 22.9746C28.1575 23.0647 28.1031 23.1466 28.0344 23.2156L23.2156 28.0344C23.1466 28.1031 23.0647 28.1575 22.9746 28.1945C22.8845 28.2315 22.788 28.2503 22.6906 28.25Z" stroke="#0C796F" stroke-width="2" stroke-linecap="round" stroke-linejoin="round"/>
</svg>
