<svg width="16" height="16" viewBox="0 0 16 16" fill="none" xmlns="http://www.w3.org/2000/svg">
<path d="M8.66662 4.50117C8.66662 4.13298 8.36814 3.83451 7.99995 3.83451C7.63176 3.83451 7.33328 4.13298 7.33328 4.50117H8.66662ZM7.99995 8.00117H7.33328C7.33328 8.36936 7.63176 8.66784 7.99995 8.66784V8.00117ZM11.4999 8.66784C11.8681 8.66784 12.1666 8.36936 12.1666 8.00117C12.1666 7.63298 11.8681 7.33451 11.4999 7.33451V8.66784ZM12.7151 1.16727C12.4548 0.906918 12.0326 0.906918 11.7723 1.16727C11.5119 1.42762 11.5119 1.84973 11.7723 2.11008L12.7151 1.16727ZM13.891 4.22883C14.1514 4.48918 14.5735 4.48918 14.8339 4.22883C15.0942 3.96848 15.0942 3.54637 14.8339 3.28602L13.891 4.22883ZM1.16605 3.28602C0.905697 3.54637 0.905697 3.96848 1.16605 4.22883C1.4264 4.48918 1.84851 4.48918 2.10886 4.22883L1.16605 3.28602ZM4.22761 2.11008C4.48796 1.84973 4.48796 1.42762 4.22761 1.16727C3.96726 0.906918 3.54515 0.906918 3.2848 1.16727L4.22761 2.11008ZM7.33328 4.50117V8.00117H8.66662V4.50117H7.33328ZM7.99995 8.66784H11.4999V7.33451H7.99995V8.66784ZM12.8333 8.00117C12.8333 10.6705 10.6693 12.8345 7.99995 12.8345V14.1678C11.4057 14.1678 14.1666 11.4069 14.1666 8.00117H12.8333ZM7.99995 12.8345C5.33057 12.8345 3.16662 10.6705 3.16662 8.00117H1.83328C1.83328 11.4069 4.59419 14.1678 7.99995 14.1678V12.8345ZM3.16662 8.00117C3.16662 5.3318 5.33057 3.16784 7.99995 3.16784V1.83451C4.59419 1.83451 1.83328 4.59542 1.83328 8.00117H3.16662ZM7.99995 3.16784C10.6693 3.16784 12.8333 5.3318 12.8333 8.00117H14.1666C14.1666 4.59542 11.4057 1.83451 7.99995 1.83451V3.16784ZM11.7723 2.11008L13.891 4.22883L14.8339 3.28602L12.7151 1.16727L11.7723 2.11008ZM2.10886 4.22883L4.22761 2.11008L3.2848 1.16727L1.16605 3.28602L2.10886 4.22883Z" fill="#404040"/>
</svg>
