<svg width="54" height="54" viewBox="0 0 54 54" fill="none" xmlns="http://www.w3.org/2000/svg">
<path d="M12.1207 14.8713L32.7836 2.94439C33.7768 2.44165 34.8744 2.17969 35.9876 2.17969C37.1008 2.17969 38.1984 2.44165 39.1917 2.94439L41.8072 4.45488C42.7398 5.06348 43.5159 5.88326 44.0726 6.84777C44.6292 7.81228 44.9508 8.89439 45.0112 10.0064V33.8602C44.9508 34.9721 44.6292 36.0543 44.0726 37.0188C43.5159 37.9833 42.7398 38.8031 41.8072 39.4117L21.1444 51.3451C20.15 51.8479 19.0513 52.1099 17.9371 52.1099C16.8228 52.1099 15.7241 51.8479 14.7297 51.3451L12.1142 49.8346C11.1812 49.2264 10.4048 48.4067 9.84812 47.4421C9.29141 46.4775 8.97006 45.3952 8.91016 44.2831V20.4293C8.96977 19.3155 9.29166 18.2315 9.84958 17.2657C10.4075 16.2998 11.1857 15.4794 12.1207 14.8713Z" fill="#F93C35"/>
<path d="M21.1445 51.345C19.3724 52.3651 17.9404 51.5346 17.9404 49.488V25.6603C18.0003 24.5482 18.3217 23.4659 18.8784 22.5013C19.4351 21.5367 20.2115 20.717 21.1445 20.1088L41.8073 8.18195C43.5728 7.15534 45.0113 7.98578 45.0113 10.0324V33.8862C44.9509 34.9982 44.6293 36.0803 44.0727 37.0448C43.516 38.0094 42.7399 38.8291 41.8073 39.4377L21.1445 51.345Z" fill="#F93C35"/>
<path opacity="0.15" d="M8.9165 44.2835C8.9764 45.3957 9.29778 46.478 9.85449 47.4426C10.4112 48.4072 11.1876 49.2268 12.1206 49.8351L14.7361 51.3455C15.6435 51.801 16.637 52.0591 17.6513 52.1031C18.6656 52.147 19.6777 51.9758 20.6211 51.6005C19.1172 52.1694 17.9663 51.3194 17.9663 49.4885V25.6609C18.0063 24.546 18.3279 23.4595 18.9014 22.5026L9.87772 17.2715C9.29511 18.2259 8.96438 19.3126 8.9165 20.4298V44.2835Z" fill="black"/>
<path opacity="0.7" d="M44.9718 9.47035C44.743 7.82255 43.4156 7.22751 41.8005 8.16257L21.1442 20.0829C20.1958 20.6737 19.4146 21.4977 18.8752 22.4762L9.85156 17.2451C10.391 16.2666 11.1722 15.4426 12.1206 14.8518L32.7768 2.92493C33.7712 2.42213 34.8699 2.16016 35.9841 2.16016C37.0984 2.16016 38.1971 2.42213 39.1915 2.92493L41.807 4.42887C42.6658 4.99241 43.3931 5.73445 43.9392 6.60444C44.4854 7.47444 44.8376 8.45194 44.9718 9.47035Z" fill="white"/>
<path d="M39.376 32.0455L34.4131 28.3013L39.5846 18.4193C39.7424 17.9921 39.7394 17.5221 39.5763 17.0968C39.4133 16.6716 39.1012 16.3201 38.6982 16.1079C38.2952 15.8957 37.8289 15.8372 37.3859 15.9432C36.943 16.0493 36.5538 16.3128 36.2907 16.6845L31.4156 25.9955L26.9577 22.6137C26.5602 22.3138 26.0599 22.184 25.5667 22.253C25.0735 22.322 24.628 22.584 24.328 22.9815C24.0281 23.379 23.8983 23.8794 23.9673 24.3725C24.0363 24.8657 24.2984 25.3113 24.6959 25.6112L29.6588 29.3663L24.7069 38.8091C24.4785 39.2491 24.4335 39.7616 24.5816 40.2347C24.7297 40.7078 25.0589 41.1032 25.4974 41.3345C25.7636 41.4791 26.0619 41.5546 26.3648 41.5541C26.7089 41.5548 27.0465 41.4609 27.3408 41.2828C27.6351 41.1046 27.8748 40.849 28.0338 40.5439L32.6893 31.6502L37.1471 35.032C37.4649 35.2685 37.849 35.3991 38.2451 35.4053C38.5353 35.4079 38.8221 35.3416 39.0817 35.2118C39.3413 35.082 39.5663 34.8924 39.7384 34.6587C40.0366 34.264 40.1659 33.7671 40.098 33.2771C40.0301 32.7871 39.7704 32.3441 39.376 32.0455Z" fill="#FAFAFA"/>
</svg>
