<svg width="40" height="40" viewBox="0 0 40 40" fill="none" xmlns="http://www.w3.org/2000/svg">
<rect width="40" height="40" rx="20" fill="#37D5C7" fill-opacity="0.1"/>
<path d="M20 23C22.0711 23 23.75 21.3211 23.75 19.25C23.75 17.1789 22.0711 15.5 20 15.5C17.9289 15.5 16.25 17.1789 16.25 19.25C16.25 21.3211 17.9289 23 20 23ZM20 23C18.7535 23 17.5313 23.3446 16.469 23.9967C15.4066 24.6488 14.5456 25.5823 13.9813 26.6937M20 23C21.2465 23 22.4687 23.3446 23.5311 23.9967C24.5934 24.6488 25.4545 25.5823 26.0188 26.6937M29 20C29 24.9706 24.9706 29 20 29C15.0294 29 11 24.9706 11 20C11 15.0294 15.0294 11 20 11C24.9706 11 29 15.0294 29 20Z" stroke="#0C796F" stroke-width="2" stroke-linecap="round" stroke-linejoin="round"/>
</svg>
