<svg width="20" height="20" viewBox="0 0 20 20" fill="none" xmlns="http://www.w3.org/2000/svg">
<path d="M12.3984 12.7737L10.5859 17.7581C10.5415 17.8777 10.4616 17.9809 10.3568 18.0537C10.2521 18.1266 10.1276 18.1656 9.99998 18.1656C9.87239 18.1656 9.74786 18.1266 9.64312 18.0537C9.53838 17.9809 9.45844 17.8777 9.41404 17.7581L7.60154 12.7737C7.56988 12.6878 7.51996 12.6098 7.45522 12.545C7.39048 12.4803 7.31245 12.4304 7.22654 12.3987L2.24216 10.5862C2.12255 10.5418 2.0194 10.4619 1.94655 10.3571C1.8737 10.2524 1.83466 10.1279 1.83466 10.0003C1.83466 9.8727 1.8737 9.74817 1.94655 9.64343C2.0194 9.53868 2.12255 9.45874 2.24216 9.41434L7.22654 7.60184C7.31245 7.57019 7.39048 7.52027 7.45522 7.45552C7.51996 7.39078 7.56988 7.31276 7.60154 7.22684L9.41404 2.24247C9.45844 2.12286 9.53838 2.0197 9.64312 1.94685C9.74786 1.87401 9.87239 1.83496 9.99998 1.83496C10.1276 1.83496 10.2521 1.87401 10.3568 1.94685C10.4616 2.0197 10.5415 2.12286 10.5859 2.24247L12.3984 7.22684C12.4301 7.31276 12.48 7.39078 12.5447 7.45552C12.6095 7.52027 12.6875 7.57019 12.7734 7.60184L17.7578 9.41434C17.8774 9.45874 17.9806 9.53868 18.0534 9.64343C18.1263 9.74817 18.1653 9.8727 18.1653 10.0003C18.1653 10.1279 18.1263 10.2524 18.0534 10.3571C17.9806 10.4619 17.8774 10.5418 17.7578 10.5862L12.7734 12.3987C12.6875 12.4304 12.6095 12.4803 12.5447 12.545C12.48 12.6098 12.4301 12.6878 12.3984 12.7737Z" stroke="#423BCE" stroke-width="2" stroke-linecap="round" stroke-linejoin="round"/>
</svg>
