<svg width="40" height="40" viewBox="0 0 40 40" fill="none" xmlns="http://www.w3.org/2000/svg">
<rect width="40" height="40" rx="20" fill="#37D5C7" fill-opacity="0.1"/>
<path d="M10.0402 27.7504C9.76408 28.2287 9.92801 28.8403 10.4063 29.1164C10.8846 29.3925 11.4962 29.2285 11.7723 28.7502L10.0402 27.7504ZM28.2277 28.7502C28.5038 29.2285 29.1154 29.3925 29.5937 29.1164C30.072 28.8403 30.2359 28.2287 29.9598 27.7504L28.2277 28.7502ZM25 17C25 19.7614 22.7614 22 20 22V24C23.866 24 27 20.866 27 17H25ZM20 22C17.2386 22 15 19.7614 15 17H13C13 20.866 16.134 24 20 24V22ZM15 17C15 14.2386 17.2386 12 20 12V10C16.134 10 13 13.134 13 17H15ZM20 12C22.7614 12 25 14.2386 25 17H27C27 13.134 23.866 10 20 10V12ZM11.7723 28.7502C12.6061 27.3058 13.8053 26.1064 15.2496 25.2724L14.2495 23.5404C12.5012 24.5499 11.0494 26.0019 10.0402 27.7504L11.7723 28.7502ZM15.2496 25.2724C16.6937 24.4386 18.3321 24 20 24V22C17.9813 22 15.998 22.5308 14.2495 23.5404L15.2496 25.2724ZM20 24C21.6679 24 23.3063 24.4386 24.7504 25.2724L25.7505 23.5404C24.002 22.5308 22.0187 22 20 22V24ZM24.7504 25.2724C26.1947 26.1064 27.3939 27.3058 28.2277 28.7502L29.9598 27.7504C28.9506 26.0019 27.4988 24.5499 25.7505 23.5404L24.7504 25.2724Z" fill="#0C796F"/>
</svg>
