<svg width="20" height="20" viewBox="0 0 20 20" fill="none" xmlns="http://www.w3.org/2000/svg">
<path d="M18.7456 2.07209L0.438408 9.22333C-0.169448 9.43787 -0.133692 10.296 0.474164 10.4748L3.94252 11.5117C4.6934 11.7263 5.30125 12.2984 5.51579 13.0492L6.87453 17.3757C7.05331 17.9478 7.76843 18.1266 8.19751 17.6976L10.0568 15.8025C10.3786 15.4807 10.8435 15.4449 11.201 15.6952L15.313 18.6987C15.8851 19.1278 16.7075 18.806 16.8505 18.0909L19.9613 3.14477C20.1758 2.39389 19.4607 1.78604 18.7456 2.07209ZM16.4572 5.36166L9.09141 11.8693C8.69809 12.2269 8.41204 12.7274 8.37629 13.2638C8.30477 13.8001 7.55389 13.8716 7.37511 13.371L7.05331 12.2984C6.80301 11.5117 7.12482 10.6893 7.80419 10.2603L16.2069 5.03985C16.4214 4.89683 16.636 5.18288 16.4572 5.36166Z" fill="#5761D7"/>
</svg>
