<svg width="40" height="40" viewBox="0 0 40 40" fill="none" xmlns="http://www.w3.org/2000/svg">
<rect width="40" height="40" rx="20" fill="#37D5C7" fill-opacity="0.1"/>
<g clip-path="url(#clip0_809_3834)">
<path d="M26.75 19.75C26.1977 19.75 25.75 20.1977 25.75 20.75C25.75 21.3023 26.1977 21.75 26.75 21.75V19.75ZM31.25 21.75C31.8023 21.75 32.25 21.3023 32.25 20.75C32.25 20.1977 31.8023 19.75 31.25 19.75V21.75ZM30 18.5C30 17.9477 29.5523 17.5 29 17.5C28.4477 17.5 28 17.9477 28 18.5H30ZM28 23C28 23.5523 28.4477 24 29 24C29.5523 24 30 23.5523 30 23H28ZM9.31517 26.1072C8.96018 26.5303 9.01539 27.1611 9.43848 27.5161C9.86157 27.8711 10.4923 27.8158 10.8473 27.3928L9.31517 26.1072ZM18.125 22.9989V21.9989V22.9989ZM25.4027 27.3928C25.7577 27.8158 26.3884 27.8711 26.8115 27.5161C27.2346 27.1611 27.2898 26.5303 26.9348 26.1072L25.4027 27.3928ZM26.75 21.75H31.25V19.75H26.75V21.75ZM28 18.5V23H30V18.5H28ZM22.75 17.375C22.75 19.9293 20.6793 22 18.125 22V24C21.7839 24 24.75 21.0339 24.75 17.375H22.75ZM18.125 22C15.5707 22 13.5 19.9293 13.5 17.375H11.5C11.5 21.0339 14.4661 24 18.125 24V22ZM13.5 17.375C13.5 14.8207 15.5707 12.75 18.125 12.75V10.75C14.4661 10.75 11.5 13.7161 11.5 17.375H13.5ZM18.125 12.75C20.6793 12.75 22.75 14.8207 22.75 17.375H24.75C24.75 13.7161 21.7839 10.75 18.125 10.75V12.75ZM10.8473 27.3928C11.739 26.33 12.8526 25.4754 14.1099 24.8891L13.2647 23.0765C11.7427 23.7863 10.3946 24.8207 9.31517 26.1072L10.8473 27.3928ZM14.1099 24.8891C15.3672 24.3028 16.7377 23.9989 18.125 23.9989V21.9989C16.4456 21.9989 14.7867 22.3667 13.2647 23.0765L14.1099 24.8891ZM18.125 23.9989C19.5123 23.9989 20.8827 24.3028 22.14 24.8891L22.9853 23.0765C21.4633 22.3667 19.8043 21.9989 18.125 21.9989V23.9989ZM22.14 24.8891C23.3973 25.4754 24.511 26.33 25.4027 27.3928L26.9348 26.1072C25.8554 24.8207 24.5073 23.7863 22.9853 23.0765L22.14 24.8891Z" fill="#0C796F"/>
</g>
<defs>
<clipPath id="clip0_809_3834">
<rect width="24" height="24" fill="white" transform="translate(8 8)"/>
</clipPath>
</defs>
</svg>
