<svg width="36" height="36" viewBox="0 0 36 36" fill="none" xmlns="http://www.w3.org/2000/svg">
<path d="M33.2969 14.0625C32.7031 13.4531 32.0938 12.8125 31.8594 12.2656C31.625 11.7188 31.6406 10.9063 31.625 10.0781C31.6094 8.5625 31.5781 6.82812 30.375 5.625C29.1719 4.42188 27.4375 4.39062 25.9219 4.375C25.0938 4.35937 24.25 4.34375 23.7344 4.14062C23.2188 3.9375 22.5469 3.29688 21.9375 2.70312C20.8594 1.67188 19.625 0.5 18 0.5C16.375 0.5 15.1406 1.67188 14.0625 2.70312C13.4531 3.29688 12.8125 3.90625 12.2656 4.14062C11.7188 4.375 10.9063 4.35937 10.0781 4.375C8.5625 4.39062 6.82812 4.42188 5.625 5.625C4.42188 6.82812 4.39062 8.5625 4.375 10.0781C4.35937 10.9063 4.34375 11.75 4.14062 12.2656C3.9375 12.7812 3.29688 13.4531 2.70312 14.0625C1.67188 15.1406 0.5 16.375 0.5 18C0.5 19.625 1.67188 20.8594 2.70312 21.9375C3.29688 22.5469 3.90625 23.1875 4.14062 23.7344C4.375 24.2812 4.35937 25.0938 4.375 25.9219C4.39062 27.4375 4.42188 29.1719 5.625 30.375C6.82812 31.5781 8.5625 31.6094 10.0781 31.625C10.9063 31.6406 11.75 31.6562 12.2656 31.8594C12.7812 32.0625 13.4531 32.7031 14.0625 33.2969C15.1406 34.3281 16.375 35.5 18 35.5C19.625 35.5 20.8594 34.3281 21.9375 33.2969C22.5469 32.7031 23.1875 32.0938 23.7344 31.8594C24.2812 31.625 25.0938 31.6406 25.9219 31.625C27.4375 31.6094 29.1719 31.5781 30.375 30.375C31.5781 29.1719 31.6094 27.4375 31.625 25.9219C31.6406 25.0938 31.6562 24.25 31.8594 23.7344C32.0625 23.2188 32.7031 22.5469 33.2969 21.9375C34.3281 20.8594 35.5 19.625 35.5 18C35.5 16.375 34.3281 15.1406 33.2969 14.0625ZM25.7344 15.1562L16.5781 23.9062C16.3414 24.1289 16.0281 24.252 15.7031 24.25C15.3829 24.2512 15.0748 24.128 14.8438 23.9062L10.2656 19.5312C10.1386 19.4205 10.0354 19.2851 9.96202 19.1334C9.88867 18.9817 9.84676 18.8167 9.83879 18.6484C9.83083 18.4801 9.85698 18.3119 9.91568 18.1539C9.97438 17.996 10.0644 17.8515 10.1804 17.7292C10.2963 17.6069 10.4358 17.5094 10.5904 17.4424C10.7451 17.3754 10.9116 17.3403 11.0801 17.3394C11.2486 17.3384 11.4156 17.3715 11.571 17.4367C11.7264 17.5019 11.867 17.5978 11.9844 17.7188L15.7031 21.2656L24.0156 13.3438C24.2587 13.1317 24.5743 13.0218 24.8965 13.0371C25.2187 13.0523 25.5225 13.1915 25.7444 13.4255C25.9664 13.6596 26.0892 13.9704 26.0874 14.2929C26.0855 14.6155 25.959 14.9248 25.7344 15.1562Z" fill="white"/>
</svg>
