<svg width="38" height="28" viewBox="0 0 38 28" fill="none" xmlns="http://www.w3.org/2000/svg">
<path d="M0.694946 0.185627L9.20613 13.9484L0.694946 27.1679H9.20613L18.2606 13.9484L9.20613 0.185627H0.694946Z" fill="white"/>
<path d="M19.3471 0.185627L15.1821 6.52374L19.3471 12.6808L27.8583 0.185627H19.3471Z" fill="white"/>
<path d="M27.8583 27.1679H19.3471L15.1821 20.4676L19.3471 15.0349L27.8583 27.1679Z" fill="white"/>
<path d="M29.1259 17.0269V26.2626L20.2526 13.9484L22.4256 10.6888H30.9368C30.9368 10.6888 32.3855 10.6888 32.3855 8.69681C32.3855 6.70483 30.9368 6.52374 30.9368 6.52374H25.142L29.6692 0.187952C29.6692 0.187952 37.456 -0.357643 37.456 8.69681C37.456 17.7513 29.1259 17.0269 29.1259 17.0269Z" fill="white"/>
</svg>
