<svg width="38" height="51" viewBox="0 0 38 51" fill="none" xmlns="http://www.w3.org/2000/svg">
<path d="M4.1205 12.8713L24.7833 0.944395C25.7765 0.441651 26.8742 0.179688 27.9874 0.179688C29.1006 0.179688 30.1982 0.441651 31.1914 0.944395L33.807 2.45488C34.7396 3.06348 35.5157 3.88326 36.0723 4.84777C36.629 5.81228 36.9506 6.89439 37.011 8.00637V31.8602C36.9506 32.9721 36.629 34.0543 36.0723 35.0188C35.5157 35.9833 34.7396 36.8031 33.807 37.4117L13.1441 49.3451C12.1498 49.8479 11.0511 50.1099 9.93682 50.1099C8.82254 50.1099 7.72388 49.8479 6.7295 49.3451L4.11395 47.8346C3.18097 47.2264 2.40459 46.4067 1.84788 45.4421C1.29116 44.4775 0.969811 43.3952 0.909912 42.2831V18.4293C0.96953 17.3155 1.29141 16.2315 1.84934 15.2657C2.40726 14.2998 3.18544 13.4794 4.1205 12.8713Z" fill="#F93C35"/>
<path d="M13.1442 49.345C11.3722 50.3651 9.94019 49.5346 9.94019 47.488V23.6603C10.0001 22.5482 10.3214 21.4659 10.8782 20.5013C11.4349 19.5367 12.2112 18.717 13.1442 18.1088L33.8071 6.18195C35.5726 5.15534 37.0111 5.98578 37.0111 8.03245V31.8862C36.9507 32.9982 36.6291 34.0803 36.0724 35.0448C35.5158 36.0094 34.7397 36.8291 33.8071 37.4377L13.1442 49.345Z" fill="#F93C35"/>
<path opacity="0.15" d="M0.916504 42.2835C0.976403 43.3957 1.29778 44.478 1.85449 45.4426C2.41121 46.4072 3.18758 47.2268 4.12057 47.8351L6.73611 49.3455C7.64349 49.801 8.63698 50.0591 9.65129 50.1031C10.6656 50.147 11.6777 49.9758 12.6211 49.6005C11.1172 50.1694 9.96632 49.3194 9.96632 47.4885V23.6609C10.0063 22.546 10.3279 21.4595 10.9014 20.5026L1.87772 15.2715C1.29511 16.2259 0.964375 17.3126 0.916504 18.4298V42.2835Z" fill="black"/>
<path opacity="0.7" d="M36.9718 7.47035C36.743 5.82255 35.4156 5.22751 33.8005 6.16257L13.1442 18.0829C12.1958 18.6737 11.4146 19.4977 10.8752 20.4762L1.85156 15.2451C2.391 14.2666 3.17217 13.4426 4.12055 12.8518L24.7768 0.924933C25.7712 0.422127 26.8699 0.160156 27.9841 0.160156C29.0984 0.160156 30.1971 0.422127 31.1915 0.924933L33.807 2.42887C34.6658 2.99241 35.3931 3.73445 35.9392 4.60444C36.4854 5.47444 36.8376 6.45194 36.9718 7.47035Z" fill="white"/>
<path d="M31.376 30.0455L26.4131 26.3013L31.5846 16.4193C31.7424 15.9921 31.7394 15.5221 31.5763 15.0968C31.4133 14.6716 31.1012 14.3201 30.6982 14.1079C30.2952 13.8957 29.8289 13.8372 29.3859 13.9432C28.943 14.0493 28.5538 14.3128 28.2907 14.6845L23.4156 23.9955L18.9577 20.6137C18.5602 20.3138 18.0599 20.184 17.5667 20.253C17.0735 20.322 16.628 20.584 16.328 20.9815C16.0281 21.379 15.8983 21.8794 15.9673 22.3725C16.0363 22.8657 16.2984 23.3113 16.6959 23.6112L21.6588 27.3663L16.7069 36.8091C16.4785 37.2491 16.4335 37.7616 16.5816 38.2347C16.7297 38.7078 17.0589 39.1032 17.4974 39.3345C17.7636 39.4791 18.0619 39.5546 18.3648 39.5541C18.7089 39.5548 19.0465 39.4609 19.3408 39.2828C19.6351 39.1046 19.8748 38.849 20.0338 38.5439L24.6893 29.6502L29.1471 33.032C29.4649 33.2685 29.849 33.3991 30.2451 33.4053C30.5353 33.4079 30.8221 33.3416 31.0817 33.2118C31.3413 33.082 31.5663 32.8924 31.7384 32.6587C32.0366 32.264 32.1659 31.7671 32.098 31.2771C32.0301 30.7871 31.7704 30.3441 31.376 30.0455Z" fill="#FAFAFA"/>
</svg>
