<svg width="16" height="16" viewBox="0 0 16 16" fill="none" xmlns="http://www.w3.org/2000/svg">
<path d="M10.4714 6.4714C10.7318 6.21106 10.7318 5.78895 10.4714 5.5286C10.2111 5.26825 9.78895 5.26825 9.5286 5.5286L10.4714 6.4714ZM5.5286 9.5286C5.26825 9.78895 5.26825 10.2111 5.5286 10.4714C5.78895 10.7318 6.21106 10.7318 6.4714 10.4714L5.5286 9.5286ZM9.5286 10.4714C9.78895 10.7318 10.2111 10.7318 10.4714 10.4714C10.7318 10.2111 10.7318 9.78895 10.4714 9.5286L9.5286 10.4714ZM6.4714 5.5286C6.21106 5.26825 5.78895 5.26825 5.5286 5.5286C5.26825 5.78895 5.26825 6.21106 5.5286 6.4714L6.4714 5.5286ZM13.3333 8C13.3333 10.9455 10.9455 13.3333 8 13.3333V14.6667C11.6819 14.6667 14.6667 11.6819 14.6667 8H13.3333ZM8 13.3333C5.05448 13.3333 2.66667 10.9455 2.66667 8H1.33333C1.33333 11.6819 4.3181 14.6667 8 14.6667V13.3333ZM2.66667 8C2.66667 5.05448 5.05448 2.66667 8 2.66667V1.33333C4.3181 1.33333 1.33333 4.3181 1.33333 8H2.66667ZM8 2.66667C10.9455 2.66667 13.3333 5.05448 13.3333 8H14.6667C14.6667 4.3181 11.6819 1.33333 8 1.33333V2.66667ZM9.5286 5.5286L5.5286 9.5286L6.4714 10.4714L10.4714 6.4714L9.5286 5.5286ZM10.4714 9.5286L6.4714 5.5286L5.5286 6.4714L9.5286 10.4714L10.4714 9.5286Z" fill="#404040"/>
</svg>
