<svg width="37" height="51" viewBox="0 0 37 51" fill="none" xmlns="http://www.w3.org/2000/svg">
<path d="M4.11936 12.867L24.7744 0.944596C25.7673 0.442041 26.8645 0.180176 27.9773 0.180176C29.0901 0.180176 30.1873 0.442041 31.1801 0.944596L33.7947 2.45452C34.727 3.06288 35.5028 3.88236 36.0592 4.84651C36.6157 5.81066 36.9371 6.89236 36.9975 8.00393V31.8488C36.9371 32.9603 36.6157 34.0421 36.0592 35.0062C35.5028 35.9704 34.727 36.7898 33.7947 37.3982L13.1396 49.3272C12.1456 49.8298 11.0474 50.0917 9.9335 50.0917C8.81964 50.0917 7.72139 49.8298 6.72739 49.3272L4.11282 47.8172C3.18019 47.2093 2.4041 46.3899 1.84759 45.4257C1.29109 44.4614 0.969855 43.3795 0.909979 42.2678V18.423C0.969574 17.3096 1.29134 16.226 1.84905 15.2605C2.40676 14.295 3.18465 13.4749 4.11936 12.867Z" fill="#37D5C7"/>
<path d="M13.1396 49.3272C11.3683 50.3469 9.9368 49.5168 9.9368 47.4709V23.6522C9.99667 22.5405 10.3179 21.4586 10.8744 20.4943C11.4309 19.5301 12.207 18.7107 13.1396 18.1027L33.7947 6.18032C35.5595 5.1541 36.9976 5.98422 36.9976 8.03012V31.875C36.9372 32.9865 36.6157 34.0682 36.0592 35.0324C35.5028 35.9966 34.727 36.816 33.7947 37.4244L13.1396 49.3272Z" fill="#37D5C7"/>
<path opacity="0.15" d="M0.916484 42.2676C0.97636 43.3793 1.29761 44.4612 1.85412 45.4254C2.41063 46.3896 3.18671 47.209 4.11934 47.817L6.73391 49.3269C7.64094 49.7822 8.63407 50.0402 9.64799 50.0842C10.6619 50.1281 11.6737 49.9569 12.6167 49.5818C11.1133 50.1505 9.9629 49.3007 9.9629 47.4706V23.6518C10.0028 22.5374 10.3244 21.4513 10.8976 20.4948L1.87734 15.2656C1.29495 16.2197 0.964337 17.306 0.916484 18.4227V42.2676Z" fill="black"/>
<path opacity="0.7" d="M36.9582 7.46761C36.7294 5.82043 35.4025 5.22562 33.7881 6.16032L13.1395 18.0762C12.1915 18.6668 11.4106 19.4904 10.8714 20.4685L1.85113 15.2394C2.39036 14.2613 3.17124 13.4376 4.11927 12.8471L24.7678 0.924647C25.7618 0.422029 26.8601 0.160156 27.9739 0.160156C29.0878 0.160156 30.186 0.422029 31.18 0.924647L33.7946 2.42802C34.6531 2.99135 35.3801 3.73311 35.926 4.60278C36.472 5.47245 36.824 6.44959 36.9582 7.46761Z" fill="white"/>
<path d="M30.4837 15.2588C30.0265 15.0693 29.5129 15.068 29.0547 15.255C28.5965 15.4421 28.2306 15.8024 28.0366 16.2577L20.9775 33.062L19.2952 31.4227C18.9396 31.0772 18.4614 30.8872 17.9658 30.8944C17.4701 30.9016 16.9976 31.1053 16.6522 31.4609C16.3068 31.8164 16.1167 32.2946 16.1239 32.7903C16.1311 33.286 16.3349 33.7585 16.6904 34.1039L20.3371 37.6502C20.6852 37.9884 21.1517 38.1771 21.6371 38.1759C21.7624 38.1774 21.8874 38.1646 22.0098 38.1377C22.3081 38.0777 22.5873 37.9457 22.823 37.7533C23.0587 37.5609 23.2439 37.3139 23.3624 37.0336L31.4873 17.7059C31.6778 17.2482 31.6792 16.7337 31.491 16.275C31.3029 15.8163 30.9407 15.4509 30.4837 15.2588Z" fill="white"/>
</svg>
