<svg width="509" height="509" viewBox="0 0 509 509" fill="none" xmlns="http://www.w3.org/2000/svg">
<path d="M436.299 481.779C437.853 482.701 439.607 483.235 441.411 483.336C443.976 483.658 446.577 483.199 448.876 482.018C452.285 480.063 454.977 475.144 454.977 471.008V254.57L442.764 261.625V478.064C442.764 481.006 441.287 482.699 439.162 482.699C438.148 482.625 437.166 482.309 436.299 481.779Z" fill="#1C1C26"/>
<path d="M146.441 306.969C146.561 309.224 147.21 311.419 148.338 313.375C149.465 315.332 151.038 316.995 152.929 318.229L436.299 481.779C439.878 483.858 442.786 482.165 442.786 478.03V229.642L424.903 219.326C421.324 217.247 244.822 115.356 241.254 113.288L146.441 58.5364V306.969Z" fill="#252532"/>
<path d="M149.055 63.0015V306.969C149.176 308.769 149.706 310.518 150.606 312.081C151.506 313.645 152.751 314.982 154.247 315.99L437.594 479.598C438.073 479.911 438.625 480.095 439.196 480.132C440.082 480.132 440.207 478.848 440.207 478.075V231.131L423.608 221.598L331.272 168.199L239.959 115.469L149.066 62.9674L149.055 63.0015ZM146.441 58.5364L241.254 113.277C244.822 115.344 421.324 217.235 424.903 219.326L442.786 229.654V478.064C442.786 481.006 441.321 482.699 439.196 482.699C438.169 482.662 437.17 482.357 436.299 481.813L152.963 318.206C151.072 316.972 149.499 315.309 148.372 313.353C147.244 311.396 146.595 309.201 146.476 306.947V58.5364H146.441Z" fill="#252532"/>
<path d="M454.99 222.609V208.044C454.866 205.787 454.213 203.592 453.081 201.636C451.95 199.679 450.374 198.017 448.48 196.784L165.144 33.1773C161.554 31.1095 155.918 31.0072 152.555 32.95C149.192 34.8929 146.443 39.8125 146.443 43.9822V58.5364C146.443 62.6834 442.754 229.642 442.754 229.642L454.99 222.609Z" fill="#359C9A"/>
<path d="M146.544 42.9256C146.987 39.5172 149.725 38.381 152.963 40.2216L436.299 203.829C438.209 205.046 439.79 206.717 440.9 208.691L453.08 201.636C451.992 199.669 450.43 198.005 448.535 196.796L165.188 33.1887C161.621 31.1209 155.974 30.9959 152.622 32.9501C150.945 34.0709 149.532 35.544 148.482 37.2669C147.432 38.9898 146.771 40.9209 146.544 42.9256Z" fill="#42E8E0"/>
<path d="M146.441 43.9707V58.5363L241.254 113.277C244.822 115.344 421.324 217.235 424.903 219.326L442.786 229.653V215.065C442.663 212.813 442.012 210.621 440.885 208.667C439.758 206.713 438.187 205.051 436.299 203.817L152.963 40.21C149.395 38.1536 146.441 39.8124 146.441 43.9707Z" fill="#57DCD0"/>
<path d="M146.441 43.9707V58.5363L241.254 113.277C244.822 115.344 421.324 217.235 424.903 219.326L442.786 229.653V215.065C442.663 212.813 442.012 210.621 440.885 208.667C439.758 206.713 438.187 205.051 436.299 203.817L152.963 40.21C149.395 38.1536 146.441 39.8124 146.441 43.9707Z" fill="#39AEAC"/>
<path d="M403.504 192.522C401.403 191.307 399.698 192.284 399.698 194.715C399.77 196.036 400.152 197.32 400.813 198.465C401.474 199.61 402.397 200.583 403.504 201.305C405.606 202.521 407.311 201.532 407.311 199.112C407.241 197.791 406.86 196.506 406.198 195.361C405.537 194.215 404.614 193.243 403.504 192.522Z" fill="#252532"/>
<path d="M417.207 200.419C415.105 199.203 413.4 200.192 413.4 202.612C413.472 203.932 413.854 205.217 414.515 206.362C415.177 207.507 416.099 208.48 417.207 209.201C419.308 210.417 421.013 209.429 421.013 207.009C420.943 205.688 420.562 204.402 419.9 203.257C419.239 202.112 418.316 201.139 417.207 200.419Z" fill="#252532"/>
<path d="M430.897 208.315C428.795 207.099 427.091 208.088 427.091 210.508C427.162 211.828 427.544 213.113 428.206 214.258C428.867 215.403 429.789 216.376 430.897 217.097C432.999 218.313 434.703 217.325 434.703 214.905C434.632 213.584 434.25 212.299 433.588 211.154C432.927 210.009 432.005 209.037 430.897 208.315Z" fill="#252532"/>
<path d="M442.786 229.631V261.648L455 254.604V222.609L442.786 229.631Z" fill="white"/>
<path d="M442.786 229.631V261.648L455 254.604V222.609L442.786 229.631Z" fill="#34CDC6"/>
<path d="M259.136 123.955C257.318 122.91 256.716 121.308 255.841 118.274L253.853 111.389C253.126 108.617 252.376 106.731 250.547 105.708L171.254 59.9212C169.425 58.876 167.993 58.7851 166.607 61.0574L164.198 65.4998C163.164 67.2835 162.653 68.3402 160.79 67.2835L259.136 123.955L146.441 58.5364V90.5761L442.786 261.671V229.642L259.136 123.955Z" fill="#42E8E0"/>
<path opacity="0.3" d="M169.853 88.1742L175.534 91.469L173.353 87.288C173.267 87.1311 173.223 86.9553 173.223 86.7767C173.223 86.5981 173.267 86.4223 173.353 86.2654C173.523 86.0609 173.819 86.2654 174 86.5722L177.102 92.5257C177.137 92.5955 177.168 92.6676 177.193 92.7415C177.189 92.7679 177.189 92.7947 177.193 92.8211C177.204 92.923 177.204 93.0259 177.193 93.1278C177.206 93.2145 177.206 93.3025 177.193 93.3892C177.175 93.4387 177.144 93.4821 177.102 93.5141L174.023 95.9682C173.98 95.9996 173.929 96.0165 173.875 96.0165C173.822 96.0165 173.771 95.9996 173.728 95.9682C173.563 95.865 173.439 95.7087 173.376 95.5251C173.217 95.1388 173.228 94.7071 173.376 94.5594L175.557 92.8779L169.876 89.5944C169.732 89.4763 169.616 89.327 169.537 89.1579C169.458 88.9887 169.419 88.8039 169.422 88.6173C169.399 88.231 169.604 88.0265 169.853 88.1742Z" fill="#252532"/>
<path opacity="0.3" d="M165.093 85.4249L159.412 82.13L161.526 80.4598C161.719 80.3121 161.741 79.8804 161.526 79.4827C161.31 79.0851 161.071 78.9033 160.878 79.051L157.788 81.4256C157.755 81.4627 157.728 81.5049 157.708 81.5506C157.695 81.6372 157.695 81.7253 157.708 81.8119C157.697 81.9138 157.697 82.0167 157.708 82.1187V82.1868C157.728 82.2648 157.754 82.3408 157.788 82.414L160.958 88.4471C161.026 88.5873 161.132 88.7054 161.264 88.7879C161.311 88.831 161.371 88.855 161.435 88.855C161.498 88.855 161.559 88.831 161.605 88.7879C161.694 88.6321 161.74 88.4559 161.74 88.2766C161.74 88.0974 161.694 87.9212 161.605 87.7654L159.435 83.5729L165.116 86.8678C165.366 87.0155 165.57 86.8678 165.57 86.4247C165.576 86.2322 165.535 86.0411 165.452 85.8673C165.369 85.6934 165.246 85.5418 165.093 85.4249Z" fill="#252532"/>
<path opacity="0.3" d="M182.869 90.9959C182.869 90.6551 183.198 90.7005 183.358 91.0641L184.141 92.9842C185.471 92.8365 187.084 94.1204 188.175 96.3927C189.584 99.3922 189.584 102.926 188.175 104.346C187.831 104.667 187.387 104.857 186.918 104.884C186.449 104.911 185.985 104.773 185.607 104.494C184.471 103.731 183.582 102.653 183.051 101.392C182.96 101.241 182.911 101.068 182.911 100.892C182.911 100.716 182.96 100.543 183.051 100.392C183.233 100.21 183.517 100.392 183.698 100.767C184.755 103.039 186.471 103.994 187.527 102.971C188.584 101.949 188.584 99.3127 187.527 97.0744C186.777 95.4952 185.698 94.5521 184.755 94.4953L185.334 95.9383C185.493 96.3018 185.334 96.654 185.119 96.495L182.846 94.9839C182.754 94.9046 182.682 94.8045 182.637 94.6918C182.591 94.5791 182.574 94.4572 182.585 94.3363L182.869 90.9959Z" fill="#252532"/>
<path opacity="0.3" d="M245.21 110.984L242.91 106.496C242.772 106.284 242.698 106.042 242.698 105.795C242.698 105.548 242.772 105.306 242.91 105.094C243.186 104.852 243.635 105.094 243.899 105.621L246.198 110.109L248.497 108.065C248.773 107.834 249.21 108.065 249.486 108.592C249.625 108.804 249.698 109.046 249.698 109.293C249.698 109.54 249.625 109.782 249.486 109.993L247.187 112.027L249.486 116.515C249.625 116.726 249.698 116.969 249.698 117.215C249.698 117.462 249.625 117.705 249.486 117.916C249.417 117.97 249.33 118 249.239 118C249.148 118 249.06 117.97 248.992 117.916C248.768 117.781 248.595 117.586 248.497 117.358L246.198 112.87L243.899 114.913C243.829 114.966 243.742 114.994 243.652 114.994C243.562 114.994 243.475 114.966 243.405 114.913C243.187 114.773 243.016 114.579 242.91 114.355C242.773 114.145 242.7 113.905 242.7 113.66C242.7 113.415 242.773 113.174 242.91 112.964L245.21 110.984Z" fill="#252532"/>
<path d="M419.227 237.143V230.815C419.168 229.731 418.854 228.677 418.311 227.738C417.768 226.798 417.012 226 416.103 225.407L201.834 101.429C200.107 100.429 198.698 101.236 198.698 103.236V109.553C198.761 110.638 199.077 111.694 199.622 112.635C200.166 113.576 200.924 114.377 201.834 114.972L416.08 238.95C417.807 239.95 419.227 239.143 419.227 237.143Z" fill="#FAFAFA"/>
<path d="M413.877 237.343C413.971 237.36 414.067 237.36 414.161 237.343C414.331 237.259 414.47 237.121 414.554 236.95C414.638 236.78 414.664 236.586 414.627 236.4L414.32 233.832L415.524 232.957C415.63 232.876 415.715 232.771 415.773 232.65C415.83 232.53 415.858 232.397 415.854 232.264C415.861 232.048 415.819 231.833 415.73 231.636C415.642 231.439 415.509 231.265 415.342 231.128L413.502 229.708C413.467 229.668 413.44 229.621 413.422 229.571L412.604 226.879C412.555 226.656 412.439 226.454 412.273 226.298C412.107 226.142 411.898 226.039 411.673 226.004C411.522 225.988 411.371 226.022 411.242 226.1C411.113 226.178 411.013 226.295 410.957 226.436L410.264 227.901L408.719 227.299C408.578 227.24 408.421 227.227 408.273 227.261C408.124 227.296 407.99 227.377 407.889 227.492C407.765 227.679 407.698 227.898 407.698 228.123C407.698 228.347 407.765 228.567 407.889 228.753L409.218 231.253C409.226 231.302 409.226 231.352 409.218 231.401L408.9 233.673C408.881 233.88 408.906 234.088 408.975 234.284C409.044 234.481 409.154 234.659 409.298 234.809C409.389 234.909 409.502 234.987 409.628 235.037C409.754 235.086 409.89 235.105 410.025 235.093L411.525 234.9L413.15 236.979C413.234 237.092 413.344 237.184 413.47 237.247C413.596 237.31 413.736 237.343 413.877 237.343ZM414.763 232.116L413.559 232.98C413.435 233.084 413.341 233.218 413.285 233.37C413.23 233.521 413.214 233.684 413.24 233.843L413.422 235.513L412.286 234.127C412.196 233.996 412.073 233.89 411.93 233.82C411.786 233.751 411.627 233.719 411.468 233.73L409.968 233.923C409.952 233.867 409.952 233.808 409.968 233.752L410.275 231.48C410.311 231.201 410.255 230.918 410.116 230.673L408.98 228.492L410.173 228.946C410.349 229.02 410.548 229.022 410.726 228.952C410.904 228.882 411.048 228.745 411.127 228.572L411.673 227.435L412.4 229.821C412.475 230.094 412.634 230.337 412.854 230.514L414.695 231.923C414.728 231.979 414.751 232.041 414.763 232.105V232.116Z" fill="white"/>
<g opacity="0.2">
<path opacity="0.2" d="M164.234 80.8278C164.459 80.8257 164.677 80.75 164.856 80.6124C165.034 80.4748 165.163 80.2828 165.222 80.0655C165.281 79.8482 165.267 79.6175 165.183 79.4085C165.1 79.1995 164.95 79.0237 164.757 78.9077L156.383 74.079C156.267 74.0118 156.138 73.9682 156.005 73.9506C155.872 73.9331 155.736 73.942 155.607 73.9768C155.477 74.0116 155.355 74.0717 155.249 74.1536C155.142 74.2354 155.053 74.3375 154.986 74.4539C154.849 74.6907 154.812 74.9717 154.883 75.2357C154.953 75.4997 155.125 75.7251 155.361 75.8628L163.723 80.7142C163.881 80.7948 164.057 80.8339 164.234 80.8278Z" fill="#5761D7"/>
<path opacity="0.2" d="M164.234 85.6678C164.463 85.6699 164.686 85.5961 164.868 85.4578C165.05 85.3196 165.182 85.1248 165.241 84.904C165.301 84.6831 165.286 84.4487 165.198 84.2374C165.11 84.0261 164.955 83.8499 164.756 83.7363L156.383 78.9076C156.267 78.8404 156.138 78.7968 156.005 78.7793C155.872 78.7617 155.736 78.7706 155.606 78.8054C155.477 78.8403 155.355 78.9003 155.248 78.9822C155.142 79.0641 155.053 79.1661 154.985 79.2826C154.849 79.5193 154.812 79.8003 154.882 80.0643C154.953 80.3283 155.124 80.5537 155.36 80.6914L163.723 85.5201C163.876 85.6168 164.053 85.668 164.234 85.6678Z" fill="#5761D7"/>
<path opacity="0.2" d="M164.234 90.4967C164.459 90.4945 164.677 90.4189 164.856 90.2813C165.034 90.1437 165.162 89.9517 165.222 89.7344C165.281 89.517 165.267 89.2864 165.183 89.0774C165.099 88.8684 164.949 88.6925 164.756 88.5766L156.383 83.7479C156.267 83.6775 156.139 83.6314 156.005 83.6122C155.871 83.593 155.734 83.6012 155.604 83.6362C155.473 83.6713 155.351 83.7324 155.245 83.8161C155.138 83.8997 155.05 84.0041 154.985 84.1228C154.918 84.2392 154.875 84.3676 154.857 84.5009C154.839 84.6341 154.848 84.7695 154.883 84.8992C154.918 85.029 154.978 85.1507 155.06 85.2573C155.142 85.3638 155.244 85.4532 155.36 85.5203L163.722 90.3603C163.878 90.4489 164.054 90.4958 164.234 90.4967Z" fill="#5761D7"/>
</g>
<path d="M411.424 273.999C412.193 274.012 412.951 273.816 413.616 273.431C414.393 272.909 415.014 272.187 415.414 271.341C415.814 270.495 415.978 269.556 415.889 268.625C415.889 264.08 412.48 258.32 408.231 255.877L219.947 147.147C217.674 145.851 215.584 145.647 213.993 146.567C213.218 147.091 212.598 147.813 212.199 148.659C211.799 149.504 211.634 150.442 211.721 151.373C211.721 155.918 215.129 161.678 219.39 164.121L407.674 272.851C408.803 273.555 410.095 273.95 411.424 273.999ZM216.197 147.147C217.329 147.194 218.429 147.534 219.39 148.135L407.674 256.866C411.583 259.138 414.764 264.398 414.764 268.625C414.842 269.358 414.724 270.098 414.423 270.771C414.122 271.443 413.647 272.024 413.048 272.454C411.844 273.147 410.083 272.931 408.242 271.863L219.958 163.121C216.038 160.849 212.857 155.588 212.857 151.362C212.779 150.63 212.896 149.891 213.198 149.221C213.499 148.55 213.974 147.971 214.573 147.544C215.069 147.27 215.63 147.132 216.197 147.147Z" fill="white"/>
<path d="M398.394 264.522L400.341 263.869C400.434 264.453 400.624 264.998 400.908 265.492C401.093 265.999 401.465 266.405 401.989 266.671C402.512 266.937 403.169 267.054 403.895 267.011C404.37 266.922 404.853 266.732 405.294 266.46C405.734 266.189 406.115 265.846 406.396 265.469C407.928 263.608 408.253 260.651 407.149 258.733C406.963 258.228 406.591 257.822 406.067 257.556C405.544 257.29 404.888 257.173 404.163 257.215C403.755 257.282 403.337 257.436 402.952 257.66C402.434 257.973 401.986 258.373 401.66 258.814C400.677 260.172 400.187 261.603 400.265 262.887L398.3 263.539L398.116 263.645C397.978 263.724 397.86 263.831 397.779 263.949C397.699 264.067 397.662 264.19 397.672 264.299C397.704 264.416 397.794 264.503 397.927 264.544C398.06 264.585 398.225 264.577 398.394 264.522ZM402.741 259.115C402.865 258.913 403.053 258.725 403.279 258.576C403.506 258.427 403.76 258.325 404.009 258.283C404.489 258.293 404.916 258.404 405.252 258.608C405.588 258.811 405.823 259.101 405.939 259.453C406.855 261.045 406.597 263.633 405.392 265.09C405.22 265.322 404.984 265.533 404.711 265.698C404.547 265.793 404.369 265.86 404.194 265.892C403.716 265.88 403.291 265.768 402.956 265.564C402.62 265.361 402.383 265.073 402.264 264.723C401.283 263.168 401.528 260.588 402.741 259.115Z" fill="#42E8E0"/>
<path d="M223.233 179.023L168.152 147.336C166.8 146.552 165.698 147.188 165.698 148.756V190.93C165.745 191.783 165.992 192.613 166.418 193.353C166.844 194.093 167.438 194.722 168.152 195.191L223.233 227.003C224.597 227.787 225.688 227.151 225.688 225.583V183.284C225.641 182.431 225.394 181.601 224.968 180.861C224.542 180.121 223.947 179.492 223.233 179.023Z" fill="white"/>
<path d="M223.233 237.649L168.152 205.95C166.8 205.166 165.698 205.803 165.698 207.371V249.545C165.745 250.398 165.992 251.227 166.418 251.967C166.844 252.708 167.438 253.337 168.152 253.806L223.233 285.641C224.597 286.425 225.688 285.788 225.688 284.221V241.899C225.642 241.047 225.397 240.218 224.97 239.48C224.544 238.741 223.949 238.114 223.233 237.649Z" fill="white"/>
<path d="M223.233 296.034L168.152 264.336C166.8 263.552 165.698 264.188 165.698 265.756V307.93C165.745 308.783 165.992 309.613 166.418 310.353C166.844 311.093 167.438 311.722 168.152 312.191L223.233 344.003C224.597 344.787 225.688 344.151 225.688 342.583V300.284C225.641 299.433 225.394 298.604 224.968 297.866C224.541 297.128 223.947 296.5 223.233 296.034Z" fill="#42E8E0"/>
<path d="M223.233 296.034L168.152 264.336C166.8 263.552 165.698 264.188 165.698 265.756V307.93C165.745 308.783 165.992 309.613 166.418 310.353C166.844 311.093 167.438 311.722 168.152 312.191L223.233 344.003C224.597 344.787 225.688 344.151 225.688 342.583V300.284C225.641 299.433 225.394 298.604 224.968 297.866C224.541 297.128 223.947 296.5 223.233 296.034Z" fill="white"/>
<path d="M358.598 384.32C358.598 385.797 357.462 386.308 356.109 385.513L291.86 348.428C291.158 347.987 290.569 347.387 290.141 346.676C289.712 345.966 289.457 345.165 289.394 344.338C289.394 342.861 290.53 342.305 291.86 343.089L356.166 380.218C356.867 380.661 357.452 381.264 357.875 381.977C358.297 382.69 358.545 383.493 358.598 384.32Z" fill="#42E8E0"/>
<path d="M358.598 384.32C358.598 385.797 357.462 386.308 356.109 385.513L291.86 348.428C291.158 347.987 290.569 347.387 290.141 346.676C289.712 345.966 289.457 345.165 289.394 344.338C289.394 342.861 290.53 342.305 291.86 343.089L356.166 380.218C356.867 380.661 357.452 381.264 357.875 381.977C358.297 382.69 358.545 383.493 358.598 384.32Z" fill="#DDDDDD"/>
<path d="M280.168 338.044C280.168 339.521 279.032 340.02 277.68 339.18L238.585 316.695C237.883 316.255 237.294 315.655 236.868 314.944C236.441 314.233 236.189 313.432 236.131 312.605C236.131 311.128 237.267 310.571 238.585 311.355L277.692 333.942C278.401 334.379 278.996 334.98 279.427 335.693C279.857 336.406 280.112 337.212 280.168 338.044Z" fill="#42E8E0"/>
<path d="M280.168 338.044C280.168 339.521 279.032 340.02 277.68 339.18L238.585 316.695C237.883 316.255 237.294 315.655 236.868 314.944C236.441 314.233 236.189 313.432 236.131 312.605C236.131 311.128 237.267 310.571 238.585 311.355L277.692 333.942C278.401 334.379 278.996 334.98 279.427 335.693C279.857 336.406 280.112 337.212 280.168 338.044Z" fill="#DDDDDD"/>
<path d="M284.781 346.565C284.932 346.565 285.076 346.505 285.183 346.398C285.289 346.292 285.349 346.147 285.349 345.997V335.34C285.349 335.189 285.289 335.044 285.183 334.938C285.076 334.831 284.932 334.771 284.781 334.771C284.63 334.771 284.486 334.831 284.379 334.938C284.273 335.044 284.213 335.189 284.213 335.34V345.997C284.213 346.147 284.273 346.292 284.379 346.398C284.486 346.505 284.63 346.565 284.781 346.565Z" fill="#42E8E0"/>
<path d="M416.917 428.42C417.105 428.422 417.289 428.361 417.439 428.247C417.589 428.133 417.697 427.973 417.746 427.791C417.795 427.61 417.783 427.417 417.711 427.243C417.639 427.069 417.512 426.923 417.349 426.829L237.051 322.734C236.857 322.633 236.632 322.61 236.421 322.669C236.21 322.728 236.029 322.865 235.915 323.053C235.812 323.246 235.787 323.473 235.846 323.685C235.905 323.896 236.044 324.077 236.233 324.189L416.497 428.306C416.624 428.382 416.769 428.421 416.917 428.42Z" fill="white"/>
<path d="M416.917 433.749C417.105 433.75 417.289 433.69 417.439 433.576C417.589 433.462 417.697 433.302 417.746 433.12C417.795 432.938 417.783 432.745 417.711 432.572C417.639 432.398 417.512 432.252 417.349 432.158L237.051 328.075C236.955 328.004 236.845 327.955 236.728 327.93C236.612 327.906 236.491 327.905 236.375 327.93C236.258 327.955 236.148 328.003 236.051 328.073C235.954 328.143 235.874 328.232 235.814 328.335C235.754 328.439 235.716 328.553 235.703 328.672C235.69 328.79 235.702 328.91 235.739 329.024C235.775 329.137 235.835 329.242 235.914 329.331C235.994 329.42 236.091 329.491 236.199 329.54L416.497 433.635C416.624 433.711 416.769 433.75 416.917 433.749Z" fill="white"/>
<path d="M416.917 439.112C417.105 439.113 417.289 439.052 417.439 438.939C417.589 438.825 417.697 438.665 417.746 438.483C417.795 438.301 417.783 438.108 417.711 437.934C417.639 437.76 417.512 437.615 417.349 437.521L237.051 333.449C236.859 333.344 236.634 333.318 236.422 333.375C236.21 333.432 236.029 333.568 235.915 333.756C235.814 333.95 235.791 334.176 235.85 334.387C235.909 334.598 236.046 334.778 236.233 334.892L416.497 438.964C416.62 439.052 416.766 439.103 416.917 439.112Z" fill="white"/>
<path d="M416.917 444.406C417.066 444.407 417.213 444.368 417.342 444.295C417.472 444.221 417.58 444.114 417.656 443.986C417.763 443.794 417.791 443.567 417.734 443.355C417.677 443.143 417.538 442.961 417.349 442.85L237.051 338.755C236.859 338.65 236.633 338.623 236.422 338.68C236.21 338.737 236.029 338.874 235.915 339.061C235.814 339.256 235.791 339.481 235.85 339.692C235.909 339.903 236.046 340.084 236.233 340.198L416.497 444.293C416.624 444.368 416.769 444.408 416.917 444.406Z" fill="white"/>
<path d="M416.917 449.746C417.067 449.744 417.214 449.704 417.344 449.628C417.473 449.552 417.581 449.444 417.656 449.314C417.763 449.122 417.791 448.896 417.734 448.683C417.677 448.471 417.538 448.289 417.349 448.178L237.051 344.083C236.954 344.027 236.847 343.991 236.736 343.976C236.625 343.961 236.513 343.969 236.404 343.998C236.296 344.027 236.195 344.077 236.106 344.145C236.017 344.213 235.943 344.298 235.887 344.395C235.831 344.492 235.795 344.599 235.78 344.71C235.765 344.821 235.773 344.934 235.802 345.042C235.831 345.15 235.881 345.252 235.949 345.341C236.017 345.429 236.102 345.504 236.199 345.56L416.497 449.632C416.626 449.703 416.77 449.742 416.917 449.746Z" fill="white"/>
<path d="M358.598 325.32C358.598 326.797 357.462 327.308 356.109 326.513L291.86 289.428C291.158 288.987 290.569 288.387 290.141 287.676C289.712 286.966 289.457 286.165 289.394 285.338C289.394 283.861 290.53 283.305 291.86 284.089L356.166 321.218C356.867 321.661 357.452 322.264 357.875 322.977C358.297 323.69 358.545 324.493 358.598 325.32Z" fill="#42E8E0"/>
<path d="M358.598 325.32C358.598 326.797 357.462 327.308 356.109 326.513L291.86 289.428C291.158 288.987 290.569 288.387 290.141 287.676C289.712 286.966 289.457 286.165 289.394 285.338C289.394 283.861 290.53 283.305 291.86 284.089L356.166 321.218C356.867 321.661 357.452 322.264 357.875 322.977C358.297 323.69 358.545 324.493 358.598 325.32Z" fill="#DDDDDD"/>
<path d="M280.168 279.044C280.168 280.521 279.032 281.02 277.68 280.18L238.585 257.695C237.883 257.255 237.294 256.655 236.868 255.944C236.441 255.233 236.189 254.432 236.131 253.605C236.131 252.128 237.267 251.571 238.585 252.355L277.692 274.942C278.401 275.379 278.996 275.98 279.427 276.693C279.857 277.406 280.112 278.212 280.168 279.044Z" fill="#42E8E0"/>
<path d="M280.168 279.044C280.168 280.521 279.032 281.02 277.68 280.18L238.585 257.695C237.883 257.255 237.294 256.655 236.868 255.944C236.441 255.233 236.189 254.432 236.131 253.605C236.131 252.128 237.267 251.571 238.585 252.355L277.692 274.942C278.401 275.379 278.996 275.98 279.427 276.693C279.857 277.406 280.112 278.212 280.168 279.044Z" fill="#DDDDDD"/>
<path d="M284.781 287.565C284.932 287.565 285.076 287.505 285.183 287.398C285.289 287.292 285.349 287.147 285.349 286.997V276.34C285.349 276.189 285.289 276.044 285.183 275.938C285.076 275.831 284.932 275.771 284.781 275.771C284.63 275.771 284.486 275.831 284.379 275.938C284.273 276.044 284.213 276.189 284.213 276.34V286.997C284.213 287.147 284.273 287.292 284.379 287.398C284.486 287.505 284.63 287.565 284.781 287.565Z" fill="#42E8E0"/>
<path d="M416.917 369.42C417.105 369.422 417.289 369.361 417.439 369.247C417.589 369.133 417.697 368.973 417.746 368.791C417.795 368.61 417.783 368.417 417.711 368.243C417.639 368.069 417.512 367.923 417.349 367.829L237.051 263.734C236.857 263.633 236.632 263.61 236.421 263.669C236.21 263.728 236.029 263.865 235.915 264.053C235.812 264.246 235.787 264.473 235.846 264.685C235.905 264.896 236.044 265.077 236.233 265.189L416.497 369.306C416.624 369.382 416.769 369.421 416.917 369.42Z" fill="white"/>
<path d="M416.917 374.749C417.105 374.75 417.289 374.69 417.439 374.576C417.589 374.462 417.697 374.302 417.746 374.12C417.795 373.938 417.783 373.745 417.711 373.572C417.639 373.398 417.512 373.252 417.349 373.158L237.051 269.075C236.955 269.004 236.845 268.955 236.728 268.93C236.612 268.906 236.491 268.905 236.375 268.93C236.258 268.955 236.148 269.003 236.051 269.073C235.954 269.143 235.874 269.232 235.814 269.335C235.754 269.439 235.716 269.553 235.703 269.672C235.69 269.79 235.702 269.91 235.739 270.024C235.775 270.137 235.835 270.242 235.914 270.331C235.994 270.42 236.091 270.491 236.199 270.54L416.497 374.635C416.624 374.711 416.769 374.75 416.917 374.749Z" fill="white"/>
<path d="M416.917 380.112C417.105 380.113 417.289 380.052 417.439 379.939C417.589 379.825 417.697 379.665 417.746 379.483C417.795 379.301 417.783 379.108 417.711 378.934C417.639 378.76 417.512 378.615 417.349 378.521L237.051 274.449C236.859 274.344 236.634 274.318 236.422 274.375C236.21 274.432 236.029 274.568 235.915 274.756C235.814 274.95 235.791 275.176 235.85 275.387C235.909 275.598 236.046 275.778 236.233 275.892L416.497 379.964C416.62 380.052 416.766 380.103 416.917 380.112Z" fill="white"/>
<path d="M416.917 385.406C417.066 385.407 417.213 385.368 417.342 385.295C417.472 385.221 417.58 385.114 417.656 384.986C417.763 384.794 417.791 384.567 417.734 384.355C417.677 384.143 417.538 383.961 417.349 383.85L237.051 279.755C236.859 279.65 236.633 279.623 236.422 279.68C236.21 279.737 236.029 279.874 235.915 280.061C235.814 280.256 235.791 280.481 235.85 280.692C235.909 280.903 236.046 281.084 236.233 281.198L416.497 385.293C416.624 385.368 416.769 385.408 416.917 385.406Z" fill="white"/>
<path d="M416.917 390.746C417.067 390.744 417.214 390.704 417.344 390.628C417.473 390.552 417.581 390.444 417.656 390.314C417.763 390.122 417.791 389.896 417.734 389.683C417.677 389.471 417.538 389.289 417.349 389.178L237.051 285.083C236.954 285.027 236.847 284.991 236.736 284.976C236.625 284.961 236.513 284.969 236.404 284.998C236.296 285.027 236.195 285.077 236.106 285.145C236.017 285.213 235.943 285.298 235.887 285.395C235.831 285.492 235.795 285.599 235.78 285.71C235.765 285.821 235.773 285.934 235.802 286.042C235.831 286.15 235.881 286.252 235.949 286.341C236.017 286.429 236.102 286.504 236.199 286.56L416.497 390.632C416.626 390.703 416.77 390.742 416.917 390.746Z" fill="white"/>
<path d="M358.598 266.32C358.598 267.797 357.462 268.308 356.109 267.513L291.86 230.428C291.158 229.987 290.569 229.387 290.141 228.676C289.712 227.966 289.457 227.165 289.394 226.338C289.394 224.861 290.53 224.305 291.86 225.089L356.166 262.218C356.867 262.661 357.452 263.264 357.875 263.977C358.297 264.69 358.545 265.493 358.598 266.32Z" fill="#42E8E0"/>
<path d="M358.598 266.32C358.598 267.797 357.462 268.308 356.109 267.513L291.86 230.428C291.158 229.987 290.569 229.387 290.141 228.676C289.712 227.966 289.457 227.165 289.394 226.338C289.394 224.861 290.53 224.305 291.86 225.089L356.166 262.218C356.867 262.661 357.452 263.264 357.875 263.977C358.297 264.69 358.545 265.493 358.598 266.32Z" fill="#DDDDDD"/>
<path d="M280.168 220.044C280.168 221.521 279.032 222.02 277.68 221.18L238.585 198.695C237.883 198.255 237.294 197.655 236.868 196.944C236.441 196.233 236.189 195.432 236.131 194.605C236.131 193.128 237.267 192.571 238.585 193.355L277.692 215.942C278.401 216.379 278.996 216.98 279.427 217.693C279.857 218.406 280.112 219.212 280.168 220.044Z" fill="#42E8E0"/>
<path d="M280.168 220.044C280.168 221.521 279.032 222.02 277.68 221.18L238.585 198.695C237.883 198.255 237.294 197.655 236.868 196.944C236.441 196.233 236.189 195.432 236.131 194.605C236.131 193.128 237.267 192.571 238.585 193.355L277.692 215.942C278.401 216.379 278.996 216.98 279.427 217.693C279.857 218.406 280.112 219.212 280.168 220.044Z" fill="#DDDDDD"/>
<path d="M284.781 228.565C284.932 228.565 285.076 228.505 285.183 228.398C285.289 228.292 285.349 228.147 285.349 227.997V217.34C285.349 217.189 285.289 217.044 285.183 216.938C285.076 216.831 284.932 216.771 284.781 216.771C284.63 216.771 284.486 216.831 284.379 216.938C284.273 217.044 284.213 217.189 284.213 217.34V227.997C284.213 228.147 284.273 228.292 284.379 228.398C284.486 228.505 284.63 228.565 284.781 228.565Z" fill="#42E8E0"/>
<path d="M416.917 310.42C417.105 310.422 417.289 310.361 417.439 310.247C417.589 310.133 417.697 309.973 417.746 309.791C417.795 309.61 417.783 309.417 417.711 309.243C417.639 309.069 417.512 308.923 417.349 308.829L237.051 204.734C236.857 204.633 236.632 204.61 236.421 204.669C236.21 204.728 236.029 204.865 235.915 205.053C235.812 205.246 235.787 205.473 235.846 205.685C235.905 205.896 236.044 206.077 236.233 206.189L416.497 310.306C416.624 310.382 416.769 310.421 416.917 310.42Z" fill="white"/>
<path d="M416.917 315.749C417.105 315.75 417.289 315.69 417.439 315.576C417.589 315.462 417.697 315.302 417.746 315.12C417.795 314.938 417.783 314.745 417.711 314.572C417.639 314.398 417.512 314.252 417.349 314.158L237.051 210.075C236.955 210.004 236.845 209.955 236.728 209.93C236.612 209.906 236.491 209.905 236.375 209.93C236.258 209.955 236.148 210.003 236.051 210.073C235.954 210.143 235.874 210.232 235.814 210.335C235.754 210.439 235.716 210.553 235.703 210.672C235.69 210.79 235.702 210.91 235.739 211.024C235.775 211.137 235.835 211.242 235.914 211.331C235.994 211.42 236.091 211.491 236.199 211.54L416.497 315.635C416.624 315.711 416.769 315.75 416.917 315.749Z" fill="white"/>
<path d="M416.917 321.112C417.105 321.113 417.289 321.052 417.439 320.939C417.589 320.825 417.697 320.665 417.746 320.483C417.795 320.301 417.783 320.108 417.711 319.934C417.639 319.76 417.512 319.615 417.349 319.521L237.051 215.449C236.859 215.344 236.634 215.318 236.422 215.375C236.21 215.432 236.029 215.568 235.915 215.756C235.814 215.95 235.791 216.176 235.85 216.387C235.909 216.598 236.046 216.778 236.233 216.892L416.497 320.964C416.62 321.052 416.766 321.103 416.917 321.112Z" fill="white"/>
<path d="M416.917 326.406C417.066 326.407 417.213 326.368 417.342 326.295C417.472 326.221 417.58 326.114 417.656 325.986C417.763 325.794 417.791 325.567 417.734 325.355C417.677 325.143 417.538 324.961 417.349 324.85L237.051 220.755C236.859 220.65 236.633 220.623 236.422 220.68C236.21 220.737 236.029 220.874 235.915 221.061C235.814 221.256 235.791 221.481 235.85 221.692C235.909 221.903 236.046 222.084 236.233 222.198L416.497 326.293C416.624 326.368 416.769 326.408 416.917 326.406Z" fill="white"/>
<path d="M416.917 331.746C417.067 331.744 417.214 331.704 417.344 331.628C417.473 331.552 417.581 331.444 417.656 331.314C417.763 331.122 417.791 330.896 417.734 330.683C417.677 330.471 417.538 330.289 417.349 330.178L237.051 226.083C236.954 226.027 236.847 225.991 236.736 225.976C236.625 225.961 236.513 225.969 236.404 225.998C236.296 226.027 236.195 226.077 236.106 226.145C236.017 226.213 235.943 226.298 235.887 226.395C235.831 226.492 235.795 226.599 235.78 226.71C235.765 226.821 235.773 226.934 235.802 227.042C235.831 227.15 235.881 227.252 235.949 227.341C236.017 227.429 236.102 227.504 236.199 227.56L416.497 331.632C416.626 331.703 416.77 331.742 416.917 331.746Z" fill="white"/>
<path d="M124.508 271.016C125.463 270.039 125.769 268.437 125.213 266.471C124.475 264.33 123.244 262.392 121.62 260.813C119.996 259.234 118.024 258.059 115.862 257.382C113.851 256.871 112.249 257.223 111.318 258.2L54.2596 312.225C52.7712 313.565 52.2485 315.872 53.1234 318.814C54.7027 324.404 60.5425 330.108 66.1779 331.539C69.1319 332.289 71.4383 331.71 72.7335 330.187L124.508 271.016Z" fill="#42E8E0"/>
<path opacity="0.15" d="M124.508 271.016C125.463 270.039 125.769 268.437 125.213 266.471C124.475 264.33 123.244 262.392 121.62 260.813C119.996 259.234 118.024 258.059 115.862 257.382C113.851 256.871 112.249 257.223 111.318 258.2L54.2596 312.225C52.7712 313.565 52.2485 315.872 53.1234 318.814C54.7027 324.404 60.5425 330.108 66.1779 331.539C69.1319 332.289 71.4383 331.71 72.7335 330.187L124.508 271.016Z" fill="#57DCD0"/>
<path d="M115.908 257.325C111.886 256.303 109.523 258.723 110.659 262.722C111.394 264.863 112.622 266.801 114.245 268.38C115.867 269.959 117.838 271.134 119.998 271.811C124.031 272.834 126.383 270.414 125.258 266.415C124.52 264.273 123.29 262.335 121.666 260.756C120.041 259.178 118.069 258.002 115.908 257.325Z" fill="#42E8E0"/>
<g opacity="0.25">
<path opacity="0.25" d="M115.908 257.325C111.886 256.303 109.523 258.723 110.659 262.722C111.394 264.863 112.622 266.801 114.245 268.38C115.867 269.959 117.838 271.134 119.998 271.811C124.031 272.834 126.383 270.414 125.258 266.415C124.52 264.273 123.29 262.335 121.666 260.756C120.041 259.178 118.069 258.002 115.908 257.325Z" fill="#5761D7"/>
</g>
<path d="M140.551 247.099C140.107 245.798 139.361 244.621 138.373 243.665C137.385 242.709 136.185 242.001 134.87 241.6C134.408 241.428 133.909 241.382 133.423 241.468C132.938 241.554 132.484 241.768 132.109 242.089L113.931 260.688C113.62 261.07 113.416 261.529 113.342 262.016C113.268 262.504 113.327 263.002 113.51 263.46C113.954 264.761 114.701 265.938 115.688 266.894C116.676 267.85 117.877 268.557 119.191 268.959C119.653 269.131 120.153 269.177 120.638 269.091C121.124 269.005 121.577 268.791 121.952 268.47L140.131 249.871C140.442 249.489 140.645 249.03 140.719 248.543C140.793 248.055 140.735 247.557 140.551 247.099Z" fill="#252532"/>
<path d="M134.904 241.601C135.231 241.685 135.55 241.795 135.859 241.93L136.006 242.01C136.278 242.137 136.544 242.277 136.802 242.43H136.858C138.593 243.492 139.9 245.128 140.551 247.054C140.735 247.512 140.793 248.01 140.719 248.498C140.645 248.985 140.442 249.444 140.131 249.827L135.779 254.28C134.207 253.251 132.742 252.067 131.405 250.747L115.34 266.437C114.515 265.583 113.9 264.548 113.545 263.415C113.361 262.958 113.303 262.459 113.377 261.972C113.45 261.484 113.654 261.025 113.965 260.643L132.143 242.044C132.523 241.731 132.978 241.525 133.464 241.447C133.949 241.369 134.446 241.422 134.904 241.601Z" fill="#444444"/>
<path d="M112.477 266.301L54.8845 322.598C54.1244 321.388 53.532 320.081 53.1235 318.712C52.2941 315.781 52.8167 313.463 54.3164 312.122L111.352 258.098C110.397 259.086 110.102 260.677 110.659 262.643C111.055 263.955 111.67 265.192 112.477 266.301Z" fill="#57DCD0"/>
<path d="M194.519 280.06C185.316 285.377 172.591 284.605 158.525 276.492C130.417 260.257 107.625 220.82 107.625 188.326C107.625 172.102 113.306 160.695 122.532 155.378L132.871 149.39C142.085 144.061 154.81 144.845 168.864 152.946C196.973 169.182 219.764 208.618 219.764 241.112C219.764 257.348 214.083 268.755 204.858 274.061L194.519 280.049V280.06ZM114.59 188.326C114.59 202.824 119.555 219.4 128.565 235.011C137.574 250.622 149.504 263.211 162.002 270.459C173.363 277.015 183.657 278.287 191.031 274.027C198.404 269.766 202.46 260.211 202.46 247.1C202.46 232.602 197.495 216.026 188.486 200.415C179.476 184.804 167.592 172.216 155.037 164.967C143.676 158.411 133.382 157.15 126.008 161.399C118.635 165.649 114.59 175.215 114.59 188.326Z" fill="#57DCD0"/>
<path opacity="0.3" d="M158.525 158.934C186.645 175.17 209.425 214.606 209.425 247.1C209.425 279.594 186.645 292.717 158.525 276.492C130.405 260.268 107.625 220.82 107.625 188.326C107.625 155.832 130.416 142.709 158.525 158.934ZM126.02 161.399C118.646 165.66 114.59 175.215 114.59 188.326C114.59 202.824 119.555 219.4 128.565 235.011C137.574 250.622 149.504 263.211 162.002 270.459C173.363 277.015 183.657 278.276 191.031 274.027C198.404 269.778 202.46 260.211 202.46 247.1C202.46 232.602 197.495 216.026 188.486 200.415C179.476 184.804 167.592 172.215 155.037 164.967C143.698 158.366 133.382 157.15 126.02 161.399Z" fill="#57DCD0"/>
<path opacity="0.1" d="M209.425 247.1C209.425 225.786 199.609 201.472 184.918 182.68L185.043 182.827L195.348 176.851C209.982 195.609 219.764 219.866 219.764 241.112C219.764 257.348 214.083 268.755 204.858 274.061L194.53 280.049L193.973 280.355C203.506 275.186 209.425 263.642 209.425 247.1Z" fill="#5761D7"/>
<path d="M126.008 161.399C129.016 159.712 132.422 158.86 135.87 158.934C133.018 163.876 131.519 170.545 131.53 178.533C131.53 193.019 136.484 209.607 145.493 225.229C154.503 240.851 166.421 253.417 178.976 260.62C185.884 264.619 192.417 266.653 198.132 266.676C196.461 269.702 194.014 272.228 191.042 273.993C183.668 278.253 173.363 276.981 162.002 270.425C149.504 263.177 137.574 250.588 128.565 234.988C119.555 219.389 114.59 202.778 114.59 188.292C114.578 175.215 118.646 165.649 126.008 161.399Z" fill="#42E8E0"/>
<path opacity="0.1" d="M126.008 161.399C129.016 159.712 132.422 158.86 135.87 158.934C133.018 163.876 131.519 170.545 131.53 178.533C131.53 193.019 136.484 209.607 145.493 225.229C154.503 240.851 166.421 253.417 178.976 260.62C185.884 264.619 192.417 266.653 198.132 266.676C196.461 269.702 194.014 272.228 191.042 273.993C183.668 278.253 173.363 276.981 162.002 270.425C149.504 263.177 137.574 250.588 128.565 234.988C119.555 219.389 114.59 202.778 114.59 188.292C114.578 175.215 118.646 165.649 126.008 161.399Z" fill="#5761D7"/>
<path opacity="0.1" d="M122.236 183.884C122.236 198.381 127.201 214.969 136.211 230.58C145.221 246.191 157.105 258.78 169.66 266.028C179.021 271.437 187.679 273.232 194.553 271.3C199.666 266.312 202.438 257.916 202.438 247.1C202.438 232.603 197.473 216.026 188.463 200.415C179.453 184.804 167.569 172.216 155.014 164.967C145.641 159.559 136.995 157.764 130.11 159.684C125.043 164.683 122.236 173.068 122.236 183.884Z" fill="white"/>
<path opacity="0.1" d="M120.85 156.434L120.248 156.877L121.225 156.184L121.623 155.912L121.123 156.241L120.85 156.434Z" fill="#5761D7"/>
<path opacity="0.1" d="M120.055 157.014C119.903 157.121 119.759 157.239 119.623 157.366L120.225 156.9L120.055 157.014Z" fill="#5761D7"/>
<path opacity="0.1" d="M117.407 159.332L118.305 158.479C118.109 158.642 117.923 158.817 117.748 159.002L117.407 159.332Z" fill="#5761D7"/>
<path d="M172.182 129.148C172.644 125.15 168.639 124.48 168.925 122.008C169.047 120.954 169.636 120.757 170.318 121.185C171.063 121.65 171.411 122.573 171.368 123.337L172.678 124.094C172.79 122.161 171.94 120.494 170.557 119.694C169.081 118.84 167.934 119.453 167.712 121.374C167.246 125.404 171.281 125.907 170.975 128.551C170.868 129.48 170.322 129.886 169.49 129.405C168.668 128.93 168.336 127.965 168.388 127.038L167.119 126.305C166.895 128.241 167.87 130.08 169.315 130.916C170.927 131.848 171.993 130.785 172.182 129.148Z" fill="#37D5C7"/>
<path d="M176.479 127.149C177.363 127.66 177.962 128.913 177.828 130.263L174.656 128.429C174.939 127.132 175.679 126.686 176.479 127.149ZM178.616 133.423L177.337 132.683C177.041 133.234 176.573 133.535 175.845 133.114C174.972 132.609 174.396 131.352 174.478 129.872L178.856 132.403C178.922 132.122 178.965 131.845 179 131.546C179.295 128.996 178.339 126.612 176.706 125.668C175.011 124.688 173.644 125.762 173.33 128.485C173.015 131.208 174.028 133.675 175.671 134.625C177.074 135.437 178.119 134.748 178.616 133.423Z" fill="#37D5C7"/>
<path d="M179.751 132.165C179.442 134.841 180.425 137.374 181.912 138.234C182.869 138.787 183.635 138.492 184.084 137.962L183.935 139.253L185.131 139.944L186.134 131.271L184.938 130.58L184.792 131.839C184.521 130.926 183.935 129.849 182.968 129.289C181.46 128.417 180.061 129.489 179.751 132.165ZM184.438 134.908C184.221 136.782 183.257 137.349 182.362 136.832C181.478 136.321 180.751 134.742 180.968 132.868C181.185 130.995 182.154 130.481 183.038 130.992C183.932 131.509 184.652 133.051 184.438 134.908Z" fill="#37D5C7"/>
<path d="M188.401 136.965C188.614 135.124 189.219 134.885 190.092 135.391L190.394 135.565L190.609 133.708C189.798 133.238 189.164 133.443 188.731 134.116L188.876 132.857L187.691 132.171L186.688 140.845L187.874 141.53L188.401 136.965Z" fill="#37D5C7"/>
<path d="M190.786 138.58C190.471 141.303 191.432 143.739 193.075 144.689C194.479 145.501 195.531 144.85 196.05 143.336L194.771 142.597C194.448 143.367 193.957 143.587 193.25 143.178C192.293 142.625 191.783 141.188 192.003 139.283C192.221 137.394 192.979 136.691 193.936 137.244C194.643 137.653 195.039 138.453 195.14 139.401L196.419 140.141C196.308 138.128 195.515 136.544 194.111 135.733C192.468 134.783 191.099 135.872 190.786 138.58Z" fill="#37D5C7"/>
<path d="M196.914 146.758L198.1 147.444L198.66 142.595C198.844 141.006 199.511 140.518 200.384 141.023C201.247 141.522 201.725 142.671 201.541 144.261L200.98 149.109L202.155 149.789L202.747 144.673C203.027 142.249 202.176 140.397 200.897 139.657C200.159 139.23 199.465 139.282 198.986 139.778L199.447 135.795L198.261 135.11L196.914 146.758Z" fill="#37D5C7"/>
<path d="M416.364 121.787L421.443 112.231L417.352 100.438V93.2122L429.85 100.438V107.653L424.476 116.969C424.39 117.113 424.264 117.228 424.113 117.299L416.364 121.787Z" fill="#42E8E0"/>
<path opacity="0.3" d="M416.364 121.787L421.443 112.231L417.352 100.438V93.2122L429.85 100.438V107.653L424.476 116.969C424.39 117.113 424.264 117.228 424.113 117.299L416.364 121.787Z" fill="#5761D7"/>
<path d="M389.71 34.1885C389.78 32.8868 390.156 31.62 390.808 30.4909C391.459 29.3618 392.367 28.4021 393.459 27.6897L396.515 25.9286C397.678 25.3406 398.962 25.0342 400.265 25.0342C401.567 25.0342 402.852 25.3406 404.014 25.9286L448.938 51.8217C450.029 52.5341 450.938 53.4938 451.589 54.623C452.241 55.7521 452.617 57.0189 452.687 58.3206V113.368C452.617 114.669 452.241 115.936 451.589 117.065C450.938 118.194 450.029 119.154 448.938 119.866L445.882 121.627C444.719 122.215 443.435 122.522 442.132 122.522C440.83 122.522 439.545 122.215 438.383 121.627L422.011 112.209L416.648 121.514C416.57 121.646 416.457 121.753 416.32 121.823C416.184 121.893 416.03 121.922 415.878 121.908C415.725 121.893 415.58 121.836 415.459 121.742C415.337 121.648 415.246 121.522 415.194 121.377L409.513 105.005L393.448 95.7457C392.356 95.0333 391.448 94.0736 390.796 92.9445C390.145 91.8153 389.769 90.5485 389.698 89.2468L389.71 34.1885Z" fill="#42E8E0"/>
<path d="M419.338 72.6585C420.248 72.6686 421.144 72.4305 421.933 71.9688C422.885 71.3198 423.648 70.4199 424.141 69.3641C424.634 68.3084 424.838 67.136 424.734 65.971C424.609 63.2391 423.847 60.5774 422.51 58.2086C421.173 55.8399 419.302 53.833 417.051 52.356C416.147 51.6179 415.046 51.176 413.892 51.088C412.739 51.0001 411.586 51.2703 410.585 51.8632C409.584 52.4561 408.781 53.3441 408.282 54.4112C407.782 55.4783 407.609 56.6747 407.785 57.844C407.912 60.5753 408.675 63.2361 410.011 65.6044C411.348 67.9728 413.219 69.9801 415.467 71.459C416.631 72.2019 417.967 72.6158 419.338 72.6585Z" fill="white"/>
<path d="M405.098 72.5248C407.721 70.9688 411.073 71.2355 414.512 73.2509L418.404 75.5331C421.931 77.835 424.865 80.9631 426.96 84.6553C429.054 88.3475 430.248 92.4964 430.441 96.7542V100.859C426.623 103.008 421.42 102.637 415.664 99.2735C409.519 95.3744 404.441 89.9612 400.901 83.5355V81.5497C400.901 77.3707 402.417 74.0956 405.098 72.5248Z" fill="white"/>
<path opacity="0.3" d="M452.687 113.368C452.617 114.669 452.241 115.936 451.589 117.065C450.938 118.194 450.029 119.154 448.938 119.866L445.881 121.627C444.831 122.155 443.68 122.455 442.506 122.508C441.331 122.561 440.158 122.365 439.064 121.934C440.826 122.593 442.166 121.605 442.166 119.469V65.4329C442.166 63.2402 442.257 61.6268 441.575 60.4452L451.63 54.6167C452.316 55.7356 452.707 57.0098 452.767 58.3206L452.687 113.368Z" fill="#252532"/>
<path opacity="0.3" d="M389.835 33.1206C390.266 31.5299 391.721 31.0187 393.459 31.9844L438.394 57.8889C439.64 58.4501 440.72 59.3227 441.53 60.4225L451.585 54.594C450.958 53.45 450.046 52.4873 448.938 51.7991L404.025 25.8946C402.861 25.3064 401.575 25 400.27 25C398.966 25 397.68 25.3064 396.515 25.8946L393.459 27.667C392.514 28.2794 391.704 29.0795 391.081 30.0176C390.457 30.9557 390.033 32.0118 389.835 33.1206Z" fill="white"/>
</svg>
