<svg width="200" height="200" viewBox="0 0 200 200" fill="none" xmlns="http://www.w3.org/2000/svg">
<path d="M105.254 174.533L121.849 164.96C123.562 163.979 124.418 162.685 124.418 161.395C124.418 160.106 124.418 159.093 124.418 159.093L107.204 149.41C106.723 149.097 106.322 148.675 106.035 148.179C105.747 147.683 105.581 147.126 105.549 146.554V126.148L76.5594 142.874V163.283C76.5898 163.855 76.7551 164.411 77.042 164.907C77.3288 165.402 77.7291 165.823 78.2102 166.135L92.8728 174.533C96.2847 176.501 101.833 176.501 105.254 174.533Z" fill="#42E8E0"/>
<g opacity="0.6">
<path opacity="0.6" d="M105.254 174.533L121.849 164.96C123.562 163.979 124.418 162.685 124.418 161.395C124.418 160.106 124.418 159.093 124.418 159.093L107.204 149.41C106.723 149.097 106.322 148.675 106.035 148.179C105.747 147.683 105.581 147.126 105.549 146.554V126.148L76.5594 142.874V163.283C76.5898 163.855 76.7551 164.411 77.042 164.907C77.3288 165.402 77.7291 165.823 78.2102 166.135L92.8728 174.533C96.2847 176.501 101.833 176.501 105.254 174.533Z" fill="black"/>
</g>
<path opacity="0.3" d="M83.5201 166.875V169.19L78.2235 166.136C77.7437 165.822 77.3443 165.401 77.0576 164.906C76.7709 164.41 76.6048 163.855 76.5728 163.284V142.857L82.0812 139.701C82.1915 141.096 82.3195 142.544 82.4343 143.952L78.559 146.188V162.13C78.5871 162.702 78.7516 163.259 79.0386 163.755C79.3257 164.251 79.7272 164.672 80.2097 164.983L83.5201 166.875Z" fill="black"/>
<path d="M78.559 162.113C78.5893 162.684 78.7546 163.24 79.0415 163.736C79.3283 164.232 79.7286 164.653 80.2097 164.965L92.8729 172.232C96.2936 174.199 101.842 174.203 105.267 172.232L121.872 162.663C125.292 160.695 125.292 157.5 121.872 155.528L109.204 148.261C108.723 147.948 108.323 147.526 108.036 147.03C107.749 146.534 107.584 145.977 107.553 145.405V129.458L78.5634 146.184L78.559 162.113Z" fill="#42E8E0"/>
<path opacity="0.3" d="M78.559 162.113C78.5893 162.684 78.7546 163.24 79.0415 163.736C79.3283 164.232 79.7286 164.653 80.2097 164.965L92.8729 172.232C96.2936 174.199 101.842 174.203 105.267 172.232L121.872 162.663C125.292 160.695 125.292 157.5 121.872 155.528L109.204 148.261C108.723 147.948 108.323 147.526 108.036 147.03C107.749 146.534 107.584 145.977 107.553 145.405V129.458L78.5634 146.184L78.559 162.113Z" fill="black"/>
<path opacity="0.5" d="M112.567 150.198L109.204 148.261C108.723 147.948 108.323 147.526 108.036 147.03C107.749 146.534 107.584 145.977 107.553 145.405V129.458L78.5632 146.184V162.13C78.5935 162.702 78.7589 163.258 79.0457 163.754C79.3326 164.249 79.7329 164.67 80.214 164.982L83.5243 166.888L112.567 150.198Z" fill="black"/>
<path d="M124.423 159.093V161.395C124.423 162.689 123.54 163.974 121.854 164.965L105.253 174.529C103.434 175.499 101.402 176.003 99.339 175.995V173.702C101.402 173.71 103.434 173.206 105.253 172.236L121.854 162.663C123.562 161.681 124.423 160.387 124.423 159.093Z" fill="#42E8E0"/>
<path opacity="0.5" d="M124.423 159.093V161.395C124.423 162.689 123.54 163.974 121.854 164.965L105.253 174.529C103.434 175.499 101.402 176.003 99.339 175.995V173.702C101.402 173.71 103.434 173.206 105.253 172.236L121.854 162.663C123.562 161.681 124.423 160.387 124.423 159.093Z" fill="black"/>
<path d="M32.0058 181.954C32.6317 182.257 33.3207 182.409 34.0164 182.396C34.7121 182.383 35.3949 182.206 36.0091 181.879L148.119 117.328C149.258 116.672 150.181 115.075 150.181 115.523V13.6963C150.181 10.6153 149.298 9.05717 148.243 8.44097C147.618 8.1386 146.929 7.98777 146.235 8.00077C145.54 8.01378 144.858 8.19024 144.244 8.51579L32.1382 73.0672C31.5366 73.4572 31.0359 73.9835 30.677 74.603C30.318 75.2225 30.1109 75.9179 30.0725 76.6324V178.433C30.0917 179.131 30.277 179.814 30.6131 180.426C30.9493 181.039 31.4266 181.562 32.0058 181.954V181.954Z" fill="#42E8E0"/>
<path d="M36.0099 181.858L148.12 117.306C149.259 116.65 150.186 115.053 150.186 115.497V13.692C150.186 10.611 149.259 10.0872 148.12 10.743L36.0099 75.2944C35.4083 75.6845 34.9076 76.2107 34.5487 76.8302C34.1897 77.4498 33.9826 78.1451 33.9442 78.8596V180.665C33.9442 181.981 34.8711 182.513 36.0099 181.858Z" fill="#42E8E0"/>
<path opacity="0.5" d="M36.0099 181.858L148.12 117.306C149.259 116.65 150.186 115.053 150.186 115.497V13.692C150.186 10.611 149.259 10.0872 148.12 10.743L36.0099 75.2944C35.4083 75.6845 34.9076 76.2107 34.5487 76.8302C34.1897 77.4498 33.9826 78.1451 33.9442 78.8596V180.665C33.9442 181.981 34.8711 182.513 36.0099 181.858Z" fill="black"/>
<path d="M35.7054 184.208C35.1192 184.46 34.4855 184.583 33.8474 184.569C33.2092 184.555 32.5814 184.405 32.0066 184.128C31.4302 183.739 30.9542 183.22 30.6175 182.613C30.2807 182.005 30.0928 181.327 30.069 180.634V174.155L33.9443 176.391V182.865C33.9443 184.062 34.7079 184.595 35.7054 184.208Z" fill="#42E8E0"/>
<path opacity="0.5" d="M35.7054 184.208C35.1192 184.46 34.4855 184.583 33.8474 184.569C33.2092 184.555 32.5814 184.405 32.0066 184.128C31.4302 183.739 30.9542 183.22 30.6175 182.613C30.2807 182.005 30.0928 181.327 30.069 180.634V174.155L33.9443 176.391V182.865C33.9443 184.062 34.7079 184.595 35.7054 184.208Z" fill="black"/>
<path d="M33.9442 176.391V182.861C33.9442 184.182 34.8711 184.71 36.0099 184.05L148.12 119.503C148.722 119.111 149.222 118.584 149.581 117.964C149.94 117.344 150.147 116.648 150.186 115.933V109.445L33.9442 176.391Z" fill="#42E8E0"/>
<path opacity="0.3" d="M33.9442 176.374V182.861C33.9442 184.182 34.8711 184.71 36.0099 184.05L148.12 119.503C148.722 119.111 149.222 118.584 149.581 117.964C149.94 117.344 150.147 116.648 150.186 115.933V109.445L33.9442 176.374Z" fill="black"/>
<path d="M37.8196 168.257V80.1448C37.8434 79.7156 37.968 79.298 38.1834 78.9256C38.3989 78.5533 38.6991 78.2367 39.0599 78.0013L145.079 16.9622C145.763 16.5705 146.319 16.8874 146.319 17.6753V105.81C146.296 106.238 146.171 106.655 145.956 107.027C145.74 107.399 145.44 107.714 145.079 107.949L39.0599 168.975C38.3757 169.366 37.8196 169.045 37.8196 168.257Z" fill="#42E8E0"/>
<path d="M37.8196 168.257V80.1448C37.8434 79.7156 37.968 79.298 38.1834 78.9256C38.3989 78.5533 38.6991 78.2367 39.0599 78.0013L145.079 16.9622C145.763 16.5705 146.319 16.8874 146.319 17.6753V105.81C146.296 106.238 146.171 106.655 145.956 107.027C145.74 107.399 145.44 107.714 145.079 107.949L39.0599 168.975C38.3757 169.366 37.8196 169.045 37.8196 168.257Z" fill="#263238"/>
<path opacity="0.7" d="M34.5534 76.8218C34.1864 77.4413 33.9772 78.141 33.9443 78.8597V176.391L30.069 174.155V76.6326C30.0956 75.9148 30.3036 75.2154 30.6737 74.5991L34.5534 76.8218Z" fill="black"/>
<path opacity="0.3" d="M150.177 11.5925C150.031 10.5318 149.171 10.1488 148.129 10.743L36.0188 75.2944C35.4083 75.6718 34.9052 76.1992 34.5578 76.8261L30.6825 74.5946C31.0324 73.9695 31.5349 73.4427 32.1435 73.0629L144.258 8.5379C144.872 8.21163 145.555 8.03477 146.251 8.02177C146.947 8.00877 147.636 8.15998 148.262 8.46308C148.786 8.81887 149.228 9.28204 149.558 9.82169C149.888 10.3613 150.099 10.965 150.177 11.5925V11.5925Z" fill="black"/>
<path d="M48.4702 173.627C48.2245 173.771 47.9473 173.854 47.6624 173.869C47.2562 173.922 46.8434 173.849 46.4795 173.662C46.1908 173.465 45.953 173.203 45.7857 172.897C45.6184 172.591 45.5264 172.25 45.5173 171.901V91.9712L47.455 93.0848V173.032C47.455 173.499 47.6889 173.767 48.0244 173.767C48.1817 173.755 48.3341 173.706 48.4702 173.627V173.627Z" fill="#F0F0F0"/>
<path d="M155.032 111.091C155.011 111.444 154.907 111.787 154.728 112.093C154.55 112.399 154.302 112.659 154.004 112.851L48.4702 173.626C47.9052 173.952 47.4462 173.688 47.4462 173.032V86.4428L50.2754 84.8143C50.8404 84.4886 51.7629 79.5326 52.3322 79.1849L76.8729 65.0563C77.4423 64.7306 78.7797 68.4058 79.3447 68.0757L155.032 24.5015V111.091Z" fill="#FAFAFA"/>
<path d="M154.556 25.3069V111.091C154.536 111.363 154.455 111.627 154.318 111.864C154.181 112.1 153.992 112.302 153.766 112.455L48.2318 173.217C48.1665 173.258 48.0925 173.284 48.0155 173.292C47.9184 173.292 47.9184 173.046 47.9184 173.032V86.7114L50.5138 85.2149C50.9242 84.9772 51.1802 84.1805 51.7584 82.1339C51.9648 81.2568 52.2484 80.3996 52.6059 79.5722L76.9259 65.5713C77.2143 65.9604 77.4725 66.3709 77.6983 66.7993C78.3604 67.9612 78.7311 68.5598 79.2696 68.5598C79.3802 68.5598 79.4887 68.5294 79.583 68.4718L154.556 25.3069ZM155.032 24.4883L79.3447 68.0625C79.322 68.0763 79.2961 68.0839 79.2696 68.0845C78.6958 68.0845 77.5041 65.0035 76.948 65.0035C76.9234 64.9969 76.8975 64.9969 76.8729 65.0035L52.3322 79.1321C51.7629 79.4622 50.8404 84.4138 50.2754 84.7615L47.4462 86.4429V173.032C47.4462 173.499 47.6757 173.767 48.0155 173.767C48.1726 173.76 48.325 173.712 48.4569 173.626L154.004 112.851C154.302 112.659 154.55 112.399 154.728 112.093C154.907 111.787 155.011 111.444 155.032 111.091V24.4883Z" fill="#E0E0E0"/>
<path d="M46.4796 89.5901C46.19 89.3941 45.9513 89.1323 45.7833 88.8261C45.6152 88.52 45.5225 88.1784 45.5129 87.8296V79.841C45.5332 79.489 45.6355 79.1466 45.8117 78.841C45.988 78.5353 46.2333 78.2749 46.5281 78.0804L152.062 17.3406C152.359 17.1529 152.702 17.05 153.053 17.0429C153.405 17.0358 153.751 17.1248 154.056 17.3004C154.36 17.4759 154.61 17.7313 154.779 18.0386C154.948 18.346 155.03 18.6937 155.015 19.044V27.0238C154.994 27.3771 154.89 27.7207 154.711 28.0266C154.533 28.3324 154.284 28.592 153.986 28.7843L48.4702 89.5549C48.1643 89.7159 47.8249 89.803 47.4791 89.8091C47.1333 89.8152 46.7909 89.7402 46.4796 89.5901V89.5901Z" fill="#42E8E0"/>
<path opacity="0.4" d="M155.019 18.8415C154.948 18.3089 154.516 18.1152 154.004 18.4013L48.4701 79.1763C48.1689 79.3711 47.9191 79.6353 47.7418 79.9466L45.813 78.833C45.9858 78.5275 46.2314 78.269 46.528 78.0804L152.062 17.3406C152.346 17.1599 152.673 17.0571 153.01 17.0428C153.347 17.0284 153.681 17.1029 153.98 17.2587C154.278 17.4145 154.531 17.6462 154.711 17.9303C154.891 18.2144 154.993 18.5408 155.006 18.8767L155.019 18.8415Z" fill="white"/>
<path opacity="0.1" d="M47.7419 79.9466C47.5584 80.2518 47.4565 80.5988 47.4461 80.9545V93.1069L45.5085 91.9933V79.8409C45.5063 79.7999 45.5063 79.7588 45.5085 79.7177C45.5164 79.6319 45.5297 79.5466 45.5482 79.4624C45.6035 79.2403 45.6896 79.0269 45.8042 78.8286L47.7419 79.9466Z" fill="black"/>
<path d="M155.028 19.0043V24.4884L79.3402 68.0626C78.7753 68.3927 78.3162 68.1242 78.3162 67.4728V65.3954C78.3162 64.7439 77.8749 64.4755 77.2834 64.8056L52.3278 79.1718C52.0305 79.3649 51.7826 79.6247 51.6041 79.9304C51.4255 80.2361 51.3212 80.5793 51.2994 80.9324V83.0055C51.277 83.3585 51.1724 83.7014 50.9938 84.007C50.8153 84.3126 50.5678 84.5725 50.271 84.7661L47.4462 86.443V80.9544C47.4681 80.6018 47.572 80.2592 47.7498 79.9536C47.9275 79.648 48.1742 79.3879 48.4702 79.1938L154.004 18.4541C154.569 18.0844 155.028 18.3528 155.028 19.0043Z" fill="#42E8E0"/>
<path d="M150.208 22.4418C150.923 22.0324 151.501 22.3669 151.501 23.19C151.477 23.6378 151.347 24.0735 151.122 24.4619C150.898 24.8504 150.585 25.1806 150.208 25.4259C149.493 25.8353 148.911 25.5008 148.911 24.6777C148.936 24.2296 149.066 23.7938 149.292 23.4054C149.517 23.0169 149.831 22.6868 150.208 22.4418V22.4418Z" fill="white"/>
<path d="M145.547 25.1223C146.262 24.713 146.84 25.0431 146.84 25.8662C146.817 26.3141 146.687 26.7501 146.462 27.1387C146.238 27.5272 145.924 27.8573 145.547 28.1021C144.832 28.5159 144.254 28.1813 144.254 27.3583C144.278 26.9105 144.408 26.4748 144.633 26.0863C144.857 25.6979 145.171 25.3677 145.547 25.1223V25.1223Z" fill="white"/>
<path d="M140.886 27.803C141.601 27.3893 142.179 27.7238 142.179 28.5468C142.155 28.9946 142.025 29.4303 141.8 29.8188C141.576 30.2072 141.263 30.5375 140.886 30.7828C140.171 31.1921 139.593 30.862 139.593 30.0389C139.617 29.591 139.746 29.155 139.971 28.7665C140.196 28.3779 140.509 28.0478 140.886 27.803V27.803Z" fill="white"/>
<path d="M155.032 24.4883V31.1565L47.4462 93.1066V86.4429L49.5604 85.2237C50.1253 84.8979 50.3151 84.4006 50.5844 83.4631L51.3038 80.9807C51.5289 80.1004 51.7452 79.5326 52.3322 79.2201L76.8729 65.0915C77.4423 64.7658 77.8881 64.7306 78.3207 65.4436L79.2034 67.0369C79.5256 67.5915 79.6889 67.9172 80.2539 67.5915L155.032 24.4883Z" fill="#E6E6E6"/>
<path d="M47.4462 86.4343V93.1069L45.5085 91.9934V85.3296L47.4462 86.4343Z" fill="#E0E0E0"/>
<path opacity="0.5" d="M52.1644 86.9184L50.549 87.8471L51.1625 86.6675C51.1873 86.623 51.2002 86.5731 51.2002 86.5222C51.2002 86.4714 51.1873 86.4214 51.1625 86.377C51.114 86.3198 51.0345 86.377 50.9771 86.465L50.0944 88.142C50.0944 88.142 50.0944 88.1816 50.0723 88.2036C50.0502 88.2256 50.0723 88.2036 50.0723 88.2036C50.0701 88.2314 50.0701 88.2594 50.0723 88.2872C50.0693 88.3121 50.0693 88.3372 50.0723 88.362C50.0723 88.362 50.0723 88.362 50.0723 88.362C50.0787 88.3744 50.086 88.3861 50.0944 88.3972V88.3972L50.9771 89.0663C50.9897 89.0763 51.0052 89.0817 51.0213 89.0817C51.0373 89.0817 51.0529 89.0763 51.0654 89.0663C51.1106 89.0371 51.1447 88.9937 51.1625 88.943C51.2111 88.833 51.2022 88.7097 51.1625 88.6701L50.549 88.1948L52.1644 87.2661C52.2054 87.2335 52.2383 87.1919 52.2605 87.1446C52.2827 87.0973 52.2937 87.0454 52.2924 86.9932C52.2924 86.9316 52.2351 86.8832 52.1644 86.9184Z" fill="#455A64"/>
<path opacity="0.5" d="M53.5107 86.1395L55.1261 85.2108L54.5082 84.7398C54.4819 84.6983 54.468 84.6502 54.468 84.6012C54.468 84.5521 54.4819 84.504 54.5082 84.4625C54.5523 84.3525 54.6362 84.2997 54.6892 84.3393L55.5719 85.0127C55.5839 85.0217 55.5931 85.0339 55.5984 85.0479C55.5984 85.0479 55.5984 85.0479 55.5984 85.0479C55.603 85.0726 55.603 85.098 55.5984 85.1227C55.6027 85.1519 55.6027 85.1816 55.5984 85.2108C55.5984 85.2108 55.5984 85.2108 55.5984 85.2108L55.5719 85.2768L54.6892 86.9581C54.6722 86.9984 54.6428 87.0323 54.6053 87.055C54.5922 87.0673 54.5748 87.0742 54.5568 87.0742C54.5387 87.0742 54.5213 87.0673 54.5082 87.055C54.483 87.0115 54.4698 86.9621 54.4698 86.9119C54.4698 86.8617 54.483 86.8124 54.5082 86.7689L55.1261 85.5893L53.5107 86.518C53.4401 86.5576 53.3827 86.518 53.3827 86.3948C53.3847 86.3456 53.3971 86.2974 53.4192 86.2534C53.4413 86.2094 53.4725 86.1706 53.5107 86.1395V86.1395Z" fill="#455A64"/>
<path opacity="0.5" d="M58.8073 81.5049C58.8073 81.4081 58.7146 81.4169 58.6705 81.5049L58.4498 82.0463C58.0702 82.0067 57.6156 82.372 57.3066 83.0234C56.905 83.8685 56.905 84.8676 57.3066 85.2505C57.4033 85.3406 57.5285 85.3943 57.6606 85.4023C57.7927 85.4104 57.9235 85.3722 58.0305 85.2945C58.3535 85.0776 58.6065 84.7718 58.7587 84.4143C58.7831 84.3713 58.7959 84.3228 58.7959 84.2734C58.7959 84.2241 58.7831 84.1755 58.7587 84.1326C58.7058 84.0841 58.6263 84.1326 58.5734 84.2382C58.2732 84.8676 57.7877 85.1493 57.492 84.8632C57.1963 84.5771 57.1919 83.8289 57.492 83.1995C57.7039 82.7593 58.0084 82.4864 58.2732 82.4688L58.1099 82.8782C58.0658 82.9838 58.1099 83.0806 58.1717 83.0366L58.8294 82.5965C58.8564 82.5764 58.8776 82.5495 58.8908 82.5186C58.904 82.4876 58.9087 82.4538 58.9044 82.4204L58.8073 81.5049Z" fill="#455A64"/>
<path opacity="0.5" d="M76.1623 68.0936L76.7538 66.8524C76.787 66.7933 76.8045 66.7266 76.8045 66.6588C76.8045 66.591 76.787 66.5243 76.7538 66.4651C76.6831 66.3991 76.5684 66.4651 76.5022 66.6104L75.9107 67.8516L75.3237 67.2882C75.2531 67.2222 75.1427 67.2882 75.0721 67.4334C75.0367 67.4918 75.0179 67.5588 75.0179 67.6271C75.0179 67.6954 75.0367 67.7623 75.0721 67.8207L75.6592 68.3973L75.0721 69.6385C75.0367 69.697 75.0179 69.7639 75.0179 69.8322C75.0179 69.9005 75.0367 69.9675 75.0721 70.0259C75.0891 70.041 75.1111 70.0494 75.1339 70.0494C75.1567 70.0494 75.1787 70.041 75.1957 70.0259C75.2533 69.989 75.298 69.9351 75.3237 69.8718L75.9107 68.6306L76.5022 69.194C76.5192 69.2092 76.5412 69.2175 76.564 69.2175C76.5868 69.2175 76.6088 69.2092 76.6258 69.194C76.6834 69.1571 76.7281 69.1033 76.7538 69.04C76.787 68.9808 76.8045 68.9141 76.8045 68.8463C76.8045 68.7785 76.787 68.7118 76.7538 68.6526L76.1623 68.0936Z" fill="#455A64"/>
<path d="M60.9524 83.0319V80.9545C60.9738 80.6012 61.078 80.258 61.2566 79.9522C61.4352 79.6464 61.6833 79.3867 61.9808 79.1939L148.213 29.5501C148.782 29.22 149.242 29.4885 149.242 30.1399V32.2174C149.22 32.5706 149.116 32.9139 148.937 33.2197C148.759 33.5254 148.511 33.7852 148.213 33.978L61.9764 83.6217C61.4114 83.9518 60.9524 83.6834 60.9524 83.0319Z" fill="#FAFAFA"/>
<path d="M146.814 34.1542C146.783 34.1593 146.752 34.1593 146.721 34.1542C146.664 34.1276 146.617 34.0821 146.589 34.0252C146.561 33.9683 146.553 33.9036 146.567 33.8417L146.668 33.0011L146.271 32.715C146.237 32.6879 146.209 32.653 146.191 32.6132C146.172 32.5734 146.163 32.5299 146.165 32.4861C146.163 32.4178 146.178 32.35 146.207 32.2881C146.236 32.2262 146.279 32.1719 146.333 32.1296L146.938 31.663C146.949 31.6488 146.958 31.6323 146.964 31.6146L147.233 30.7343C147.25 30.6619 147.288 30.596 147.342 30.545C147.396 30.4941 147.464 30.4604 147.538 30.4482C147.588 30.4426 147.638 30.4533 147.681 30.4788C147.724 30.5042 147.757 30.5429 147.776 30.5891V30.5891L148.001 31.0688L148.513 30.8752C148.559 30.8549 148.61 30.85 148.658 30.8611C148.707 30.8722 148.75 30.8988 148.783 30.9368C148.824 30.9977 148.847 31.0698 148.847 31.1437C148.847 31.2175 148.824 31.2897 148.783 31.3505L148.341 32.1692C148.339 32.1853 148.339 32.2015 148.341 32.2176L148.447 32.9571C148.455 33.0247 148.447 33.0933 148.425 33.1575C148.402 33.2216 148.364 33.2796 148.315 33.3268C148.286 33.3607 148.249 33.3869 148.207 33.403C148.166 33.4191 148.121 33.4247 148.076 33.4192L147.604 33.3444L147.07 34.0222C147.042 34.0636 147.003 34.0973 146.959 34.1203C146.914 34.1434 146.864 34.155 146.814 34.1542V34.1542ZM146.523 32.4377L146.92 32.7238C146.961 32.7572 146.992 32.8009 147.011 32.8504C147.03 32.8999 147.035 32.9534 147.026 33.0055L146.955 33.5689L147.313 33.1287C147.343 33.0854 147.385 33.0505 147.432 33.0274C147.48 33.0043 147.533 32.9937 147.586 32.9967L148.081 33.0583C148.084 33.0394 148.084 33.02 148.081 33.0011L147.975 32.2616C147.967 32.1703 147.985 32.0786 148.028 31.9975L148.412 31.2801L148.045 31.4254C147.987 31.4492 147.922 31.4497 147.864 31.4268C147.805 31.4038 147.758 31.3591 147.732 31.3021L147.555 30.9236L147.313 31.7114C147.288 31.8001 147.235 31.8786 147.163 31.9359L146.558 32.3761C146.541 32.3929 146.528 32.4142 146.523 32.4377V32.4377Z" fill="#E0E0E0"/>
<g opacity="0.5">
<path opacity="0.5" d="M150.455 29.295C150.376 29.2973 150.298 29.273 150.235 29.226C150.171 29.179 150.125 29.1121 150.104 29.0359C150.083 28.9597 150.089 28.8788 150.12 28.806C150.15 28.7333 150.205 28.673 150.274 28.6348L153.17 26.9667C153.21 26.94 153.256 26.922 153.304 26.9136C153.352 26.9052 153.401 26.9066 153.448 26.9178C153.496 26.929 153.54 26.9497 153.579 26.9787C153.618 27.0076 153.651 27.0442 153.675 27.0862C153.7 27.1282 153.715 27.1747 153.721 27.2228C153.727 27.271 153.722 27.3198 153.709 27.3663C153.695 27.4128 153.671 27.456 153.64 27.4932C153.609 27.5305 153.571 27.561 153.527 27.5829L150.632 29.2466C150.579 29.2794 150.517 29.2962 150.455 29.295V29.295Z" fill="#455A64"/>
<path opacity="0.5" d="M150.455 30.9854C150.393 30.986 150.331 30.97 150.277 30.939C150.223 30.9081 150.177 30.8634 150.146 30.8094C150.099 30.7274 150.086 30.6304 150.11 30.5391C150.134 30.4477 150.193 30.3694 150.274 30.3208L153.17 28.6571C153.21 28.6333 153.255 28.6177 153.302 28.6113C153.348 28.6048 153.396 28.6076 153.441 28.6195C153.487 28.6313 153.529 28.652 153.567 28.6804C153.604 28.7087 153.636 28.7442 153.66 28.7847C153.683 28.8251 153.698 28.8697 153.705 28.916C153.711 28.9623 153.707 29.0094 153.695 29.0544C153.683 29.0995 153.662 29.1417 153.633 29.1785C153.604 29.2153 153.568 29.246 153.527 29.2689L150.632 30.937C150.579 30.9698 150.517 30.9867 150.455 30.9854V30.9854Z" fill="#455A64"/>
<path opacity="0.5" d="M150.455 32.6312C150.376 32.6314 150.3 32.6058 150.237 32.5582C150.175 32.5106 150.13 32.4438 150.109 32.3681C150.088 32.2924 150.093 32.212 150.123 32.1394C150.153 32.0668 150.206 32.006 150.274 31.9666L153.17 30.2984C153.252 30.252 153.35 30.2398 153.442 30.2645C153.533 30.2892 153.612 30.3488 153.66 30.4305C153.683 30.4708 153.698 30.5155 153.704 30.5618C153.711 30.6081 153.707 30.6551 153.695 30.7002C153.683 30.7452 153.662 30.7874 153.633 30.8242C153.604 30.861 153.568 30.8918 153.527 30.9146L150.632 32.5828C150.578 32.6135 150.517 32.6302 150.455 32.6312V32.6312Z" fill="#455A64"/>
</g>
<path d="M76.2991 80.2814V82.8386C76.2991 83.3624 76.6698 83.5737 77.1245 83.314L111.521 63.4811V59.0181L77.1289 78.8509C76.8873 79.0073 76.6862 79.2184 76.542 79.467C76.3978 79.7156 76.3146 79.9946 76.2991 80.2814V80.2814Z" fill="#E6E6E6"/>
<path d="M115.855 56.5138C116.297 56.2497 116.681 56.4654 116.681 56.9891V59.5464C116.665 59.8319 116.582 60.1097 116.438 60.3574C116.295 60.6051 116.095 60.8158 115.855 60.9724L111.521 63.468V59.0182L115.855 56.5138Z" fill="#42E8E0"/>
<path d="M115.533 60.0349L115.052 59.8809C115.101 59.6776 115.126 59.4694 115.127 59.2603C115.15 59.0652 115.121 58.8676 115.043 58.687C114.966 58.5064 114.843 58.3491 114.686 58.2304C114.577 58.1724 114.454 58.1451 114.33 58.1513C114.206 58.1575 114.087 58.197 113.984 58.2656C113.676 58.501 113.428 58.8054 113.26 59.1541C113.093 59.5027 113.009 59.8859 113.017 60.2726C112.995 60.4677 113.024 60.6653 113.101 60.8459C113.179 61.0265 113.302 61.1839 113.459 61.3026C113.552 61.3549 113.657 61.3822 113.763 61.3818C113.904 61.3803 114.041 61.3408 114.161 61.2673C114.529 61.0154 114.804 60.6485 114.942 60.2242L115.427 60.3739C115.445 60.3781 115.463 60.3781 115.48 60.3739C115.525 60.3785 115.571 60.3656 115.606 60.3379C115.642 60.3102 115.666 60.2699 115.673 60.2252C115.68 60.1804 115.669 60.1348 115.643 60.0978C115.617 60.0607 115.578 60.0351 115.533 60.0261V60.0349ZM113.984 60.9592C113.934 60.9954 113.875 61.0174 113.814 61.0229C113.753 61.0283 113.691 61.0169 113.635 60.99C113.538 60.8996 113.464 60.7874 113.418 60.6627C113.373 60.5379 113.358 60.4042 113.375 60.2726C113.37 59.9489 113.438 59.6282 113.574 59.3342C113.71 59.0401 113.911 58.7803 114.161 58.5737C114.227 58.5335 114.303 58.5108 114.381 58.5076C114.426 58.5063 114.471 58.5186 114.509 58.5429C114.607 58.6333 114.681 58.7455 114.726 58.8702C114.772 58.995 114.786 59.1287 114.77 59.2603C114.774 59.5833 114.705 59.9031 114.569 60.1963C114.433 60.4895 114.233 60.7487 113.984 60.9548V60.9592Z" fill="#FAFAFA"/>
<path d="M148.134 39.7881C148.073 39.7892 148.014 39.774 147.961 39.7441C147.9 39.7007 147.851 39.6423 147.818 39.5745C147.786 39.5067 147.771 39.4318 147.776 39.3568C147.784 39.1804 147.835 39.0084 147.923 38.8553C148.011 38.7022 148.135 38.5723 148.284 38.4765V38.4765C148.344 38.4289 148.417 38.4006 148.494 38.395C148.571 38.3895 148.647 38.4071 148.714 38.4455C148.781 38.4839 148.834 38.5414 148.868 38.6105C148.901 38.6796 148.913 38.7571 148.902 38.833C148.892 39.0097 148.841 39.1816 148.752 39.3346C148.663 39.4877 148.539 39.6175 148.39 39.7133C148.312 39.7591 148.224 39.7848 148.134 39.7881V39.7881Z" fill="white"/>
<path d="M149.122 39.9245C149.015 39.871 148.895 39.8477 148.775 39.857C148.655 39.8663 148.54 39.9079 148.443 39.9773L148.16 40.1402C147.904 40.3023 147.69 40.523 147.536 40.784C147.383 41.0451 147.294 41.3389 147.277 41.6411V41.8435C147.45 41.9181 147.639 41.9467 147.827 41.9266C148.014 41.9066 148.192 41.8385 148.345 41.7291C148.791 41.4529 149.159 41.0682 149.414 40.6111V40.5627C149.426 40.4402 149.405 40.3167 149.354 40.2046C149.303 40.0926 149.223 39.9959 149.122 39.9245V39.9245Z" fill="white"/>
<path d="M76.3476 126.333C75.9419 126.334 75.5522 126.176 75.2618 125.893C75.0562 125.682 74.8967 125.431 74.7933 125.155C74.69 124.879 74.6451 124.585 74.6615 124.291V121.034L65.9487 126.056C65.6825 126.216 65.3769 126.3 65.0659 126.298C64.6613 126.3 64.2726 126.141 63.9845 125.858C63.7773 125.647 63.6165 125.395 63.5124 125.118C63.4083 124.842 63.3632 124.546 63.3798 124.251V118.882C63.3727 117.918 63.5433 116.962 63.883 116.06L73.7479 91.2847C73.9215 90.8161 74.156 90.3721 74.4452 89.9643C74.719 89.6189 75.0579 89.3304 75.4428 89.1148L80.4215 86.2494C80.6877 86.0891 80.9933 86.0053 81.3043 86.0074C81.7086 86.0073 82.0968 86.1653 82.3857 86.4475C82.5921 86.6583 82.7524 86.9096 82.8565 87.1853C82.9606 87.4611 83.0061 87.7554 82.9903 88.0496V105.581L84.1688 104.903C84.4349 104.742 84.7405 104.658 85.0516 104.661C85.4555 104.662 85.8431 104.82 86.133 105.101C86.3337 105.32 86.487 105.578 86.5834 105.859C86.6799 106.14 86.7173 106.438 86.6935 106.734V112.099C86.6907 112.647 86.564 113.187 86.3228 113.679C86.1022 114.196 85.7278 114.632 85.2502 114.929L82.9683 116.25V120.774C82.965 121.323 82.8383 121.865 82.5975 122.359C82.3767 122.875 82.0023 123.311 81.525 123.609L77.2083 126.096C76.9465 126.247 76.6502 126.329 76.3476 126.333V126.333ZM73.3109 111.162L74.8248 110.281V107.354L73.3109 111.162Z" fill="#E0E0E0"/>
<path d="M94.7664 115.33H94.5016C93.1077 115.293 91.7841 114.711 90.8161 113.71C89.8184 112.619 89.1205 111.289 88.7901 109.85C88.3674 108.185 88.1291 106.479 88.0795 104.762C88.0354 103.402 88.0133 101.906 88.0133 100.308C88.0133 98.7101 88.0133 97.152 88.0795 95.6775C88.1519 93.7236 88.3851 91.779 88.7769 89.8632C89.1664 87.9256 89.7796 86.0395 90.6042 84.2426C91.4117 82.4708 92.4506 80.8132 93.6939 79.313C94.9711 77.7825 96.5122 76.4917 98.2445 75.5014C99.9835 74.4978 101.484 74.0137 102.839 74.0137H103.104C104.497 74.0551 105.819 74.6361 106.79 75.6334C107.785 76.7257 108.483 78.0549 108.816 79.4935C109.238 81.1586 109.476 82.8647 109.526 84.5815C109.57 86.0384 109.592 87.5701 109.592 89.1414C109.592 90.7127 109.592 92.2224 109.526 93.6661C109.452 95.6198 109.218 97.5642 108.829 99.4804C108.435 101.416 107.82 103.3 106.997 105.097C106.19 106.869 105.151 108.526 103.907 110.026C102.629 111.557 101.088 112.849 99.3568 113.842C97.6221 114.841 96.117 115.33 94.7664 115.33ZM100.297 85.1229C99.9604 85.1635 99.6391 85.286 99.3612 85.4794C98.8514 85.7686 98.4019 86.1526 98.037 86.6106C97.6669 87.0866 97.3695 87.6146 97.1543 88.1775C96.9099 88.8148 96.7324 89.4756 96.6246 90.1493C96.497 90.9119 96.4247 91.6827 96.4083 92.4557C96.298 95.2946 96.298 98.1247 96.4083 100.889C96.4209 101.574 96.4873 102.257 96.607 102.931C96.6569 103.305 96.7896 103.663 96.9954 103.979C97.0295 104.033 97.0761 104.079 97.1313 104.113C97.1864 104.147 97.2487 104.167 97.3132 104.172V104.172C97.659 104.139 97.9904 104.018 98.2754 103.82C98.7845 103.528 99.2338 103.143 99.5995 102.685C99.9794 102.203 100.287 101.67 100.513 101.1C100.763 100.472 100.941 99.8181 101.043 99.1503C101.156 98.3848 101.223 97.6131 101.241 96.8395C101.33 93.9566 101.33 91.1176 101.241 88.402C101.21 87.7242 101.134 87.0492 101.012 86.3817C100.956 85.9979 100.822 85.6295 100.619 85.2989C100.59 85.2495 100.55 85.2077 100.502 85.1771C100.453 85.1464 100.398 85.1279 100.341 85.1229H100.297Z" fill="#E0E0E0"/>
<path d="M124.754 98.4636C124.348 98.4639 123.958 98.3059 123.668 98.0235C123.462 97.8123 123.303 97.5609 123.199 97.2851C123.096 97.0094 123.051 96.7153 123.068 96.4214V93.1643L114.337 98.1907C114.079 98.3471 113.783 98.4307 113.481 98.4328C113.075 98.435 112.684 98.2767 112.395 97.9927C112.189 97.7816 112.03 97.5303 111.926 97.2545C111.823 96.9787 111.778 96.6845 111.795 96.3906V91.0076C111.786 90.0503 111.955 89.0997 112.294 88.2039L122.154 63.437C122.326 62.9686 122.559 62.5247 122.847 62.1166C123.122 61.7723 123.46 61.4839 123.844 61.2671L128.823 58.4018C129.09 58.2421 129.395 58.1583 129.706 58.1597C130.111 58.1582 130.499 58.3164 130.787 58.5998C130.994 58.8107 131.154 59.0619 131.258 59.3377C131.362 59.6134 131.408 59.9077 131.392 60.202V77.7329L132.575 77.055C132.833 76.8981 133.129 76.8144 133.431 76.813C133.835 76.8148 134.223 76.9725 134.513 77.2531C134.719 77.4656 134.88 77.7184 134.984 77.9956C135.088 78.2728 135.133 78.5685 135.117 78.864V84.2426C135.114 84.7913 134.989 85.3325 134.751 85.8271C134.529 86.3427 134.155 86.7787 133.678 87.0771L131.392 88.3975V92.9222C131.388 93.4708 131.263 94.0118 131.026 94.5067C130.803 95.0235 130.428 95.4598 129.949 95.7567L125.632 98.2436C125.364 98.3934 125.061 98.4693 124.754 98.4636ZM121.721 83.2919L123.235 82.4116V79.4846L121.721 83.2919Z" fill="#E0E0E0"/>
<path d="M89.1124 108.142C89.0798 108.109 89.0426 108.081 89.002 108.059L85.6519 106.131V90.2855C85.6647 90.1397 85.6479 89.9928 85.6024 89.8537C85.5569 89.7145 85.4837 89.5859 85.3871 89.4757L85.2812 89.3965L81.7016 87.3234C81.6195 87.2798 81.5268 87.26 81.4339 87.2663C81.3411 87.2725 81.2519 87.3045 81.1764 87.3586L76.1976 90.2239C75.9379 90.3681 75.7086 90.5609 75.5223 90.7917C75.2946 91.1148 75.112 91.4672 74.9794 91.8392L65.119 116.597C64.8216 117.37 64.6719 118.191 64.6776 119.018V124.383C64.664 124.529 64.6805 124.676 64.726 124.816C64.7716 124.955 64.8452 125.083 64.9424 125.193C64.975 125.226 65.0122 125.254 65.0528 125.277L68.6323 127.341C68.7141 127.384 68.8063 127.403 68.8985 127.396C68.9907 127.389 69.0789 127.356 69.1532 127.302L75.9681 123.415V124.449C75.9557 124.595 75.9723 124.741 76.017 124.88C76.0617 125.019 76.1336 125.148 76.2285 125.259L76.3344 125.339L79.9228 127.403C80.0042 127.446 80.0962 127.466 80.1883 127.46C80.2805 127.454 80.369 127.422 80.4437 127.368L84.7604 124.881C85.0415 124.694 85.2599 124.427 85.3871 124.115C85.5583 123.768 85.6489 123.388 85.6519 123.001V117.83L88.4856 116.197C88.7686 116.012 88.9875 115.744 89.1124 115.431C89.2836 115.084 89.3741 114.704 89.3772 114.317V108.952C89.39 108.806 89.3731 108.659 89.3276 108.52C89.2821 108.381 89.2089 108.252 89.1124 108.142V108.142Z" fill="#42E8E0"/>
<path opacity="0.15" d="M79.0842 92.8694V92.9311C78.8805 93.2417 78.7117 93.5738 78.581 93.9214L68.725 118.679C68.5961 119.008 68.4986 119.349 68.4337 119.696L64.8232 117.619C64.8907 117.277 64.9867 116.941 65.1101 116.615L74.9661 91.8571C75.1027 91.4859 75.2867 91.1339 75.5135 90.8096V90.8096L79.0842 92.8694Z" fill="black"/>
<path opacity="0.3" d="M68.597 127.333C68.1909 127.099 65.2028 125.378 65.0659 125.299C65.026 125.274 64.989 125.244 64.9556 125.211C64.8584 125.101 64.7848 124.973 64.7392 124.833C64.6937 124.694 64.6772 124.547 64.6908 124.401V119.04C64.6918 118.567 64.7391 118.096 64.832 117.632L68.416 119.696C68.3223 120.16 68.2764 120.632 68.2792 121.105V126.47C68.2664 126.615 68.2828 126.761 68.3276 126.899C68.3723 127.037 68.4444 127.165 68.5396 127.275L68.597 127.333Z" fill="black"/>
<path opacity="0.3" d="M79.7198 103.838V113.151L76.7008 111.413L79.7198 103.838Z" fill="black"/>
<path opacity="0.4" d="M79.7198 113.151L74.9043 115.92L76.7007 111.413L79.7198 113.151Z" fill="black"/>
<path opacity="0.3" d="M79.8169 127.315L79.8787 127.368L76.3476 125.334C76.3077 125.313 76.2718 125.285 76.2417 125.251C76.1447 125.141 76.0712 125.012 76.0257 124.873C75.9802 124.734 75.9635 124.587 75.9769 124.441V123.415L79.5609 121.351V126.496C79.5451 126.643 79.5597 126.791 79.6038 126.932C79.6478 127.073 79.7203 127.203 79.8169 127.315V127.315Z" fill="black"/>
<path opacity="0.15" d="M88.9623 108.041C88.885 108.011 88.8014 108.001 88.719 108.01C88.6366 108.02 88.5579 108.051 88.4901 108.098L85.652 109.731V106.135L88.9623 108.041Z" fill="black"/>
<path opacity="0.4" d="M85.2591 89.3924C85.179 89.3563 85.0908 89.3418 85.0033 89.3503C84.9158 89.3588 84.832 89.39 84.7604 89.4408L79.786 92.3062C79.5275 92.45 79.2984 92.6411 79.1107 92.8695L75.5267 90.8053C75.7127 90.5769 75.9403 90.3857 76.1976 90.2419L81.1764 87.3765C81.2517 87.3216 81.3413 87.2895 81.4345 87.284C81.5276 87.2786 81.6204 87.3 81.7016 87.3457L85.2591 89.3924Z" fill="white"/>
<path d="M80.4437 127.377C80.3516 127.447 80.2373 127.481 80.122 127.472C80.0067 127.464 79.8983 127.415 79.8169 127.333C79.72 127.223 79.6465 127.094 79.6009 126.955C79.5554 126.816 79.5388 126.669 79.5521 126.523V121.343L69.1665 127.32C69.0748 127.39 68.9602 127.425 68.8447 127.417C68.7291 127.409 68.6206 127.358 68.5397 127.276C68.4425 127.166 68.3689 127.037 68.3233 126.898C68.2778 126.759 68.2613 126.612 68.2749 126.466V121.1C68.2693 120.273 68.419 119.452 68.7163 118.68L78.5634 93.926C78.7007 93.556 78.883 93.2041 79.1063 92.8785C79.2947 92.6496 79.5236 92.4572 79.7816 92.3107L84.7604 89.4454C84.8525 89.3757 84.9668 89.3417 85.0821 89.3498C85.1974 89.3579 85.3058 89.4075 85.3872 89.4894C85.4837 89.5996 85.5569 89.7282 85.6024 89.8674C85.6479 90.0065 85.6648 90.1534 85.652 90.2992V109.736L88.4856 108.103C88.5784 108.035 88.6923 108.002 88.8071 108.01C88.9219 108.018 89.0301 108.067 89.1124 108.147C89.2089 108.257 89.2822 108.386 89.3277 108.525C89.3732 108.664 89.39 108.811 89.3772 108.957V114.322C89.3741 114.709 89.2836 115.089 89.1124 115.436C88.9876 115.749 88.7687 116.017 88.4856 116.202L85.652 117.835V122.975C85.6489 123.362 85.5584 123.742 85.3872 124.089C85.2599 124.401 85.0416 124.668 84.7604 124.855L80.4437 127.377ZM79.7154 113.165V103.834L74.9044 115.933L79.7154 113.165Z" fill="#42E8E0"/>
<path d="M112.223 86.8392C112.177 85.2056 111.95 83.5819 111.548 81.9977C111.26 80.7409 110.652 79.5796 109.782 78.6262C109.522 78.3524 109.225 78.1155 108.899 77.9219C108.304 77.5698 105.638 76.0425 105.311 75.8533C104.686 75.4974 103.983 75.2994 103.263 75.2767C102.086 75.2151 100.669 75.6552 99.0126 76.5971C97.3916 77.5199 95.9503 78.726 94.7577 80.1579C93.5704 81.5828 92.5788 83.1592 91.8093 84.8454C91.0137 86.5654 90.4212 88.3719 90.0438 90.2283C89.6642 92.0832 89.4383 93.966 89.3685 95.8578C89.3243 97.3249 89.3022 98.8551 89.3022 100.448C89.3022 102.037 89.3243 103.507 89.3685 104.85C89.4141 106.484 89.6406 108.107 90.0438 109.691C90.3305 110.95 90.9387 112.113 91.8093 113.067C92.0708 113.339 92.3677 113.574 92.692 113.767C93.2923 114.119 95.9935 115.673 96.3378 115.867C96.9514 116.205 97.6366 116.393 98.3373 116.417C99.5202 116.478 100.941 116.034 102.588 115.096C104.207 114.171 105.648 112.965 106.843 111.536C108.028 110.11 109.02 108.533 109.791 106.848C110.587 105.128 111.179 103.322 111.557 101.465C111.936 99.6104 112.162 97.7275 112.232 95.8358C112.276 94.4273 112.298 92.9308 112.298 91.3463C112.298 89.7618 112.273 88.2594 112.223 86.8392ZM99.198 104.828C99.1168 104.278 99.0681 103.724 99.0523 103.169C98.9434 100.363 98.9434 97.5288 99.0523 94.665C99.0709 93.8405 99.1476 93.0183 99.2818 92.2046C99.4035 91.4524 99.6032 90.7149 99.8777 90.0039C100.134 89.3384 100.49 88.7152 100.933 88.1553C101.334 87.655 101.817 87.2264 102.363 86.8876C102.438 87.3894 102.491 87.9352 102.522 88.5294C102.61 91.2817 102.61 94.1163 102.522 97.033C102.503 97.854 102.431 98.6729 102.305 99.4846C102.193 100.238 101.995 100.977 101.714 101.685C101.448 102.353 101.087 102.978 100.641 103.543C100.238 104.051 99.7497 104.486 99.198 104.828Z" fill="#42E8E0"/>
<path opacity="0.15" d="M96.2538 115.841L92.7228 113.798C92.3992 113.603 92.1024 113.366 91.84 113.094C90.9701 112.141 90.362 110.979 90.0745 109.723C89.6717 108.138 89.4452 106.515 89.3992 104.881C89.3551 103.522 89.333 102.055 89.333 100.48C89.333 98.9039 89.3551 97.3722 89.3992 95.8845C89.4691 93.9927 89.695 92.1099 90.0745 90.2551C90.3379 88.9429 90.7099 87.6547 91.1868 86.4038L94.7664 88.4725C94.2946 89.7228 93.9256 91.0094 93.6629 92.3193C93.2798 94.1737 93.0524 96.0567 92.9832 97.9488C92.9391 99.4159 92.917 100.948 92.917 102.544C92.917 104.14 92.9391 105.607 92.9832 106.945C93.0284 108.579 93.2564 110.203 93.6629 111.787C93.9491 113.044 94.5574 114.206 95.4285 115.158C95.6734 115.42 95.9507 115.649 96.2538 115.841V115.841Z" fill="black"/>
<path opacity="0.4" d="M108.763 77.8385C108.169 77.5324 107.515 77.3597 106.847 77.3323C105.67 77.2736 104.252 77.7138 102.592 78.6528C100.974 79.5797 99.5346 80.787 98.3416 82.2179C97.1544 83.6422 96.1615 85.2169 95.3888 86.901C95.2696 87.1563 95.1592 87.416 95.0489 87.6801C94.9385 87.9442 94.8503 88.1819 94.7532 88.4371L91.1736 86.3685C91.2574 86.144 91.3457 85.9283 91.4384 85.6994C91.5576 85.4089 91.6768 85.1229 91.8092 84.8192C92.583 83.1353 93.5742 81.5594 94.7576 80.1316C95.9536 78.7032 97.3942 77.4976 99.0125 76.5709C100.659 75.6202 102.102 75.18 103.267 75.2504C103.985 75.2751 104.686 75.473 105.311 75.827C105.62 76.0251 107.977 77.3763 108.763 77.8385Z" fill="white"/>
<path opacity="0.3" d="M106.114 99.1105C106.094 99.9314 106.021 100.75 105.898 101.562C105.787 102.316 105.588 103.054 105.306 103.763C105.188 104.056 105.051 104.341 104.896 104.617L101.312 102.552C101.464 102.276 101.6 101.991 101.718 101.699C101.999 100.99 102.199 100.251 102.314 99.4978C102.436 98.6859 102.507 97.867 102.526 97.0462C102.614 94.1295 102.614 91.295 102.526 88.5427C102.495 87.9485 102.442 87.4027 102.371 86.9009C102.371 86.9009 102.464 86.8349 102.583 86.7645C103.066 86.4283 103.645 86.2555 104.234 86.2715C104.445 86.2948 104.649 86.3635 104.831 86.4729C105.013 86.5824 105.169 86.7299 105.289 86.9053C105.587 87.3636 105.784 87.8796 105.867 88.4194C105.997 89.1469 106.08 89.882 106.114 90.6201C106.208 93.3637 106.208 96.1938 106.114 99.1105Z" fill="black"/>
<path opacity="0.4" d="M104.909 104.604C104.718 104.957 104.496 105.292 104.247 105.607C103.793 106.178 103.233 106.654 102.596 107.011C102.114 107.345 101.537 107.518 100.95 107.504C100.737 107.483 100.531 107.417 100.346 107.31C100.161 107.203 100.001 107.058 99.8776 106.884C99.5686 106.433 99.3663 105.918 99.2862 105.378C99.2508 105.202 99.2244 105.018 99.1979 104.828C99.7568 104.489 100.251 104.054 100.659 103.543C100.909 103.228 101.132 102.892 101.325 102.54L104.909 104.604Z" fill="black"/>
<path d="M102.583 78.6661C104.234 77.7154 105.652 77.2752 106.838 77.3457C107.952 77.3736 109.01 77.8349 109.787 78.6309C110.656 79.5843 111.265 80.7457 111.552 82.0024C111.955 83.5866 112.181 85.2103 112.227 86.844C112.271 88.27 112.294 89.7768 112.294 91.3642C112.294 92.9517 112.271 94.4482 112.227 95.8537C112.157 97.7455 111.932 99.6283 111.552 101.483C111.175 103.34 110.582 105.146 109.787 106.866C109.016 108.542 108.029 110.111 106.851 111.532C105.656 112.961 104.216 114.167 102.596 115.092C100.95 116.043 99.5289 116.488 98.346 116.413C97.231 116.386 96.171 115.925 95.3931 115.128C94.5226 114.173 93.9144 113.01 93.6276 111.752C93.2244 110.168 92.9979 108.544 92.9523 106.91C92.9082 105.55 92.8861 104.08 92.8861 102.509C92.8861 100.937 92.9082 99.3925 92.9523 97.918C93.0222 96.0262 93.2481 94.1434 93.6276 92.2885C94.005 90.4321 94.5975 88.6256 95.3931 86.9056C96.1659 85.2201 97.1588 83.6439 98.346 82.218C99.5338 80.7907 100.969 79.5876 102.583 78.6661V78.6661ZM106.114 99.1108C106.203 96.1941 106.203 93.3596 106.114 90.6072C106.082 89.8689 105.999 89.1336 105.867 88.4065C105.785 87.867 105.59 87.351 105.293 86.8924C105.175 86.7155 105.02 86.5668 104.837 86.4572C104.655 86.3476 104.45 86.2798 104.238 86.2586C103.65 86.2471 103.073 86.4195 102.588 86.7515C101.953 87.1086 101.394 87.5855 100.941 88.1556C100.499 88.7155 100.143 89.3387 99.8864 90.0042C99.6119 90.7152 99.4122 91.4527 99.2905 92.2049C99.1563 93.0187 99.0796 93.8408 99.061 94.6653C98.9521 97.5292 98.9521 100.364 99.061 103.169C99.0742 103.907 99.145 104.643 99.2729 105.37C99.3527 105.91 99.5566 106.426 99.8687 106.875C99.9924 107.049 100.152 107.195 100.337 107.303C100.522 107.411 100.728 107.478 100.941 107.5C101.528 107.511 102.104 107.338 102.588 107.007C103.222 106.647 103.782 106.171 104.238 105.603C104.681 105.037 105.04 104.412 105.307 103.745C105.589 103.037 105.789 102.299 105.902 101.545C106.024 100.739 106.094 99.9257 106.114 99.1108V99.1108Z" fill="#42E8E0"/>
<path d="M137.523 80.2813C137.489 80.2482 137.45 80.22 137.408 80.1977L134.058 78.2698V62.4247C134.071 62.2792 134.054 62.1326 134.01 61.9935C133.965 61.8545 133.893 61.7257 133.798 61.6148C133.766 61.5843 133.73 61.5577 133.692 61.5356L130.108 59.4713C130.025 59.4278 129.933 59.408 129.84 59.4142C129.747 59.4204 129.658 59.4524 129.582 59.5065L124.604 62.3719C124.344 62.5157 124.114 62.7085 123.928 62.9397C123.704 63.2648 123.522 63.6167 123.385 63.9872L113.529 88.7453C113.232 89.5176 113.082 90.3387 113.088 91.166V96.5314C113.074 96.6769 113.09 96.8238 113.135 96.963C113.18 97.1022 113.252 97.2309 113.348 97.3413C113.383 97.3744 113.421 97.4025 113.463 97.4249L117.043 99.4892C117.124 99.5322 117.217 99.5513 117.309 99.5443C117.401 99.5373 117.489 99.5045 117.564 99.4495L124.361 95.5367V96.5666C124.348 96.7124 124.365 96.8593 124.41 96.9985C124.456 97.1376 124.529 97.2662 124.626 97.3765L124.732 97.4557L128.316 99.52C128.397 99.5627 128.489 99.582 128.581 99.5757C128.673 99.5695 128.761 99.538 128.836 99.4848L133.171 97.0068C133.451 96.8185 133.669 96.5521 133.798 96.2409C133.965 95.8931 134.054 95.513 134.058 95.1273V89.9645L136.896 88.3315C137.178 88.1455 137.396 87.8784 137.523 87.5657C137.69 87.2179 137.779 86.8378 137.783 86.4521V81.0824C137.806 80.7915 137.712 80.5036 137.523 80.2813Z" fill="#42E8E0"/>
<path opacity="0.15" d="M127.49 64.9993V65.0609C127.287 65.3716 127.118 65.7037 126.987 66.0513L117.131 90.8093C117.002 91.1384 116.905 91.4788 116.84 91.8261L113.229 89.7486C113.297 89.4067 113.393 89.071 113.516 88.7451L123.355 63.9958C123.491 63.6246 123.675 63.2725 123.902 62.9482L127.49 64.9993Z" fill="black"/>
<path opacity="0.3" d="M117.012 99.463C116.606 99.2297 113.618 97.5087 113.481 97.4295C113.441 97.4043 113.404 97.3748 113.371 97.3415C113.273 97.2316 113.2 97.1031 113.154 96.9639C113.109 96.8246 113.092 96.6775 113.106 96.5316V91.1707C113.107 90.6977 113.154 90.226 113.247 89.7622L116.831 91.8265C116.737 92.2901 116.691 92.762 116.694 93.2349V98.6003C116.681 98.7451 116.698 98.891 116.742 99.0293C116.787 99.1677 116.859 99.2957 116.955 99.4058L117.012 99.463Z" fill="black"/>
<path opacity="0.3" d="M128.126 75.9678V85.2812L125.107 83.5426L128.126 75.9678Z" fill="black"/>
<path opacity="0.4" d="M128.126 85.2815L123.31 88.05L125.107 83.543L128.126 85.2815Z" fill="black"/>
<path opacity="0.3" d="M128.223 99.4449L128.285 99.4977L124.754 97.4643C124.714 97.4428 124.678 97.4145 124.648 97.3806C124.551 97.2707 124.477 97.1421 124.432 97.0029C124.386 96.8637 124.37 96.7166 124.383 96.5708V95.5364L127.967 93.4722V98.635C127.952 98.7803 127.968 98.927 128.012 99.0662C128.056 99.2054 128.128 99.3342 128.223 99.4449V99.4449Z" fill="black"/>
<path opacity="0.15" d="M137.368 80.1715C137.291 80.1414 137.207 80.1309 137.125 80.1409C137.043 80.1509 136.964 80.181 136.896 80.2287L134.058 81.8616V78.2656L137.368 80.1715Z" fill="black"/>
<path opacity="0.4" d="M133.665 61.5223C133.585 61.4862 133.497 61.4717 133.409 61.4802C133.322 61.4887 133.238 61.5199 133.166 61.5707L128.183 64.436C127.925 64.5799 127.696 64.771 127.508 64.9994L123.924 62.9351C124.11 62.7068 124.338 62.5156 124.595 62.3718L129.574 59.5064C129.649 59.4515 129.739 59.4194 129.832 59.4139C129.925 59.4085 130.018 59.4299 130.099 59.4756L133.665 61.5223Z" fill="white"/>
<path d="M128.85 99.4893C128.758 99.5589 128.643 99.5929 128.528 99.5848C128.413 99.5767 128.304 99.5271 128.223 99.4452C128.127 99.3346 128.055 99.2059 128.01 99.0668C127.965 98.9276 127.949 98.7809 127.962 98.6354V93.4857L117.59 99.4496C117.498 99.5202 117.384 99.5548 117.268 99.5467C117.153 99.5385 117.044 99.4883 116.963 99.4056C116.866 99.2958 116.792 99.1673 116.747 99.028C116.701 98.8887 116.685 98.7416 116.698 98.5958V93.2304C116.693 92.4031 116.843 91.582 117.14 90.8096L126.996 66.0515C127.131 65.6799 127.315 65.3277 127.543 65.004C127.718 64.7755 127.935 64.5827 128.183 64.4362L133.162 61.5709C133.254 61.5021 133.368 61.4687 133.483 61.4768C133.599 61.4849 133.707 61.5339 133.789 61.6149C133.884 61.7258 133.956 61.8545 134.001 61.9936C134.046 62.1327 134.062 62.2793 134.049 62.4248V81.8615L136.887 80.2286C136.98 80.1598 137.094 80.1264 137.209 80.1345C137.324 80.1425 137.432 80.1916 137.514 80.2726C137.609 80.3837 137.681 80.5125 137.725 80.6515C137.77 80.7905 137.787 80.937 137.774 81.0825V86.4434C137.77 86.8291 137.681 87.2092 137.514 87.557C137.388 87.8697 137.169 88.1367 136.887 88.3228L134.058 89.9645V95.1274C134.054 95.5131 133.965 95.8932 133.797 96.241C133.669 96.5522 133.451 96.8186 133.171 97.0068L128.85 99.4893ZM128.126 85.277V75.9636L123.328 88.0499L128.126 85.277Z" fill="#42E8E0"/>
<path d="M93.8526 130.647C93.8725 130.63 93.8974 130.621 93.9232 130.621C93.9491 130.621 93.974 130.63 93.9939 130.647C94.016 130.672 94.0329 130.701 94.0435 130.733C94.0541 130.765 94.0582 130.798 94.0557 130.832V132.047C94.0536 132.135 94.0325 132.222 93.9939 132.302C93.9663 132.373 93.9168 132.433 93.8526 132.473L90.3216 134.511C90.3018 134.528 90.2768 134.537 90.251 134.537C90.2252 134.537 90.2002 134.528 90.1804 134.511C90.159 134.486 90.1429 134.456 90.1331 134.425C90.1232 134.393 90.1198 134.36 90.123 134.326V126.936C90.1229 126.85 90.1425 126.764 90.1804 126.686C90.2092 126.616 90.2584 126.556 90.3216 126.514L93.8041 124.507C93.8235 124.49 93.8486 124.48 93.8747 124.48C93.9008 124.48 93.9259 124.49 93.9453 124.507C93.967 124.531 93.9833 124.56 93.9932 124.591C94.0031 124.622 94.0063 124.655 94.0027 124.687V125.907C94.0028 125.993 93.9831 126.079 93.9453 126.157C93.9165 126.227 93.8673 126.287 93.8041 126.329L91.5045 127.649V128.886L93.6363 127.658C93.6572 127.642 93.6828 127.634 93.7092 127.634C93.7355 127.634 93.7611 127.642 93.782 127.658C93.8034 127.684 93.8194 127.713 93.8293 127.745C93.8391 127.777 93.8426 127.81 93.8394 127.843V129.058C93.8395 129.145 93.8198 129.231 93.782 129.309C93.7516 129.38 93.701 129.442 93.6363 129.485L91.5045 130.713V131.998L93.8526 130.647Z" fill="#455A64"/>
<path d="M97.3263 122.46C97.5969 122.292 97.8961 122.174 98.2091 122.113C98.4347 122.064 98.6706 122.1 98.8712 122.214C99.0755 122.35 99.2243 122.554 99.2905 122.79C99.3981 123.141 99.4473 123.507 99.4361 123.873C99.4421 124.402 99.3631 124.928 99.2022 125.431C99.06 125.882 98.8388 126.303 98.549 126.677L99.4714 128.878C99.4872 128.912 99.4947 128.95 99.4935 128.988C99.4945 129.059 99.4778 129.131 99.445 129.194C99.4213 129.252 99.3814 129.301 99.3302 129.335L98.315 129.921C98.2179 129.978 98.1473 129.982 98.1032 129.921C98.0616 129.878 98.0273 129.829 98.0016 129.775L97.1674 127.817L96.4833 128.209V130.665C96.4817 130.752 96.4606 130.837 96.4215 130.915C96.3906 130.985 96.3419 131.046 96.2803 131.091L95.3004 131.65C95.2815 131.669 95.2561 131.679 95.2298 131.679C95.2034 131.679 95.1781 131.669 95.1592 131.65C95.1371 131.625 95.1206 131.596 95.1108 131.564C95.1009 131.532 95.0978 131.499 95.1018 131.466V124.049C95.1017 123.962 95.1213 123.877 95.1592 123.798C95.1881 123.727 95.2372 123.666 95.3004 123.622L97.3263 122.46ZM96.4833 126.422L97.3263 125.937C97.5327 125.817 97.7091 125.651 97.8427 125.453C97.9899 125.219 98.0622 124.946 98.0502 124.67C98.0502 124.348 97.9796 124.168 97.8427 124.124C97.7534 124.107 97.6614 124.108 97.5726 124.128C97.4837 124.147 97.3999 124.185 97.3263 124.238L96.4833 124.736V126.422Z" fill="#455A64"/>
<path d="M102.702 119.362C102.974 119.195 103.273 119.077 103.585 119.014C103.809 118.97 104.042 119.006 104.243 119.115C104.454 119.251 104.611 119.456 104.684 119.696C104.778 120.048 104.814 120.412 104.79 120.775C104.795 121.304 104.718 121.831 104.561 122.337C104.415 122.786 104.192 123.206 103.903 123.578L104.825 125.779C104.842 125.815 104.852 125.854 104.852 125.893C104.851 125.965 104.834 126.036 104.803 126.1C104.777 126.157 104.736 126.206 104.684 126.241L103.669 126.827C103.572 126.884 103.501 126.888 103.457 126.827C103.414 126.783 103.38 126.733 103.356 126.677L102.543 124.736L101.859 125.132V127.588C101.858 127.675 101.837 127.761 101.798 127.839C101.769 127.909 101.72 127.969 101.656 128.011L100.676 128.574C100.657 128.591 100.632 128.601 100.606 128.601C100.58 128.601 100.555 128.591 100.535 128.574C100.514 128.548 100.498 128.519 100.488 128.487C100.478 128.456 100.475 128.422 100.478 128.389V120.955C100.478 120.867 100.497 120.78 100.535 120.7C100.564 120.63 100.613 120.57 100.676 120.528L102.702 119.362ZM101.859 123.323L102.702 122.834C102.91 122.718 103.087 122.553 103.219 122.355C103.365 122.12 103.438 121.847 103.426 121.571C103.426 121.25 103.356 121.07 103.219 121.025C103.129 121.008 103.038 121.01 102.949 121.029C102.86 121.049 102.776 121.087 102.702 121.14L101.859 121.624V123.323Z" fill="#455A64"/>
<path d="M105.673 120.638C105.687 120.193 105.748 119.75 105.854 119.318C105.956 118.887 106.104 118.468 106.295 118.068C106.49 117.68 106.731 117.318 107.015 116.989C107.291 116.667 107.621 116.395 107.99 116.184C108.28 115.996 108.615 115.888 108.961 115.871C109.224 115.865 109.479 115.954 109.681 116.122C109.891 116.318 110.044 116.568 110.122 116.844C110.235 117.202 110.296 117.574 110.303 117.949C110.303 118.27 110.303 118.614 110.303 118.97C110.303 119.327 110.303 119.67 110.303 119.991C110.289 120.436 110.228 120.879 110.122 121.312C110.021 121.745 109.873 122.165 109.681 122.566C109.488 122.955 109.246 123.317 108.961 123.644C108.684 123.963 108.356 124.234 107.99 124.445C107.698 124.634 107.362 124.745 107.015 124.767C106.752 124.773 106.496 124.684 106.295 124.516C106.088 124.314 105.936 124.062 105.854 123.785C105.74 123.428 105.679 123.055 105.673 122.68C105.673 122.372 105.673 122.038 105.673 121.681C105.673 121.325 105.673 120.973 105.673 120.638ZM108.952 120.735C108.952 120.594 108.952 120.44 108.952 120.268C108.952 120.097 108.952 119.925 108.952 119.749C108.952 119.573 108.952 119.406 108.952 119.243C108.952 119.08 108.952 118.939 108.952 118.803C108.943 118.639 108.916 118.477 108.873 118.319C108.84 118.2 108.778 118.091 108.692 118.002C108.613 117.93 108.511 117.89 108.405 117.887C108.262 117.894 108.123 117.94 108.003 118.019C107.849 118.106 107.712 118.219 107.597 118.354C107.483 118.488 107.386 118.635 107.31 118.794C107.232 118.962 107.173 119.137 107.134 119.318C107.089 119.506 107.063 119.697 107.054 119.89C107.054 120.026 107.054 120.176 107.054 120.33C107.054 120.484 107.054 120.669 107.054 120.845C107.054 121.021 107.054 121.193 107.054 121.356C107.054 121.518 107.054 121.673 107.054 121.796C107.046 122.085 107.136 122.37 107.31 122.601C107.465 122.764 107.694 122.76 108.003 122.579C108.31 122.405 108.551 122.134 108.687 121.809C108.84 121.469 108.932 121.106 108.961 120.735H108.952Z" fill="#455A64"/>
<path d="M113.618 113.072C113.889 112.905 114.188 112.788 114.5 112.724C114.725 112.68 114.958 112.716 115.158 112.826C115.37 112.961 115.526 113.167 115.6 113.407C115.707 113.756 115.756 114.12 115.745 114.485C115.75 115.015 115.673 115.542 115.516 116.048C115.369 116.497 115.147 116.918 114.858 117.293L115.78 119.494C115.798 119.53 115.807 119.569 115.807 119.608C115.806 119.68 115.789 119.75 115.758 119.815C115.732 119.872 115.691 119.92 115.639 119.956L114.624 120.541C114.527 120.599 114.456 120.603 114.412 120.541C114.369 120.498 114.335 120.447 114.311 120.392L113.481 118.416L112.797 118.812V121.268C112.795 121.355 112.774 121.441 112.735 121.519C112.706 121.589 112.657 121.648 112.594 121.69L111.614 122.254C111.594 122.271 111.569 122.28 111.543 122.28C111.517 122.28 111.492 122.271 111.473 122.254C111.451 122.228 111.435 122.199 111.425 122.167C111.415 122.135 111.412 122.102 111.415 122.069V114.666C111.416 114.577 111.435 114.49 111.473 114.41C111.501 114.34 111.551 114.28 111.614 114.239L113.618 113.072ZM112.775 117.033L113.618 116.545C113.826 116.427 114.004 116.263 114.139 116.065C114.284 115.83 114.354 115.557 114.342 115.282C114.342 114.96 114.275 114.78 114.139 114.736C114.048 114.718 113.956 114.72 113.866 114.739C113.777 114.759 113.692 114.797 113.618 114.85L112.775 115.335V117.033Z" fill="#455A64"/>
<path d="M80.3862 143.323C80.8276 143.059 81.2072 143.019 81.4632 143.209C81.7192 143.398 81.8472 143.807 81.8472 144.454C81.8602 145.042 81.7283 145.624 81.4632 146.149C81.2213 146.622 80.8473 147.014 80.3862 147.28L79.4725 147.804V149.767C79.4708 149.833 79.4542 149.897 79.424 149.956C79.4034 150.011 79.3664 150.059 79.3181 150.092L78.8767 150.356C78.8619 150.371 78.8421 150.379 78.8215 150.379C78.8009 150.379 78.7812 150.371 78.7663 150.356C78.7498 150.338 78.7373 150.316 78.7297 150.293C78.7221 150.269 78.7196 150.245 78.7222 150.22V144.542C78.7219 144.475 78.737 144.409 78.7663 144.348C78.7896 144.295 78.8279 144.249 78.8767 144.216L80.3862 143.323ZM79.4725 146.708L80.3553 146.197C80.5865 146.071 80.7767 145.882 80.9034 145.652C81.0302 145.422 81.0881 145.161 81.0703 144.899C81.0703 144.569 81.0041 144.379 80.8761 144.326C80.7862 144.306 80.6929 144.306 80.6029 144.326C80.5129 144.345 80.4283 144.385 80.3553 144.441L79.4725 144.951V146.708Z" fill="#E0E0E0"/>
<path d="M84.2571 141.1C84.3144 141.065 84.363 141.061 84.3939 141.1C84.4349 141.151 84.4622 141.212 84.4733 141.276L85.8769 146.021C85.8769 146.021 85.8769 146.056 85.8769 146.078C85.8754 146.145 85.8604 146.211 85.8328 146.272C85.8104 146.326 85.7719 146.372 85.7224 146.404L85.312 146.642C85.2325 146.686 85.1795 146.695 85.1487 146.642C85.1188 146.611 85.0975 146.573 85.0869 146.532L84.8397 145.7L83.0389 146.743L82.7917 147.857C82.7757 147.918 82.7551 147.979 82.7299 148.037C82.6961 148.11 82.6385 148.169 82.5666 148.204L82.1561 148.442C82.1408 148.455 82.1212 148.463 82.1009 148.463C82.0807 148.463 82.0611 148.455 82.0458 148.442C82.013 148.403 81.9971 148.352 82.0016 148.301C81.9993 148.279 81.9993 148.257 82.0016 148.235L83.4096 141.901C83.4259 141.809 83.4525 141.719 83.4891 141.633C83.5159 141.568 83.5642 141.513 83.6259 141.479L84.2571 141.1ZM84.5704 144.776L83.9393 142.632L83.3125 145.497L84.5704 144.776Z" fill="#E0E0E0"/>
<path d="M86.3227 142.183C86.3277 141.835 86.3691 141.488 86.4463 141.149C86.5219 140.825 86.6329 140.511 86.7774 140.211C86.9211 139.925 87.1022 139.658 87.3158 139.419C87.5304 139.182 87.7806 138.98 88.0574 138.82C88.3014 138.657 88.585 138.563 88.8783 138.547C89.0642 138.546 89.2449 138.608 89.3903 138.723C89.5221 138.84 89.6159 138.993 89.6596 139.164C89.7082 139.306 89.7379 139.454 89.7478 139.604C89.7526 139.672 89.7389 139.741 89.7081 139.802C89.6832 139.855 89.6433 139.899 89.5934 139.929L89.152 140.198C89.1123 140.22 89.0769 140.224 89.0549 140.198C89.0289 140.181 89.0089 140.156 88.9975 140.128C88.9807 140.087 88.9615 140.047 88.9401 140.009C88.903 139.944 88.8498 139.889 88.7856 139.85C88.7009 139.803 88.6046 139.78 88.5076 139.784C88.3503 139.794 88.1982 139.844 88.0662 139.929C87.7673 140.107 87.5277 140.369 87.3776 140.682C87.2024 141.026 87.1088 141.406 87.104 141.791C87.104 142.02 87.104 142.262 87.104 142.513C87.104 142.764 87.104 143.006 87.104 143.222C87.104 143.701 87.2055 144.005 87.3776 144.102C87.4861 144.16 87.6094 144.185 87.7319 144.173C87.8545 144.161 87.9708 144.114 88.0662 144.036C88.2069 143.953 88.3373 143.854 88.4546 143.741C88.5763 143.622 88.6791 143.486 88.7591 143.336C88.8524 143.17 88.9194 142.99 88.9578 142.804C89.0096 142.581 89.0348 142.354 89.0328 142.126V142.055L88.331 142.46C88.3161 142.472 88.2973 142.479 88.278 142.479C88.2587 142.479 88.24 142.472 88.2251 142.46C88.2084 142.441 88.1959 142.419 88.1883 142.394C88.1807 142.37 88.1782 142.345 88.1809 142.319V141.694C88.1807 141.627 88.1958 141.561 88.2251 141.501C88.2485 141.448 88.2849 141.403 88.331 141.369L89.6552 140.612C89.6692 140.598 89.6883 140.59 89.7081 140.59C89.728 140.59 89.747 140.598 89.7611 140.612C89.7788 140.63 89.7922 140.653 89.8006 140.677C89.809 140.701 89.8121 140.727 89.8096 140.753V141.716C89.8086 142.064 89.7716 142.411 89.6993 142.751C89.6313 143.08 89.5216 143.4 89.3727 143.701C89.2292 143.996 89.0466 144.27 88.8298 144.516C88.612 144.762 88.3556 144.972 88.0706 145.136C87.8418 145.282 87.5816 145.371 87.3114 145.396C87.2149 145.402 87.1183 145.388 87.0273 145.355C86.9363 145.323 86.8528 145.272 86.7818 145.207C86.6228 145.05 86.5112 144.852 86.4596 144.635C86.3793 144.348 86.3378 144.052 86.336 143.754C86.336 143.644 86.336 143.521 86.336 143.389C86.336 143.257 86.336 143.116 86.336 142.975C86.336 142.834 86.336 142.698 86.336 142.562C86.336 142.425 86.3183 142.297 86.3227 142.183Z" fill="#E0E0E0"/>
<path d="M93.3142 140.928C93.329 140.914 93.3488 140.906 93.3694 140.906C93.3899 140.906 93.4097 140.914 93.4245 140.928C93.4422 140.947 93.4557 140.969 93.4641 140.994C93.4724 141.018 93.4755 141.044 93.4731 141.069V141.69C93.472 141.757 93.4554 141.824 93.4245 141.884C93.4039 141.939 93.3649 141.985 93.3142 142.016L90.8027 143.464C90.7882 143.477 90.7693 143.484 90.7498 143.484C90.7302 143.484 90.7114 143.477 90.6968 143.464C90.6791 143.445 90.6657 143.423 90.6573 143.398C90.6489 143.374 90.6458 143.348 90.6483 143.323V137.649C90.6494 137.582 90.666 137.516 90.6968 137.456C90.7175 137.402 90.7545 137.356 90.8027 137.324L93.2701 135.902C93.2853 135.889 93.3049 135.881 93.3252 135.881C93.3455 135.881 93.3651 135.889 93.3804 135.902C93.3971 135.921 93.4096 135.944 93.4172 135.968C93.4248 135.992 93.4273 136.018 93.4245 136.043V136.668C93.4241 136.733 93.4091 136.798 93.3804 136.857C93.3583 136.913 93.3199 136.96 93.2701 136.994L91.4207 138.054V139.454L93.1465 138.459C93.1614 138.447 93.1801 138.44 93.1994 138.44C93.2187 138.44 93.2374 138.447 93.2524 138.459C93.2696 138.478 93.2828 138.5 93.2912 138.525C93.2995 138.549 93.3028 138.575 93.301 138.6V139.26C93.2999 139.328 93.2832 139.394 93.2524 139.454C93.229 139.506 93.1925 139.552 93.1465 139.586L91.4295 140.581V142.042L93.3142 140.928Z" fill="#E0E0E0"/>
<path d="M98.3768 139.115C98.3106 139.155 98.2621 139.155 98.2312 139.115L98.1562 139.036L96.5539 136.303V139.921C96.5529 139.988 96.5362 140.054 96.5054 140.114C96.4847 140.168 96.4477 140.214 96.3995 140.246L95.936 140.515C95.9212 140.529 95.9014 140.537 95.8809 140.537C95.8603 140.537 95.8405 140.529 95.8257 140.515C95.8088 140.496 95.7961 140.473 95.7885 140.449C95.7809 140.425 95.7785 140.399 95.7815 140.374V134.701C95.7813 134.634 95.7964 134.567 95.8257 134.507C95.8464 134.452 95.8853 134.405 95.936 134.375L96.3333 134.142C96.3995 134.106 96.448 134.102 96.4833 134.142C96.5109 134.165 96.536 134.192 96.5584 134.221L98.1606 136.954V133.336C98.1603 133.269 98.1754 133.203 98.2047 133.142C98.227 133.088 98.2656 133.042 98.315 133.01L98.7564 132.742C98.7712 132.728 98.791 132.72 98.8116 132.72C98.8322 132.72 98.852 132.728 98.8668 132.742C98.8991 132.781 98.9149 132.832 98.9109 132.883V138.556C98.9085 138.623 98.8935 138.689 98.8668 138.75C98.8444 138.804 98.8059 138.85 98.7564 138.882L98.3768 139.115Z" fill="#E0E0E0"/>
<path d="M99.8334 134.419C99.8426 134.083 99.8825 133.748 99.9525 133.42C100.022 133.098 100.127 132.785 100.266 132.486C100.4 132.196 100.574 131.925 100.782 131.681C100.987 131.434 101.236 131.227 101.515 131.069C101.731 130.929 101.981 130.849 102.239 130.836C102.335 130.835 102.43 130.854 102.518 130.89C102.607 130.926 102.688 130.98 102.755 131.047C102.907 131.21 103.015 131.408 103.069 131.624C103.147 131.903 103.19 132.192 103.197 132.482C103.197 132.592 103.197 132.711 103.197 132.847V133.679C103.197 133.816 103.197 133.939 103.197 134.053C103.184 134.389 103.143 134.724 103.073 135.053C103.005 135.374 102.9 135.688 102.76 135.986C102.625 136.276 102.452 136.548 102.243 136.791C102.037 137.033 101.791 137.237 101.515 137.394C101.296 137.537 101.043 137.619 100.782 137.632C100.59 137.633 100.404 137.558 100.266 137.425C100.115 137.262 100.007 137.064 99.9525 136.848C99.8778 136.568 99.8377 136.28 99.8334 135.99C99.8334 135.884 99.8334 135.761 99.8334 135.629C99.8334 135.497 99.8334 135.356 99.8334 135.211C99.8334 135.066 99.8334 134.929 99.8334 134.793C99.8334 134.656 99.829 134.538 99.8334 134.419ZM102.424 132.971C102.447 132.671 102.352 132.374 102.159 132.143C102.064 132.076 101.95 132.042 101.834 132.046C101.717 132.05 101.605 132.092 101.515 132.165C101.233 132.336 101.008 132.588 100.871 132.887C100.699 133.24 100.609 133.626 100.606 134.018C100.606 134.247 100.606 134.494 100.606 134.766C100.606 135.039 100.606 135.286 100.606 135.501C100.592 135.649 100.608 135.799 100.654 135.94C100.699 136.081 100.773 136.212 100.871 136.325C101.034 136.461 101.246 136.452 101.515 136.298C101.795 136.128 102.019 135.88 102.159 135.585C102.326 135.231 102.416 134.845 102.424 134.454C102.424 134.229 102.424 133.979 102.424 133.706C102.424 133.433 102.429 133.195 102.424 132.975V132.971Z" fill="#E0E0E0"/>
<path d="M106.679 128.187C106.694 128.173 106.714 128.166 106.734 128.166C106.755 128.166 106.774 128.173 106.79 128.187C106.806 128.206 106.819 128.228 106.826 128.253C106.834 128.277 106.836 128.302 106.834 128.328V128.953C106.834 129.02 106.819 129.086 106.79 129.146C106.766 129.2 106.728 129.246 106.679 129.278L105.673 129.877V134.692C105.671 134.759 105.656 134.825 105.629 134.886C105.606 134.94 105.568 134.986 105.518 135.018L105.077 135.286C105.062 135.299 105.042 135.307 105.022 135.307C105.002 135.307 104.982 135.299 104.967 135.286C104.95 135.267 104.937 135.245 104.929 135.22C104.922 135.196 104.919 135.171 104.923 135.145V130.326L103.85 130.898C103.835 130.912 103.815 130.92 103.795 130.92C103.774 130.92 103.754 130.912 103.74 130.898C103.723 130.88 103.711 130.858 103.703 130.834C103.695 130.811 103.693 130.786 103.695 130.762V130.136C103.695 130.069 103.71 130.003 103.74 129.943C103.76 129.888 103.799 129.841 103.85 129.811L106.679 128.187Z" fill="#E0E0E0"/>
<path d="M111.455 125.44C111.47 125.427 111.488 125.42 111.508 125.42C111.527 125.42 111.546 125.427 111.561 125.44C111.579 125.459 111.592 125.481 111.6 125.505C111.609 125.53 111.612 125.555 111.609 125.581V126.202C111.608 126.269 111.592 126.335 111.561 126.395C111.54 126.449 111.503 126.495 111.455 126.527L109.645 127.588V129.291L111.358 128.31C111.372 128.297 111.391 128.29 111.411 128.29C111.43 128.29 111.449 128.297 111.464 128.31C111.481 128.329 111.494 128.351 111.502 128.375C111.51 128.4 111.514 128.425 111.512 128.451V129.076C111.511 129.143 111.495 129.209 111.464 129.269C111.443 129.323 111.406 129.369 111.358 129.401L109.645 130.392V132.403C109.646 132.47 109.63 132.536 109.601 132.597C109.58 132.652 109.542 132.699 109.491 132.729L109.027 132.997C109.012 133.011 108.993 133.018 108.972 133.018C108.952 133.018 108.932 133.011 108.917 132.997C108.9 132.978 108.888 132.956 108.88 132.932C108.873 132.907 108.87 132.882 108.873 132.857V127.174C108.873 127.107 108.888 127.041 108.917 126.981C108.938 126.925 108.977 126.879 109.027 126.849L111.455 125.44Z" fill="#E0E0E0"/>
<path d="M112.232 127.284C112.242 126.948 112.284 126.613 112.355 126.285C112.422 125.963 112.526 125.65 112.664 125.352C112.8 125.062 112.974 124.791 113.181 124.546C113.387 124.301 113.635 124.094 113.913 123.934C114.131 123.794 114.382 123.713 114.642 123.701C114.737 123.701 114.831 123.719 114.919 123.756C115.007 123.792 115.087 123.845 115.154 123.912C115.304 124.076 115.413 124.274 115.471 124.489C115.548 124.769 115.59 125.057 115.595 125.347C115.595 125.457 115.595 125.576 115.595 125.713C115.595 125.849 115.595 125.986 115.595 126.126C115.595 126.267 115.595 126.408 115.595 126.545C115.595 126.681 115.595 126.809 115.595 126.919C115.585 127.255 115.543 127.589 115.471 127.918C115.405 128.24 115.301 128.553 115.162 128.851C115.026 129.142 114.851 129.413 114.642 129.656C114.436 129.898 114.189 130.102 113.913 130.259C113.695 130.403 113.442 130.485 113.181 130.497C112.988 130.497 112.803 130.423 112.664 130.29C112.513 130.128 112.407 129.929 112.355 129.714C112.279 129.434 112.237 129.145 112.232 128.855C112.232 128.75 112.232 128.626 112.232 128.494C112.232 128.362 112.232 128.221 112.232 128.054C112.232 127.887 112.232 127.773 112.232 127.636C112.232 127.5 112.227 127.398 112.232 127.284ZM114.823 125.836C114.836 125.687 114.819 125.538 114.774 125.396C114.728 125.253 114.655 125.122 114.558 125.008C114.394 124.872 114.178 124.881 113.913 125.035C113.632 125.205 113.408 125.455 113.269 125.752C113.098 126.105 113.007 126.491 113.004 126.883C113.004 127.112 113.004 127.359 113.004 127.632C113.004 127.905 113.004 128.151 113.004 128.367C112.99 128.515 113.007 128.664 113.052 128.805C113.098 128.947 113.171 129.078 113.269 129.19C113.432 129.326 113.649 129.317 113.913 129.163C114.193 128.994 114.417 128.746 114.558 128.45C114.729 128.098 114.82 127.711 114.823 127.319C114.823 127.095 114.823 126.844 114.823 126.571C114.823 126.298 114.831 126.056 114.823 125.836V125.836Z" fill="#E0E0E0"/>
<path d="M119.589 120.775C119.605 120.761 119.624 120.754 119.645 120.754C119.665 120.754 119.685 120.761 119.7 120.775C119.733 120.814 119.748 120.864 119.744 120.915V124.52C119.744 124.87 119.71 125.22 119.642 125.563C119.583 125.884 119.486 126.197 119.356 126.496C119.222 126.781 119.048 127.045 118.839 127.28C118.634 127.511 118.393 127.707 118.124 127.861C117.909 128.002 117.661 128.085 117.405 128.103C117.311 128.107 117.217 128.093 117.129 128.06C117.041 128.027 116.961 127.978 116.893 127.914C116.739 127.752 116.634 127.551 116.588 127.333C116.516 127.03 116.482 126.719 116.487 126.408V122.804C116.489 122.736 116.505 122.67 116.535 122.61C116.557 122.557 116.594 122.511 116.641 122.478L117.082 122.209C117.098 122.196 117.117 122.189 117.138 122.189C117.158 122.189 117.177 122.196 117.193 122.209C117.226 122.249 117.241 122.299 117.237 122.35V125.907C117.231 126.102 117.254 126.298 117.303 126.488C117.328 126.609 117.39 126.719 117.48 126.805C117.518 126.835 117.561 126.858 117.608 126.872C117.655 126.885 117.705 126.889 117.753 126.884C117.877 126.863 117.995 126.82 118.102 126.756C118.374 126.598 118.594 126.364 118.733 126.083C118.814 125.916 118.873 125.74 118.91 125.559C118.956 125.345 118.978 125.126 118.976 124.907V121.347C118.977 121.279 118.994 121.213 119.025 121.153C119.047 121.099 119.083 121.052 119.13 121.017L119.589 120.775Z" fill="#E0E0E0"/>
<path d="M123.35 124.736C123.284 124.771 123.235 124.775 123.2 124.736C123.172 124.712 123.147 124.685 123.125 124.657L121.523 121.928V125.546C121.523 125.613 121.508 125.679 121.479 125.739C121.456 125.794 121.418 125.84 121.368 125.871L120.905 126.14C120.89 126.153 120.871 126.16 120.852 126.16C120.832 126.16 120.813 126.153 120.799 126.14C120.782 126.121 120.768 126.099 120.76 126.074C120.752 126.05 120.748 126.025 120.75 125.999V120.334C120.752 120.268 120.769 120.204 120.799 120.145C120.821 120.091 120.858 120.044 120.905 120.009L121.306 119.78C121.373 119.745 121.421 119.74 121.456 119.78L121.532 119.859L123.134 122.588V118.97C123.133 118.903 123.149 118.837 123.178 118.776C123.201 118.724 123.238 118.678 123.284 118.644L123.752 118.376C123.767 118.364 123.785 118.357 123.805 118.357C123.824 118.357 123.843 118.364 123.858 118.376C123.875 118.395 123.888 118.417 123.896 118.441C123.904 118.465 123.908 118.491 123.906 118.517V124.19C123.905 124.257 123.888 124.324 123.858 124.384C123.835 124.438 123.799 124.485 123.752 124.52L123.35 124.736Z" fill="#E0E0E0"/>
<path d="M126.506 116.773C126.728 116.632 126.981 116.544 127.243 116.518C127.338 116.513 127.433 116.527 127.523 116.56C127.612 116.592 127.694 116.642 127.764 116.707C127.92 116.869 128.03 117.07 128.082 117.288C128.165 117.59 128.211 117.9 128.219 118.213C128.219 118.653 128.219 119.071 128.219 119.511C128.206 119.874 128.16 120.235 128.082 120.589C128.016 120.916 127.911 121.234 127.768 121.536C127.634 121.819 127.462 122.083 127.256 122.319C127.05 122.552 126.807 122.749 126.537 122.905L125.094 123.736C125.079 123.749 125.06 123.757 125.041 123.757C125.021 123.757 125.002 123.749 124.988 123.736C124.97 123.718 124.957 123.695 124.949 123.671C124.941 123.647 124.937 123.621 124.939 123.596V117.913C124.94 117.846 124.957 117.78 124.988 117.72C125.007 117.665 125.044 117.618 125.094 117.588L126.506 116.773ZM127.446 118.657C127.441 118.494 127.417 118.331 127.376 118.173C127.344 118.054 127.284 117.945 127.199 117.856C127.16 117.818 127.114 117.789 127.063 117.77C127.012 117.751 126.958 117.743 126.903 117.746C126.746 117.751 126.593 117.8 126.462 117.887L125.694 118.327V122.288L126.488 121.848C126.643 121.763 126.781 121.65 126.894 121.514C127.011 121.381 127.107 121.233 127.181 121.074C127.26 120.906 127.319 120.731 127.358 120.55C127.397 120.363 127.421 120.173 127.429 119.982C127.459 119.516 127.459 119.08 127.446 118.657Z" fill="#E0E0E0"/>
<path d="M157.296 136.978C156.987 136.663 156.887 136.145 157.068 135.509C157.307 134.817 157.706 134.191 158.232 133.68C158.759 133.17 159.398 132.79 160.099 132.571C160.751 132.406 161.27 132.52 161.572 132.836L180.068 150.299C180.551 150.733 180.72 151.478 180.436 152.429C179.925 154.236 178.031 156.08 176.205 156.543C175.247 156.785 174.499 156.598 174.08 156.106L157.296 136.978Z" fill="#42E8E0"/>
<path opacity="0.15" d="M157.296 136.978C156.987 136.663 156.887 136.145 157.068 135.509C157.307 134.817 157.706 134.191 158.232 133.68C158.759 133.17 159.398 132.79 160.099 132.571C160.751 132.406 161.27 132.52 161.572 132.836L180.068 150.299C180.551 150.733 180.72 151.478 180.436 152.429C179.925 154.236 178.031 156.08 176.205 156.543C175.247 156.785 174.499 156.598 174.08 156.106L157.296 136.978Z" fill="#57DCD0"/>
<path d="M160.084 132.553C161.388 132.222 162.154 133.005 161.786 134.297C161.547 134.989 161.149 135.616 160.623 136.126C160.097 136.637 159.459 137.017 158.758 137.235C157.451 137.566 156.688 136.784 157.053 135.491C157.292 134.799 157.691 134.172 158.218 133.662C158.744 133.152 159.383 132.772 160.084 132.553Z" fill="#42E8E0"/>
<g opacity="0.25">
<path opacity="0.25" d="M160.084 132.553C161.388 132.222 162.154 133.005 161.786 134.297C161.547 134.989 161.149 135.616 160.623 136.126C160.097 136.637 159.459 137.017 158.758 137.235C157.451 137.566 156.688 136.784 157.053 135.491C157.292 134.799 157.691 134.172 158.218 133.662C158.744 133.152 159.383 132.772 160.084 132.553Z" fill="#5761D7"/>
</g>
<path d="M152.096 129.246C152.24 128.826 152.482 128.445 152.802 128.136C153.122 127.827 153.511 127.598 153.937 127.469C154.087 127.413 154.249 127.398 154.406 127.426C154.564 127.454 154.711 127.523 154.832 127.626L160.725 133.639C160.826 133.762 160.892 133.911 160.916 134.068C160.94 134.226 160.921 134.387 160.861 134.535C160.717 134.955 160.475 135.336 160.155 135.645C159.835 135.954 159.446 136.183 159.02 136.312C158.87 136.368 158.708 136.383 158.551 136.355C158.393 136.327 158.246 136.258 158.125 136.154L152.232 130.142C152.131 130.019 152.065 129.87 152.041 129.713C152.017 129.555 152.036 129.394 152.096 129.246V129.246Z" fill="#252532"/>
<path d="M153.926 127.47C153.82 127.497 153.717 127.533 153.617 127.576L153.569 127.602C153.481 127.643 153.395 127.688 153.311 127.738H153.293C152.73 128.081 152.307 128.61 152.096 129.233C152.036 129.38 152.017 129.542 152.041 129.699C152.065 129.857 152.131 130.005 152.232 130.129L153.643 131.568C154.152 131.236 154.627 130.853 155.06 130.426L160.268 135.498C160.536 135.222 160.735 134.888 160.85 134.521C160.91 134.373 160.929 134.212 160.905 134.055C160.881 133.897 160.815 133.749 160.714 133.625V133.625L154.821 127.613C154.698 127.512 154.55 127.445 154.393 127.42C154.236 127.395 154.075 127.412 153.926 127.47Z" fill="#444444"/>
<path d="M161.196 135.454L179.866 153.653C180.112 153.262 180.304 152.839 180.436 152.397C180.705 151.449 180.536 150.7 180.05 150.266L161.561 132.803C161.87 133.122 161.966 133.636 161.786 134.272C161.657 134.696 161.458 135.096 161.196 135.454V135.454Z" fill="#57DCD0"/>
<path d="M134.601 139.902C137.585 141.621 141.71 141.371 146.269 138.749C155.381 133.5 162.769 120.753 162.769 110.249C162.769 105.004 160.928 101.317 157.937 99.5978L154.585 97.6623C151.598 95.9398 147.474 96.1932 142.918 98.8118C133.806 104.06 126.418 116.808 126.418 127.312C126.418 132.56 128.259 136.248 131.25 137.963L134.601 139.898V139.902ZM160.511 110.249C160.511 114.935 158.902 120.293 155.981 125.34C153.061 130.386 149.193 134.455 145.142 136.799C141.459 138.918 138.122 139.329 135.732 137.952C133.342 136.575 132.027 133.486 132.027 129.247C132.027 124.561 133.636 119.203 136.557 114.156C139.478 109.11 143.33 105.041 147.4 102.698C151.083 100.578 154.42 100.171 156.81 101.544C159.2 102.918 160.511 106.01 160.511 110.249V110.249Z" fill="#57DCD0"/>
<path opacity="0.3" d="M146.269 100.748C137.154 105.996 129.769 118.744 129.769 129.248C129.769 139.752 137.154 143.994 146.269 138.749C155.385 133.504 162.769 120.753 162.769 110.249C162.769 99.7449 155.381 95.5029 146.269 100.748ZM156.806 101.544C159.197 102.922 160.511 106.011 160.511 110.249C160.511 114.935 158.902 120.294 155.981 125.34C153.061 130.386 149.193 134.456 145.142 136.799C141.459 138.918 138.122 139.326 135.732 137.952C133.342 136.578 132.027 133.486 132.027 129.248C132.027 124.561 133.636 119.203 136.557 114.157C139.478 109.11 143.33 105.041 147.4 102.698C151.076 100.564 154.42 100.171 156.806 101.544Z" fill="#57DCD0"/>
<path opacity="0.1" d="M129.769 129.247C129.769 122.357 132.951 114.498 137.714 108.423L137.673 108.471L134.333 106.539C129.589 112.603 126.418 120.444 126.418 127.312C126.418 132.56 128.259 136.248 131.25 137.963L134.598 139.898L134.778 139.997C131.688 138.326 129.769 134.595 129.769 129.247Z" fill="#5761D7"/>
<path d="M156.81 101.544C155.835 100.999 154.731 100.724 153.613 100.748C154.538 102.345 155.024 104.501 155.02 107.083C155.02 111.766 153.414 117.128 150.494 122.178C147.573 127.228 143.709 131.29 139.64 133.618C137.4 134.911 135.283 135.568 133.43 135.576C133.972 136.554 134.765 137.37 135.728 137.941C138.119 139.318 141.459 138.907 145.142 136.788C149.193 134.445 153.061 130.375 155.981 125.333C158.902 120.29 160.511 114.92 160.511 110.238C160.515 106.01 159.197 102.918 156.81 101.544Z" fill="#42E8E0"/>
<path opacity="0.1" d="M156.81 101.544C155.835 100.999 154.731 100.724 153.613 100.748C154.538 102.345 155.024 104.501 155.02 107.083C155.02 111.766 153.414 117.128 150.494 122.178C147.573 127.228 143.709 131.29 139.64 133.618C137.4 134.911 135.283 135.568 133.43 135.576C133.972 136.554 134.765 137.37 135.728 137.941C138.119 139.318 141.459 138.907 145.142 136.788C149.193 134.445 153.061 130.375 155.981 125.333C158.902 120.29 160.511 114.92 160.511 110.238C160.515 106.01 159.197 102.918 156.81 101.544Z" fill="#5761D7"/>
<path opacity="0.1" d="M158.033 108.813C158.033 113.499 156.423 118.861 153.503 123.907C150.582 128.954 146.73 133.023 142.66 135.366C139.625 137.114 136.819 137.695 134.59 137.07C132.933 135.458 132.034 132.744 132.034 129.247C132.034 124.561 133.644 119.203 136.564 114.156C139.485 109.11 143.337 105.041 147.407 102.697C150.446 100.949 153.248 100.369 155.48 100.99C157.123 102.606 158.033 105.316 158.033 108.813Z" fill="white"/>
<path opacity="0.1" d="M158.482 99.9395L158.677 100.083L158.36 99.8587L158.232 99.7705L158.394 99.877L158.482 99.9395Z" fill="#5761D7"/>
<path opacity="0.1" d="M158.74 100.127C158.789 100.161 158.836 100.199 158.88 100.24L158.685 100.09L158.74 100.127Z" fill="#5761D7"/>
<path opacity="0.1" d="M159.598 100.876L159.307 100.601C159.371 100.653 159.431 100.71 159.487 100.77L159.598 100.876Z" fill="#5761D7"/>
</svg>
