<svg width="135" height="137" viewBox="0 0 135 137" fill="none" xmlns="http://www.w3.org/2000/svg">
<rect x="1.23047" y="1.41528" width="24.0923" height="24.0923" rx="1" stroke="black" stroke-width="2"/>
<rect x="7.56909" y="7.90869" width="11.4154" height="11.4154" fill="black"/>
<rect x="1.23047" y="111.492" width="24.0923" height="24.0923" rx="1" stroke="black" stroke-width="2"/>
<rect x="7.56909" y="117.92" width="11.4154" height="11.4154" fill="black"/>
<rect x="109.677" y="1.41504" width="24.0923" height="24.0923" rx="1" stroke="black" stroke-width="2"/>
<rect x="116.015" y="7.9082" width="11.4154" height="11.4154" fill="black"/>
<ellipse cx="5.93814" cy="31.3998" rx="1.63077" ry="1.63077" fill="black"/>
<ellipse cx="2.67667" cy="38.7384" rx="1.63077" ry="1.63076" fill="black"/>
<ellipse cx="9.2001" cy="38.7384" rx="1.63077" ry="1.63076" fill="black"/>
<ellipse cx="13.2765" cy="38.7384" rx="1.63077" ry="1.63076" fill="black"/>
<ellipse cx="17.3537" cy="38.7384" rx="1.63077" ry="1.63076" fill="black"/>
<ellipse cx="20.6151" cy="35.4762" rx="1.63077" ry="1.63077" fill="black"/>
<ellipse cx="23.8769" cy="38.7384" rx="1.63077" ry="1.63076" fill="black"/>
<ellipse cx="27.9538" cy="42.8151" rx="1.63077" ry="1.63078" fill="black"/>
<ellipse cx="27.9538" cy="46.892" rx="1.63077" ry="1.63077" fill="black"/>
<ellipse cx="27.9538" cy="50.9691" rx="1.63077" ry="1.63076" fill="black"/>
<circle cx="55.5575" cy="47.4164" r="1.63078" fill="black"/>
<circle cx="12.4611" cy="58.307" r="1.63077" fill="black"/>
<ellipse cx="1.86124" cy="61.569" rx="1.63077" ry="1.63076" fill="black"/>
<ellipse cx="1.86124" cy="57.4921" rx="1.63077" ry="1.63076" fill="black"/>
<ellipse cx="5.93814" cy="46.892" rx="1.63077" ry="1.63077" fill="black"/>
<ellipse cx="20.6151" cy="62.3847" rx="1.63077" ry="1.63078" fill="black"/>
<ellipse cx="20.6151" cy="68.9071" rx="1.63077" ry="1.63078" fill="black"/>
<ellipse cx="10.015" cy="68.0917" rx="1.63077" ry="1.63077" fill="black"/>
<ellipse cx="10.015" cy="72.1691" rx="1.63077" ry="1.63078" fill="black"/>
<ellipse cx="28.769" cy="72.9843" rx="1.63077" ry="1.63076" fill="black"/>
<circle cx="19.8" cy="76.2458" r="1.63077" fill="black"/>
<ellipse cx="15.7223" cy="80.3227" rx="1.63077" ry="1.63078" fill="black"/>
<ellipse cx="13.2765" cy="76.2458" rx="1.63077" ry="1.63077" fill="black"/>
<ellipse cx="10.015" cy="83.5846" rx="1.63077" ry="1.63077" fill="black"/>
<ellipse cx="1.86124" cy="76.2458" rx="1.63077" ry="1.63077" fill="black"/>
<ellipse cx="1.86124" cy="90.1073" rx="1.63077" ry="1.63077" fill="black"/>
<ellipse cx="1.86124" cy="80.3227" rx="1.63077" ry="1.63078" fill="black"/>
<ellipse cx="1.86124" cy="94.1845" rx="1.63077" ry="1.63078" fill="black"/>
<circle cx="42.6305" cy="62.3844" r="1.63077" transform="rotate(-90 42.6305 62.3844)" fill="black"/>
<ellipse cx="5.93814" cy="73.7996" rx="1.63078" ry="1.63077" transform="rotate(-90 5.93814 73.7996)" fill="black"/>
<ellipse cx="5.93814" cy="94.1842" rx="1.63078" ry="1.63077" transform="rotate(-90 5.93814 94.1842)" fill="black"/>
<ellipse cx="10.015" cy="99.0768" rx="1.63077" ry="1.63077" transform="rotate(-90 10.015 99.0768)" fill="black"/>
<ellipse cx="1.86124" cy="105.6" rx="1.63077" ry="1.63077" transform="rotate(-90 1.86124 105.6)" fill="black"/>
<ellipse cx="64.6457" cy="123.538" rx="1.63078" ry="1.63077" transform="rotate(-90 64.6457 123.538)" fill="black"/>
<ellipse cx="60.569" cy="130.877" rx="1.63077" ry="1.63078" transform="rotate(-90 60.569 130.877)" fill="black"/>
<ellipse cx="60.569" cy="134.954" rx="1.63076" ry="1.63078" transform="rotate(-90 60.569 134.954)" fill="black"/>
<ellipse cx="38.5539" cy="134.954" rx="1.63076" ry="1.63077" transform="rotate(-90 38.5539 134.954)" fill="black"/>
<ellipse cx="34.4765" cy="134.954" rx="1.63076" ry="1.63077" transform="rotate(-90 34.4765 134.954)" fill="black"/>
<ellipse cx="31.2152" cy="130.877" rx="1.63077" ry="1.63077" transform="rotate(-90 31.2152 130.877)" fill="black"/>
<ellipse cx="57.3075" cy="114.569" rx="1.63077" ry="1.63078" transform="rotate(-90 57.3075 114.569)" fill="black"/>
<ellipse cx="65.4613" cy="110.492" rx="1.63075" ry="1.63077" transform="rotate(-90 65.4613 110.492)" fill="black"/>
<ellipse cx="53.2304" cy="130.061" rx="1.63076" ry="1.63078" transform="rotate(-90 53.2304 130.061)" fill="black"/>
<ellipse cx="53.2304" cy="134.954" rx="1.63076" ry="1.63078" transform="rotate(-90 53.2304 134.954)" fill="black"/>
<ellipse cx="69.5382" cy="94.1844" rx="1.63077" ry="1.63076" transform="rotate(-90 69.5382 94.1844)" fill="black"/>
<ellipse cx="69.4079" cy="86.1971" rx="1.63078" ry="1.63076" transform="rotate(-90 69.4079 86.1971)" fill="black"/>
<ellipse cx="68.8539" cy="80.6571" rx="1.63076" ry="1.63077" transform="rotate(-90 68.8539 80.6571)" fill="black"/>
<circle cx="68.8539" cy="76.7789" r="1.63077" transform="rotate(-90 68.8539 76.7789)" fill="black"/>
<circle cx="68.8539" cy="71.7931" r="1.63077" transform="rotate(-90 68.8539 71.7931)" fill="black"/>
<ellipse cx="72.7318" cy="76.7789" rx="1.63077" ry="1.63078" transform="rotate(-90 72.7318 76.7789)" fill="black"/>
<ellipse cx="76.6098" cy="76.7789" rx="1.63077" ry="1.63078" transform="rotate(-90 76.6098 76.7789)" fill="black"/>
<ellipse cx="82.704" cy="76.7789" rx="1.63077" ry="1.63078" transform="rotate(-90 82.704 76.7789)" fill="black"/>
<ellipse cx="82.1498" cy="67.9149" rx="1.63078" ry="1.63078" transform="rotate(-90 82.1498 67.9149)" fill="black"/>
<ellipse cx="82.1498" cy="61.8209" rx="1.63077" ry="1.63078" transform="rotate(-90 82.1498 61.8209)" fill="black"/>
<ellipse cx="67.7458" cy="60.7127" rx="1.63076" ry="1.63077" transform="rotate(-90 67.7458 60.7127)" fill="black"/>
<ellipse cx="81.5959" cy="57.3888" rx="1.63077" ry="1.63077" transform="rotate(-90 81.5959 57.3888)" fill="black"/>
<ellipse cx="62.7597" cy="60.7127" rx="1.63076" ry="1.63078" transform="rotate(-90 62.7597 60.7127)" fill="black"/>
<ellipse cx="69.5382" cy="98.2611" rx="1.63076" ry="1.63076" transform="rotate(-90 69.5382 98.2611)" fill="black"/>
<circle cx="69.5382" cy="102.338" r="1.63076" transform="rotate(-90 69.5382 102.338)" fill="black"/>
<ellipse cx="104.6" cy="94.1842" rx="1.63078" ry="1.63078" transform="rotate(-90 104.6 94.1842)" fill="black"/>
<circle cx="104.6" cy="104.785" r="1.63078" transform="rotate(-90 104.6 104.785)" fill="black"/>
<ellipse cx="89.9228" cy="108.861" rx="1.63077" ry="1.63076" transform="rotate(-90 89.9228 108.861)" fill="black"/>
<ellipse cx="89.9228" cy="102.338" rx="1.63076" ry="1.63076" transform="rotate(-90 89.9228 102.338)" fill="black"/>
<circle cx="98.0768" cy="121.092" r="1.63078" transform="rotate(-90 98.0768 121.092)" fill="black"/>
<ellipse cx="120.907" cy="125.169" rx="1.63078" ry="1.63076" transform="rotate(180 120.907 125.169)" fill="black"/>
<ellipse cx="104.6" cy="129.246" rx="1.63078" ry="1.63076" transform="rotate(180 104.6 129.246)" fill="black"/>
<ellipse cx="104.6" cy="134.954" rx="1.63078" ry="1.63076" transform="rotate(180 104.6 134.954)" fill="black"/>
<ellipse cx="100.523" cy="134.954" rx="1.63076" ry="1.63076" transform="rotate(180 100.523 134.954)" fill="black"/>
<ellipse cx="100.523" cy="124.354" rx="1.63076" ry="1.63075" transform="rotate(180 100.523 124.354)" fill="black"/>
<circle cx="100.523" cy="117.015" r="1.63076" transform="rotate(180 100.523 117.015)" fill="black"/>
<ellipse cx="94.8153" cy="134.954" rx="1.63076" ry="1.63076" transform="rotate(180 94.8153 134.954)" fill="black"/>
<circle cx="126.615" cy="134.953" r="1.63077" transform="rotate(90 126.615 134.953)" fill="black"/>
<ellipse cx="133.138" cy="134.953" rx="1.63077" ry="1.63078" transform="rotate(90 133.138 134.953)" fill="black"/>
<ellipse cx="133.138" cy="130.877" rx="1.63077" ry="1.63078" transform="rotate(90 133.138 130.877)" fill="black"/>
<ellipse cx="100.522" cy="104.785" rx="1.63078" ry="1.63077" transform="rotate(-90 100.522 104.785)" fill="black"/>
<ellipse cx="85.8458" cy="108.861" rx="1.63077" ry="1.63076" transform="rotate(-90 85.8458 108.861)" fill="black"/>
<ellipse cx="82.5844" cy="101.523" rx="1.63076" ry="1.63078" transform="rotate(-90 82.5844 101.523)" fill="black"/>
<ellipse cx="82.5844" cy="116.2" rx="1.63076" ry="1.63078" transform="rotate(-90 82.5844 116.2)" fill="black"/>
<ellipse cx="82.5844" cy="105.6" rx="1.63077" ry="1.63078" transform="rotate(-90 82.5844 105.6)" fill="black"/>
<ellipse cx="75.2458" cy="105.6" rx="1.63077" ry="1.63076" transform="rotate(-90 75.2458 105.6)" fill="black"/>
<ellipse cx="78.5072" cy="108.861" rx="1.63077" ry="1.63075" transform="rotate(-90 78.5072 108.861)" fill="black"/>
<ellipse cx="82.5844" cy="120.277" rx="1.63078" ry="1.63078" transform="rotate(-90 82.5844 120.277)" fill="black"/>
<ellipse cx="89.9228" cy="121.092" rx="1.63078" ry="1.63076" transform="rotate(-90 89.9228 121.092)" fill="black"/>
<circle cx="89.9228" cy="117.015" r="1.63076" transform="rotate(-90 89.9228 117.015)" fill="black"/>
<ellipse cx="98.0768" cy="112.938" rx="1.63076" ry="1.63078" transform="rotate(-90 98.0768 112.938)" fill="black"/>
<ellipse cx="120.907" cy="94.1842" rx="1.63078" ry="1.63077" transform="rotate(-90 120.907 94.1842)" fill="black"/>
<circle cx="129.061" cy="72.169" r="1.63076" transform="rotate(-90 129.061 72.169)" fill="black"/>
<ellipse cx="129.061" cy="59.1231" rx="1.63077" ry="1.63076" transform="rotate(-90 129.061 59.1231)" fill="black"/>
<ellipse cx="129.061" cy="63.1998" rx="1.63077" ry="1.63076" transform="rotate(-90 129.061 63.1998)" fill="black"/>
<ellipse cx="129.061" cy="42.815" rx="1.63076" ry="1.63076" transform="rotate(-90 129.061 42.815)" fill="black"/>
<ellipse cx="93.1845" cy="50.1534" rx="1.63077" ry="1.63078" transform="rotate(-90 93.1845 50.1534)" fill="black"/>
<ellipse cx="116.83" cy="42.815" rx="1.63076" ry="1.63076" transform="rotate(-90 116.83 42.815)" fill="black"/>
<ellipse cx="108.677" cy="46.8914" rx="1.63077" ry="1.63077" transform="rotate(-90 108.677 46.8914)" fill="black"/>
<ellipse cx="109.492" cy="58.3075" rx="1.63078" ry="1.63077" transform="rotate(-90 109.492 58.3075)" fill="black"/>
<ellipse cx="118.461" cy="54.2306" rx="1.63078" ry="1.63077" transform="rotate(-90 118.461 54.2306)" fill="black"/>
<circle cx="109.492" cy="62.3844" r="1.63077" transform="rotate(-90 109.492 62.3844)" fill="black"/>
<ellipse cx="101.338" cy="66.461" rx="1.63077" ry="1.63078" transform="rotate(-90 101.338 66.461)" fill="black"/>
<ellipse cx="129.061" cy="46.8914" rx="1.63077" ry="1.63076" transform="rotate(-90 129.061 46.8914)" fill="black"/>
<ellipse cx="93.1845" cy="54.2306" rx="1.63078" ry="1.63078" transform="rotate(-90 93.1845 54.2306)" fill="black"/>
<ellipse cx="129.061" cy="50.9688" rx="1.63077" ry="1.63076" transform="rotate(-90 129.061 50.9688)" fill="black"/>
<ellipse cx="129.061" cy="55.0455" rx="1.63077" ry="1.63076" transform="rotate(-90 129.061 55.0455)" fill="black"/>
<ellipse cx="14.0917" cy="99.0768" rx="1.63077" ry="1.63077" transform="rotate(-90 14.0917 99.0768)" fill="black"/>
<ellipse cx="5.93814" cy="105.6" rx="1.63077" ry="1.63077" transform="rotate(-90 5.93814 105.6)" fill="black"/>
<ellipse cx="68.7226" cy="123.538" rx="1.63078" ry="1.63077" transform="rotate(-90 68.7226 123.538)" fill="black"/>
<ellipse cx="74.4306" cy="127.615" rx="1.63076" ry="1.63078" transform="rotate(-90 74.4306 127.615)" fill="black"/>
<ellipse cx="68.7226" cy="127.615" rx="1.63076" ry="1.63077" transform="rotate(-90 68.7226 127.615)" fill="black"/>
<ellipse cx="68.7226" cy="131.692" rx="1.63078" ry="1.63077" transform="rotate(-90 68.7226 131.692)" fill="black"/>
<ellipse cx="71.9845" cy="134.954" rx="1.63076" ry="1.63077" transform="rotate(-90 71.9845 134.954)" fill="black"/>
<ellipse cx="64.6457" cy="134.954" rx="1.63076" ry="1.63077" transform="rotate(-90 64.6457 134.954)" fill="black"/>
<ellipse cx="42.6305" cy="134.954" rx="1.63076" ry="1.63077" transform="rotate(-90 42.6305 134.954)" fill="black"/>
<circle cx="61.3844" cy="114.569" r="1.63077" transform="rotate(-90 61.3844 114.569)" fill="black"/>
<ellipse cx="61.3844" cy="119.461" rx="1.63078" ry="1.63077" transform="rotate(-90 61.3844 119.461)" fill="black"/>
<ellipse cx="73.6149" cy="94.1844" rx="1.63077" ry="1.63077" transform="rotate(-90 73.6149 94.1844)" fill="black"/>
<ellipse cx="73.6149" cy="86.1971" rx="1.63078" ry="1.63077" transform="rotate(-90 73.6149 86.1971)" fill="black"/>
<ellipse cx="108.677" cy="94.1842" rx="1.63078" ry="1.63077" transform="rotate(-90 108.677 94.1842)" fill="black"/>
<ellipse cx="108.677" cy="104.785" rx="1.63078" ry="1.63077" transform="rotate(-90 108.677 104.785)" fill="black"/>
<ellipse cx="93.9999" cy="108.861" rx="1.63077" ry="1.63078" transform="rotate(-90 93.9999 108.861)" fill="black"/>
<ellipse cx="93.9999" cy="90.1075" rx="1.63077" ry="1.63078" transform="rotate(-90 93.9999 90.1075)" fill="black"/>
<ellipse cx="97.2611" cy="86.8458" rx="1.63078" ry="1.63078" transform="rotate(-90 97.2611 86.8458)" fill="black"/>
<ellipse cx="97.2611" cy="76.2457" rx="1.63078" ry="1.63078" transform="rotate(-90 97.2611 76.2457)" fill="black"/>
<ellipse cx="101.338" cy="80.3231" rx="1.63076" ry="1.63078" transform="rotate(-90 101.338 80.3231)" fill="black"/>
<ellipse cx="107.861" cy="80.3231" rx="1.63076" ry="1.63077" transform="rotate(-90 107.861 80.3231)" fill="black"/>
<ellipse cx="119.277" cy="80.3231" rx="1.63076" ry="1.63077" transform="rotate(-90 119.277 80.3231)" fill="black"/>
<ellipse cx="123.354" cy="80.3231" rx="1.63076" ry="1.63076" transform="rotate(-90 123.354 80.3231)" fill="black"/>
<ellipse cx="133.138" cy="77.0611" rx="1.63077" ry="1.63078" transform="rotate(-90 133.138 77.0611)" fill="black"/>
<ellipse cx="111.938" cy="76.2457" rx="1.63078" ry="1.63076" transform="rotate(-90 111.938 76.2457)" fill="black"/>
<circle cx="111.938" cy="72.169" r="1.63076" transform="rotate(-90 111.938 72.169)" fill="black"/>
<ellipse cx="104.6" cy="76.2457" rx="1.63078" ry="1.63078" transform="rotate(-90 104.6 76.2457)" fill="black"/>
<ellipse cx="104.6" cy="98.2611" rx="1.63076" ry="1.63078" transform="rotate(-90 104.6 98.2611)" fill="black"/>
<ellipse cx="116.83" cy="98.2611" rx="1.63076" ry="1.63076" transform="rotate(-90 116.83 98.2611)" fill="black"/>
<ellipse cx="122.538" cy="98.2611" rx="1.63076" ry="1.63078" transform="rotate(-90 122.538 98.2611)" fill="black"/>
<circle cx="93.1845" cy="76.2457" r="1.63078" transform="rotate(-90 93.1845 76.2457)" fill="black"/>
<ellipse cx="93.9999" cy="102.338" rx="1.63076" ry="1.63078" transform="rotate(-90 93.9999 102.338)" fill="black"/>
<ellipse cx="93.9999" cy="121.092" rx="1.63078" ry="1.63078" transform="rotate(-90 93.9999 121.092)" fill="black"/>
<ellipse cx="93.9999" cy="117.015" rx="1.63076" ry="1.63078" transform="rotate(-90 93.9999 117.015)" fill="black"/>
<ellipse cx="93.9999" cy="98.2611" rx="1.63076" ry="1.63078" transform="rotate(-90 93.9999 98.2611)" fill="black"/>
<ellipse cx="93.9999" cy="112.938" rx="1.63076" ry="1.63078" transform="rotate(-90 93.9999 112.938)" fill="black"/>
<ellipse cx="93.9999" cy="94.1842" rx="1.63078" ry="1.63078" transform="rotate(-90 93.9999 94.1842)" fill="black"/>
<ellipse cx="97.2611" cy="90.923" rx="1.63076" ry="1.63078" transform="rotate(-90 97.2611 90.923)" fill="black"/>
<ellipse cx="97.2611" cy="80.3231" rx="1.63076" ry="1.63078" transform="rotate(-90 97.2611 80.3231)" fill="black"/>
<ellipse cx="101.338" cy="84.3995" rx="1.63077" ry="1.63078" transform="rotate(-90 101.338 84.3995)" fill="black"/>
<ellipse cx="107.861" cy="84.3995" rx="1.63077" ry="1.63077" transform="rotate(-90 107.861 84.3995)" fill="black"/>
<circle cx="119.277" cy="84.3995" r="1.63077" transform="rotate(-90 119.277 84.3995)" fill="black"/>
<ellipse cx="123.354" cy="84.3995" rx="1.63077" ry="1.63076" transform="rotate(-90 123.354 84.3995)" fill="black"/>
<ellipse cx="133.138" cy="81.1383" rx="1.63076" ry="1.63078" transform="rotate(-90 133.138 81.1383)" fill="black"/>
<ellipse cx="111.938" cy="80.3231" rx="1.63076" ry="1.63076" transform="rotate(-90 111.938 80.3231)" fill="black"/>
<ellipse cx="93.1845" cy="80.3231" rx="1.63076" ry="1.63078" transform="rotate(-90 93.1845 80.3231)" fill="black"/>
<circle cx="120.907" cy="121.092" r="1.63078" transform="rotate(180 120.907 121.092)" fill="black"/>
<ellipse cx="104.6" cy="125.169" rx="1.63078" ry="1.63076" transform="rotate(180 104.6 125.169)" fill="black"/>
<ellipse cx="122.538" cy="134.953" rx="1.63077" ry="1.63076" transform="rotate(90 122.538 134.953)" fill="black"/>
<ellipse cx="122.538" cy="130.877" rx="1.63077" ry="1.63076" transform="rotate(90 122.538 130.877)" fill="black"/>
<ellipse cx="124.984" cy="94.1842" rx="1.63078" ry="1.63078" transform="rotate(-90 124.984 94.1842)" fill="black"/>
<ellipse cx="133.138" cy="72.169" rx="1.63076" ry="1.63078" transform="rotate(-90 133.138 72.169)" fill="black"/>
<ellipse cx="133.138" cy="59.1231" rx="1.63077" ry="1.63078" transform="rotate(-90 133.138 59.1231)" fill="black"/>
<ellipse cx="133.138" cy="63.1998" rx="1.63077" ry="1.63078" transform="rotate(-90 133.138 63.1998)" fill="black"/>
<ellipse cx="133.138" cy="67.2769" rx="1.63077" ry="1.63078" transform="rotate(-90 133.138 67.2769)" fill="black"/>
<ellipse cx="133.138" cy="42.815" rx="1.63076" ry="1.63078" transform="rotate(-90 133.138 42.815)" fill="black"/>
<ellipse cx="120.907" cy="42.815" rx="1.63076" ry="1.63077" transform="rotate(-90 120.907 42.815)" fill="black"/>
<ellipse cx="112.754" cy="46.8917" rx="1.63077" ry="1.63076" transform="rotate(-90 112.754 46.8917)" fill="black"/>
<ellipse cx="112.754" cy="50.9688" rx="1.63077" ry="1.63076" transform="rotate(-90 112.754 50.9688)" fill="black"/>
<ellipse cx="113.569" cy="58.3075" rx="1.63078" ry="1.63077" transform="rotate(-90 113.569 58.3075)" fill="black"/>
<ellipse cx="122.538" cy="54.2306" rx="1.63078" ry="1.63078" transform="rotate(-90 122.538 54.2306)" fill="black"/>
<ellipse cx="113.569" cy="62.3844" rx="1.63077" ry="1.63077" transform="rotate(-90 113.569 62.3844)" fill="black"/>
<ellipse cx="105.415" cy="66.461" rx="1.63077" ry="1.63076" transform="rotate(-90 105.415 66.461)" fill="black"/>
<ellipse cx="120.907" cy="46.8914" rx="1.63077" ry="1.63077" transform="rotate(-90 120.907 46.8914)" fill="black"/>
<ellipse cx="133.138" cy="46.8914" rx="1.63077" ry="1.63078" transform="rotate(-90 133.138 46.8914)" fill="black"/>
<ellipse cx="97.2614" cy="54.2305" rx="1.63078" ry="1.63078" transform="rotate(-90 97.2614 54.2305)" fill="black"/>
<ellipse cx="86.5819" cy="59.0509" rx="1.63076" ry="1.63076" transform="rotate(-90 86.5819 59.0509)" fill="black"/>
<ellipse cx="133.138" cy="50.9688" rx="1.63077" ry="1.63078" transform="rotate(-90 133.138 50.9688)" fill="black"/>
<ellipse cx="18.1691" cy="103.154" rx="1.63078" ry="1.63077" transform="rotate(-90 18.1691 103.154)" fill="black"/>
<ellipse cx="22.2455" cy="99.0768" rx="1.63077" ry="1.63077" transform="rotate(-90 22.2455 99.0768)" fill="black"/>
<ellipse cx="14.0917" cy="105.6" rx="1.63077" ry="1.63077" transform="rotate(-90 14.0917 105.6)" fill="black"/>
<ellipse cx="76.8766" cy="123.538" rx="1.63078" ry="1.63077" transform="rotate(-90 76.8766 123.538)" fill="black"/>
<ellipse cx="82.5844" cy="127.615" rx="1.63076" ry="1.63078" transform="rotate(-90 82.5844 127.615)" fill="black"/>
<ellipse cx="97.2611" cy="126.8" rx="1.63077" ry="1.63078" transform="rotate(-90 97.2611 126.8)" fill="black"/>
<ellipse cx="93.9999" cy="130.877" rx="1.63077" ry="1.63078" transform="rotate(-90 93.9999 130.877)" fill="black"/>
<ellipse cx="90.7382" cy="134.954" rx="1.63076" ry="1.63078" transform="rotate(-90 90.7382 134.954)" fill="black"/>
<ellipse cx="69.5382" cy="114.569" rx="1.63077" ry="1.63076" transform="rotate(-90 69.5382 114.569)" fill="black"/>
<ellipse cx="81.7692" cy="94.1844" rx="1.63077" ry="1.63076" transform="rotate(-90 81.7692 94.1844)" fill="black"/>
<ellipse cx="81.7692" cy="86.1971" rx="1.63078" ry="1.63076" transform="rotate(-90 81.7692 86.1971)" fill="black"/>
<ellipse cx="116.83" cy="94.1842" rx="1.63078" ry="1.63076" transform="rotate(-90 116.83 94.1842)" fill="black"/>
<ellipse cx="124.984" cy="72.169" rx="1.63076" ry="1.63078" transform="rotate(-90 124.984 72.169)" fill="black"/>
<ellipse cx="124.984" cy="59.1231" rx="1.63077" ry="1.63078" transform="rotate(-90 124.984 59.1231)" fill="black"/>
<ellipse cx="124.984" cy="42.815" rx="1.63076" ry="1.63078" transform="rotate(-90 124.984 42.815)" fill="black"/>
<ellipse cx="112.754" cy="42.815" rx="1.63076" ry="1.63076" transform="rotate(-90 112.754 42.815)" fill="black"/>
<ellipse cx="104.6" cy="46.8914" rx="1.63077" ry="1.63078" transform="rotate(-90 104.6 46.8914)" fill="black"/>
<ellipse cx="104.6" cy="50.9688" rx="1.63077" ry="1.63078" transform="rotate(-90 104.6 50.9688)" fill="black"/>
<ellipse cx="105.415" cy="58.3075" rx="1.63078" ry="1.63076" transform="rotate(-90 105.415 58.3075)" fill="black"/>
<ellipse cx="114.384" cy="54.2306" rx="1.63078" ry="1.63078" transform="rotate(-90 114.384 54.2306)" fill="black"/>
<ellipse cx="105.415" cy="62.3844" rx="1.63077" ry="1.63076" transform="rotate(-90 105.415 62.3844)" fill="black"/>
<ellipse cx="97.2611" cy="66.461" rx="1.63077" ry="1.63078" transform="rotate(-90 97.2611 66.461)" fill="black"/>
<ellipse cx="93.1845" cy="66.4608" rx="1.63078" ry="1.63078" transform="rotate(-90 93.1845 66.4608)" fill="black"/>
<ellipse cx="67.1918" cy="66.2528" rx="1.63077" ry="1.63077" transform="rotate(-90 67.1918 66.2528)" fill="black"/>
<ellipse cx="77.7177" cy="67.9149" rx="1.63078" ry="1.63077" transform="rotate(-90 77.7177 67.9149)" fill="black"/>
<circle cx="77.7177" cy="61.8209" r="1.63077" transform="rotate(-90 77.7177 61.8209)" fill="black"/>
<circle cx="72.7318" cy="67.9149" r="1.63078" transform="rotate(-90 72.7318 67.9149)" fill="black"/>
<ellipse cx="72.7318" cy="61.8209" rx="1.63077" ry="1.63078" transform="rotate(-90 72.7318 61.8209)" fill="black"/>
<ellipse cx="116.83" cy="104.785" rx="1.63078" ry="1.63076" transform="rotate(-90 116.83 104.785)" fill="black"/>
<ellipse cx="120.907" cy="112.938" rx="1.63078" ry="1.63076" transform="rotate(180 120.907 112.938)" fill="black"/>
<ellipse cx="104.6" cy="117.015" rx="1.63078" ry="1.63076" transform="rotate(180 104.6 117.015)" fill="black"/>
<circle cx="114.384" cy="134.953" r="1.63077" transform="rotate(90 114.384 134.953)" fill="black"/>
<circle cx="114.384" cy="130.877" r="1.63077" transform="rotate(90 114.384 130.877)" fill="black"/>
<ellipse cx="124.984" cy="112.938" rx="1.63077" ry="1.63076" transform="rotate(180 124.984 112.938)" fill="black"/>
<ellipse cx="120.907" cy="104.785" rx="1.63078" ry="1.63077" transform="rotate(-90 120.907 104.785)" fill="black"/>
<ellipse cx="104.6" cy="108.861" rx="1.63077" ry="1.63078" transform="rotate(-90 104.6 108.861)" fill="black"/>
<circle cx="111.938" cy="112.938" r="1.63076" transform="rotate(-90 111.938 112.938)" fill="black"/>
<ellipse cx="112.754" cy="125.984" rx="1.63075" ry="1.63076" transform="rotate(-90 112.754 125.984)" fill="black"/>
<ellipse cx="120.907" cy="108.861" rx="1.63078" ry="1.63077" transform="rotate(180 120.907 108.861)" fill="black"/>
<ellipse cx="104.6" cy="112.938" rx="1.63078" ry="1.63076" transform="rotate(180 104.6 112.938)" fill="black"/>
<circle cx="124.984" cy="108.861" r="1.63077" transform="rotate(180 124.984 108.861)" fill="black"/>
<ellipse cx="133.138" cy="94.1842" rx="1.63078" ry="1.63078" transform="rotate(-90 133.138 94.1842)" fill="black"/>
<ellipse cx="133.138" cy="112.938" rx="1.63076" ry="1.63078" transform="rotate(-90 133.138 112.938)" fill="black"/>
<circle cx="133.138" cy="86.0304" r="1.63078" transform="rotate(-90 133.138 86.0304)" fill="black"/>
<ellipse cx="133.138" cy="98.2611" rx="1.63076" ry="1.63078" transform="rotate(-90 133.138 98.2611)" fill="black"/>
<ellipse cx="133.138" cy="117.015" rx="1.63076" ry="1.63078" transform="rotate(-90 133.138 117.015)" fill="black"/>
<ellipse cx="133.138" cy="102.338" rx="1.63076" ry="1.63078" transform="rotate(-90 133.138 102.338)" fill="black"/>
<circle cx="133.138" cy="121.092" r="1.63078" transform="rotate(-90 133.138 121.092)" fill="black"/>
<ellipse cx="133.138" cy="106.415" rx="1.63077" ry="1.63078" transform="rotate(-90 133.138 106.415)" fill="black"/>
<ellipse cx="133.138" cy="125.169" rx="1.63076" ry="1.63078" transform="rotate(-90 133.138 125.169)" fill="black"/>
<circle cx="129.061" cy="125.169" r="1.63076" transform="rotate(-90 129.061 125.169)" fill="black"/>
<ellipse cx="129.061" cy="129.246" rx="1.63077" ry="1.63076" transform="rotate(-90 129.061 129.246)" fill="black"/>
<ellipse cx="87.4765" cy="94.1842" rx="1.63078" ry="1.63077" transform="rotate(-90 87.4765 94.1842)" fill="black"/>
<ellipse cx="49.9689" cy="109.677" rx="1.63075" ry="1.63077" transform="rotate(-90 49.9689 109.677)" fill="black"/>
<ellipse cx="57.3075" cy="110.492" rx="1.63075" ry="1.63078" transform="rotate(-90 57.3075 110.492)" fill="black"/>
<ellipse cx="65.4613" cy="106.415" rx="1.63077" ry="1.63077" transform="rotate(-90 65.4613 106.415)" fill="black"/>
<ellipse cx="53.2304" cy="125.984" rx="1.63075" ry="1.63078" transform="rotate(-90 53.2304 125.984)" fill="black"/>
<ellipse cx="57.3075" cy="125.984" rx="1.63075" ry="1.63078" transform="rotate(-90 57.3075 125.984)" fill="black"/>
<ellipse cx="38.5539" cy="127.615" rx="1.63076" ry="1.63077" transform="rotate(-90 38.5539 127.615)" fill="black"/>
<ellipse cx="32.0304" cy="46.892" rx="1.63077" ry="1.63077" fill="black"/>
<ellipse cx="32.0307" cy="50.9691" rx="1.63077" ry="1.63076" fill="black"/>
<ellipse cx="59.6342" cy="47.4164" rx="1.63076" ry="1.63078" fill="black"/>
<ellipse cx="16.5385" cy="58.307" rx="1.63077" ry="1.63077" fill="black"/>
<ellipse cx="5.93814" cy="61.569" rx="1.63077" ry="1.63076" fill="black"/>
<ellipse cx="24.6918" cy="62.3847" rx="1.63077" ry="1.63078" fill="black"/>
<ellipse cx="24.6918" cy="68.9071" rx="1.63077" ry="1.63078" fill="black"/>
<ellipse cx="14.0917" cy="68.0917" rx="1.63077" ry="1.63077" fill="black"/>
<ellipse cx="14.0917" cy="72.1691" rx="1.63077" ry="1.63078" fill="black"/>
<ellipse cx="18.1691" cy="72.1691" rx="1.63077" ry="1.63078" fill="black"/>
<ellipse cx="32.8459" cy="72.9843" rx="1.63077" ry="1.63076" fill="black"/>
<ellipse cx="23.8769" cy="76.2458" rx="1.63077" ry="1.63077" fill="black"/>
<ellipse cx="19.8" cy="80.3227" rx="1.63077" ry="1.63078" fill="black"/>
<ellipse cx="38.5539" cy="68.9074" rx="1.63077" ry="1.63078" fill="black"/>
<ellipse cx="47.8017" cy="68.9074" rx="1.63077" ry="1.63078" fill="black"/>
<ellipse cx="47.8017" cy="72.9008" rx="1.63077" ry="1.63077" fill="black"/>
<ellipse cx="34.4765" cy="64.8302" rx="1.63077" ry="1.63077" fill="black"/>
<ellipse cx="42.6305" cy="58.3075" rx="1.63078" ry="1.63077" transform="rotate(-90 42.6305 58.3075)" fill="black"/>
<ellipse cx="53.3415" cy="58.4969" rx="1.63077" ry="1.63077" transform="rotate(-90 53.3415 58.4969)" fill="black"/>
<ellipse cx="5.93814" cy="69.7227" rx="1.63079" ry="1.63077" transform="rotate(-90 5.93814 69.7227)" fill="black"/>
<ellipse cx="5.93814" cy="90.1075" rx="1.63077" ry="1.63077" transform="rotate(-90 5.93814 90.1075)" fill="black"/>
<ellipse cx="10.015" cy="94.9998" rx="1.63077" ry="1.63077" transform="rotate(-90 10.015 94.9998)" fill="black"/>
<ellipse cx="14.0917" cy="94.9998" rx="1.63077" ry="1.63077" transform="rotate(-90 14.0917 94.9998)" fill="black"/>
<ellipse cx="18.1691" cy="99.0768" rx="1.63077" ry="1.63077" transform="rotate(-90 18.1691 99.0768)" fill="black"/>
<ellipse cx="10.015" cy="105.6" rx="1.63077" ry="1.63077" transform="rotate(-90 10.015 105.6)" fill="black"/>
<circle cx="72.7997" cy="123.538" r="1.63078" transform="rotate(-90 72.7997 123.538)" fill="black"/>
<ellipse cx="78.5072" cy="127.615" rx="1.63076" ry="1.63075" transform="rotate(-90 78.5072 127.615)" fill="black"/>
<ellipse cx="93.1845" cy="126.8" rx="1.63077" ry="1.63078" transform="rotate(-90 93.1845 126.8)" fill="black"/>
<ellipse cx="89.9228" cy="130.877" rx="1.63077" ry="1.63076" transform="rotate(-90 89.9228 130.877)" fill="black"/>
<ellipse cx="86.6613" cy="134.954" rx="1.63076" ry="1.63076" transform="rotate(-90 86.6613 134.954)" fill="black"/>
<circle cx="65.4613" cy="114.569" r="1.63077" transform="rotate(-90 65.4613 114.569)" fill="black"/>
<ellipse cx="65.4613" cy="119.461" rx="1.63078" ry="1.63077" transform="rotate(-90 65.4613 119.461)" fill="black"/>
<ellipse cx="77.692" cy="94.1844" rx="1.63077" ry="1.63075" transform="rotate(-90 77.692 94.1844)" fill="black"/>
<ellipse cx="77.692" cy="86.1971" rx="1.63078" ry="1.63075" transform="rotate(-90 77.692 86.1971)" fill="black"/>
<ellipse cx="112.754" cy="94.1842" rx="1.63078" ry="1.63076" transform="rotate(-90 112.754 94.1842)" fill="black"/>
<ellipse cx="120.907" cy="72.169" rx="1.63076" ry="1.63077" transform="rotate(-90 120.907 72.169)" fill="black"/>
<ellipse cx="119.277" cy="76.2457" rx="1.63078" ry="1.63077" transform="rotate(-90 119.277 76.2457)" fill="black"/>
<ellipse cx="120.907" cy="67.2769" rx="1.63077" ry="1.63077" transform="rotate(-90 120.907 67.2769)" fill="black"/>
<ellipse cx="123.354" cy="64.015" rx="1.63078" ry="1.63076" transform="rotate(-90 123.354 64.015)" fill="black"/>
<ellipse cx="112.754" cy="104.785" rx="1.63078" ry="1.63076" transform="rotate(-90 112.754 104.785)" fill="black"/>
<ellipse cx="120.907" cy="117.015" rx="1.63078" ry="1.63076" transform="rotate(180 120.907 117.015)" fill="black"/>
<circle cx="104.6" cy="121.092" r="1.63078" transform="rotate(180 104.6 121.092)" fill="black"/>
<ellipse cx="108.677" cy="121.092" rx="1.63076" ry="1.63078" transform="rotate(180 108.677 121.092)" fill="black"/>
<circle cx="108.677" cy="129.246" r="1.63076" transform="rotate(180 108.677 129.246)" fill="black"/>
<ellipse cx="112.753" cy="121.092" rx="1.63076" ry="1.63078" transform="rotate(180 112.753 121.092)" fill="black"/>
<circle cx="116.83" cy="121.092" r="1.63078" transform="rotate(180 116.83 121.092)" fill="black"/>
<ellipse cx="118.461" cy="134.953" rx="1.63077" ry="1.63078" transform="rotate(90 118.461 134.953)" fill="black"/>
<ellipse cx="118.461" cy="130.877" rx="1.63077" ry="1.63078" transform="rotate(90 118.461 130.877)" fill="black"/>
<ellipse cx="124.984" cy="117.015" rx="1.63077" ry="1.63076" transform="rotate(180 124.984 117.015)" fill="black"/>
<ellipse cx="129.061" cy="94.1842" rx="1.63078" ry="1.63076" transform="rotate(-90 129.061 94.1842)" fill="black"/>
<ellipse cx="129.061" cy="86.0304" rx="1.63078" ry="1.63076" transform="rotate(-90 129.061 86.0304)" fill="black"/>
<ellipse cx="129.061" cy="90.1075" rx="1.63077" ry="1.63076" transform="rotate(-90 129.061 90.1075)" fill="black"/>
<ellipse cx="129.061" cy="98.2611" rx="1.63076" ry="1.63076" transform="rotate(-90 129.061 98.2611)" fill="black"/>
<ellipse cx="129.061" cy="117.015" rx="1.63076" ry="1.63076" transform="rotate(-90 129.061 117.015)" fill="black"/>
<ellipse cx="129.061" cy="102.338" rx="1.63076" ry="1.63076" transform="rotate(-90 129.061 102.338)" fill="black"/>
<ellipse cx="129.061" cy="106.415" rx="1.63077" ry="1.63076" transform="rotate(-90 129.061 106.415)" fill="black"/>
<ellipse cx="22.2455" cy="94.9998" rx="1.63077" ry="1.63077" transform="rotate(-90 22.2455 94.9998)" fill="black"/>
<ellipse cx="49.9689" cy="101.523" rx="1.63076" ry="1.63077" transform="rotate(-90 49.9689 101.523)" fill="black"/>
<ellipse cx="57.3075" cy="102.338" rx="1.63076" ry="1.63078" transform="rotate(-90 57.3075 102.338)" fill="black"/>
<ellipse cx="53.2304" cy="117.83" rx="1.63076" ry="1.63078" transform="rotate(-90 53.2304 117.83)" fill="black"/>
<ellipse cx="38.5539" cy="119.461" rx="1.63078" ry="1.63077" transform="rotate(-90 38.5539 119.461)" fill="black"/>
<ellipse cx="34.4765" cy="119.461" rx="1.63078" ry="1.63077" transform="rotate(-90 34.4765 119.461)" fill="black"/>
<ellipse cx="30.3998" cy="119.461" rx="1.63078" ry="1.63077" transform="rotate(-90 30.3998 119.461)" fill="black"/>
<ellipse cx="49.9689" cy="105.6" rx="1.63077" ry="1.63077" transform="rotate(-90 49.9689 105.6)" fill="black"/>
<ellipse cx="57.3075" cy="106.415" rx="1.63077" ry="1.63078" transform="rotate(-90 57.3075 106.415)" fill="black"/>
<ellipse cx="65.4613" cy="102.338" rx="1.63076" ry="1.63077" transform="rotate(-90 65.4613 102.338)" fill="black"/>
<ellipse cx="53.2304" cy="121.908" rx="1.63075" ry="1.63078" transform="rotate(-90 53.2304 121.908)" fill="black"/>
<ellipse cx="57.3075" cy="121.908" rx="1.63075" ry="1.63078" transform="rotate(-90 57.3075 121.908)" fill="black"/>
<ellipse cx="38.5539" cy="123.538" rx="1.63078" ry="1.63077" transform="rotate(-90 38.5539 123.538)" fill="black"/>
<ellipse cx="46.7077" cy="123.538" rx="1.63078" ry="1.63077" transform="rotate(-90 46.7077 123.538)" fill="black"/>
<ellipse cx="34.4765" cy="123.538" rx="1.63078" ry="1.63077" transform="rotate(-90 34.4765 123.538)" fill="black"/>
<ellipse cx="42.6305" cy="123.538" rx="1.63078" ry="1.63077" transform="rotate(-90 42.6305 123.538)" fill="black"/>
<ellipse cx="42.6305" cy="127.615" rx="1.63076" ry="1.63077" transform="rotate(-90 42.6305 127.615)" fill="black"/>
<ellipse cx="46.7077" cy="130.877" rx="1.63077" ry="1.63077" transform="rotate(-90 46.7077 130.877)" fill="black"/>
<ellipse cx="32.0304" cy="55.0458" rx="1.63077" ry="1.63077" fill="black"/>
<ellipse cx="36.1076" cy="50.9691" rx="1.63078" ry="1.63076" fill="black"/>
<ellipse cx="63.7111" cy="47.4164" rx="1.63077" ry="1.63078" fill="black"/>
<circle cx="20.6151" cy="58.307" r="1.63077" fill="black"/>
<ellipse cx="10.015" cy="61.569" rx="1.63077" ry="1.63076" fill="black"/>
<ellipse cx="28.769" cy="62.3847" rx="1.63077" ry="1.63078" fill="black"/>
<ellipse cx="28.769" cy="68.9071" rx="1.63077" ry="1.63078" fill="black"/>
<ellipse cx="36.9223" cy="72.9843" rx="1.63077" ry="1.63076" fill="black"/>
<ellipse cx="42.6305" cy="68.9074" rx="1.63077" ry="1.63078" fill="black"/>
<ellipse cx="42.6305" cy="72.9008" rx="1.63077" ry="1.63077" fill="black"/>
<ellipse cx="51.8778" cy="68.9074" rx="1.63076" ry="1.63078" fill="black"/>
<ellipse cx="51.8778" cy="72.9008" rx="1.63076" ry="1.63077" fill="black"/>
<ellipse cx="57.2194" cy="68.4687" rx="1.63077" ry="1.63078" fill="black"/>
<circle cx="62.7597" cy="68.4687" r="1.63078" fill="black"/>
<ellipse cx="38.5539" cy="64.8302" rx="1.63076" ry="1.63077" fill="black"/>
<ellipse cx="42.6305" cy="54.2305" rx="1.63078" ry="1.63077" transform="rotate(-90 42.6305 54.2305)" fill="black"/>
<ellipse cx="56.6657" cy="54.0648" rx="1.63076" ry="1.63077" transform="rotate(-90 56.6657 54.0648)" fill="black"/>
<ellipse cx="5.93814" cy="65.6456" rx="1.63078" ry="1.63077" transform="rotate(-90 5.93814 65.6456)" fill="black"/>
<ellipse cx="5.93814" cy="86.0304" rx="1.63078" ry="1.63077" transform="rotate(-90 5.93814 86.0304)" fill="black"/>
<ellipse cx="10.015" cy="90.923" rx="1.63076" ry="1.63077" transform="rotate(-90 10.015 90.923)" fill="black"/>
<ellipse cx="14.0917" cy="90.923" rx="1.63076" ry="1.63077" transform="rotate(-90 14.0917 90.923)" fill="black"/>
<ellipse cx="18.1691" cy="94.9998" rx="1.63077" ry="1.63077" transform="rotate(-90 18.1691 94.9998)" fill="black"/>
<ellipse cx="22.2455" cy="90.923" rx="1.63076" ry="1.63077" transform="rotate(-90 22.2455 90.923)" fill="black"/>
<ellipse cx="27.9538" cy="90.923" rx="1.63076" ry="1.63077" transform="rotate(-90 27.9538 90.923)" fill="black"/>
<ellipse cx="22.2455" cy="86.8458" rx="1.63078" ry="1.63077" transform="rotate(-90 22.2455 86.8458)" fill="black"/>
<ellipse cx="27.9538" cy="86.8458" rx="1.63078" ry="1.63077" transform="rotate(-90 27.9538 86.8458)" fill="black"/>
<ellipse cx="27.9538" cy="82.7689" rx="1.63077" ry="1.63077" transform="rotate(-90 27.9538 82.7689)" fill="black"/>
<ellipse cx="32.0304" cy="82.7689" rx="1.63077" ry="1.63077" transform="rotate(-90 32.0304 82.7689)" fill="black"/>
<circle cx="23.8769" cy="82.7689" r="1.63077" transform="rotate(-90 23.8769 82.7689)" fill="black"/>
<ellipse cx="49.9689" cy="97.4454" rx="1.63076" ry="1.63077" transform="rotate(-90 49.9689 97.4454)" fill="black"/>
<ellipse cx="57.3075" cy="98.2611" rx="1.63078" ry="1.63078" transform="rotate(-90 57.3075 98.2611)" fill="black"/>
<ellipse cx="57.2194" cy="90.6293" rx="1.63076" ry="1.63077" transform="rotate(-90 57.2194 90.6293)" fill="black"/>
<ellipse cx="60.569" cy="94.1842" rx="1.63078" ry="1.63078" transform="rotate(-90 60.569 94.1842)" fill="black"/>
<ellipse cx="53.2304" cy="94.1844" rx="1.63077" ry="1.63078" transform="rotate(-90 53.2304 94.1844)" fill="black"/>
<circle cx="57.2194" cy="83.4271" r="1.63077" transform="rotate(-90 57.2194 83.4271)" fill="black"/>
<ellipse cx="57.2194" cy="78.441" rx="1.63076" ry="1.63077" transform="rotate(-90 57.2194 78.441)" fill="black"/>
<circle cx="57.2194" cy="74.0091" r="1.63077" transform="rotate(-90 57.2194 74.0091)" fill="black"/>
<ellipse cx="42.6305" cy="94.1842" rx="1.63078" ry="1.63077" transform="rotate(-90 42.6305 94.1842)" fill="black"/>
<ellipse cx="42.6305" cy="101.523" rx="1.63076" ry="1.63077" transform="rotate(-90 42.6305 101.523)" fill="black"/>
<circle cx="42.6305" cy="108.861" r="1.63077" transform="rotate(-90 42.6305 108.861)" fill="black"/>
<ellipse cx="38.5539" cy="115.384" rx="1.63076" ry="1.63077" transform="rotate(-90 38.5539 115.384)" fill="black"/>
<ellipse cx="35.2917" cy="105.6" rx="1.63077" ry="1.63077" transform="rotate(-90 35.2917 105.6)" fill="black"/>
<ellipse cx="31.2152" cy="101.523" rx="1.63076" ry="1.63077" transform="rotate(-90 31.2152 101.523)" fill="black"/>
<ellipse cx="31.2152" cy="108.861" rx="1.63077" ry="1.63077" transform="rotate(-90 31.2152 108.861)" fill="black"/>
<ellipse cx="31.2152" cy="94.9998" rx="1.63077" ry="1.63077" transform="rotate(-90 31.2152 94.9998)" fill="black"/>
<ellipse cx="35.2917" cy="90.923" rx="1.63076" ry="1.63077" transform="rotate(-90 35.2917 90.923)" fill="black"/>
<ellipse cx="38.5539" cy="86.8458" rx="1.63078" ry="1.63077" transform="rotate(-90 38.5539 86.8458)" fill="black"/>
<ellipse cx="42.6305" cy="82.7689" rx="1.63077" ry="1.63077" transform="rotate(-90 42.6305 82.7689)" fill="black"/>
<ellipse cx="48.9096" cy="85.0892" rx="1.63078" ry="1.63077" transform="rotate(-90 48.9096 85.0892)" fill="black"/>
<ellipse cx="48.9096" cy="77.3331" rx="1.63078" ry="1.63077" transform="rotate(-90 48.9096 77.3331)" fill="black"/>
<ellipse cx="38.5539" cy="79.5074" rx="1.63077" ry="1.63077" transform="rotate(-90 38.5539 79.5074)" fill="black"/>
<ellipse cx="23.8769" cy="105.6" rx="1.63077" ry="1.63077" transform="rotate(-90 23.8769 105.6)" fill="black"/>
<ellipse cx="42.6305" cy="115.384" rx="1.63076" ry="1.63077" transform="rotate(-90 42.6305 115.384)" fill="black"/>
<ellipse cx="39.3688" cy="105.6" rx="1.63077" ry="1.63077" transform="rotate(-90 39.3688 105.6)" fill="black"/>
<ellipse cx="35.2917" cy="101.523" rx="1.63076" ry="1.63077" transform="rotate(-90 35.2917 101.523)" fill="black"/>
<circle cx="27.9538" cy="105.6" r="1.63077" transform="rotate(-90 27.9538 105.6)" fill="black"/>
<ellipse cx="45.892" cy="112.123" rx="1.63076" ry="1.63078" transform="rotate(-90 45.892 112.123)" fill="black"/>
<ellipse cx="34.4765" cy="115.384" rx="1.63076" ry="1.63077" transform="rotate(-90 34.4765 115.384)" fill="black"/>
<ellipse cx="2.67667" cy="42.8151" rx="1.63077" ry="1.63078" fill="black"/>
<ellipse cx="9.2001" cy="42.8151" rx="1.63077" ry="1.63078" fill="black"/>
<ellipse cx="9.2001" cy="50.153" rx="1.63077" ry="1.63076" fill="black"/>
<ellipse cx="5.93814" cy="54.2304" rx="1.63077" ry="1.63077" fill="black"/>
<ellipse cx="20.6151" cy="54.2304" rx="1.63077" ry="1.63077" fill="black"/>
<ellipse cx="34.4765" cy="42.8151" rx="1.63077" ry="1.63078" fill="black"/>
<ellipse cx="47.5226" cy="42.8151" rx="1.63078" ry="1.63078" fill="black"/>
<ellipse cx="38.5539" cy="38.7384" rx="1.63076" ry="1.63076" fill="black"/>
<ellipse cx="31.2152" cy="35.4762" rx="1.63077" ry="1.63077" fill="black"/>
<ellipse cx="31.2152" cy="39.5531" rx="1.63077" ry="1.63077" fill="black"/>
<ellipse cx="31.2152" cy="31.3998" rx="1.63077" ry="1.63077" fill="black"/>
<ellipse cx="41.8151" cy="31.3998" rx="1.63077" ry="1.63077" fill="black"/>
<circle cx="51.5998" cy="38.7384" r="1.63077" fill="black"/>
<ellipse cx="51.5998" cy="47.4164" rx="1.63077" ry="1.63078" fill="black"/>
<ellipse cx="59.7538" cy="38.7384" rx="1.63078" ry="1.63076" fill="black"/>
<ellipse cx="13.2765" cy="42.8151" rx="1.63077" ry="1.63078" fill="black"/>
<ellipse cx="13.2765" cy="50.153" rx="1.63077" ry="1.63076" fill="black"/>
<ellipse cx="10.015" cy="54.2304" rx="1.63077" ry="1.63077" fill="black"/>
<ellipse cx="24.6918" cy="54.2304" rx="1.63077" ry="1.63077" fill="black"/>
<ellipse cx="38.5539" cy="42.8151" rx="1.63076" ry="1.63078" fill="black"/>
<ellipse cx="51.5998" cy="42.8151" rx="1.63077" ry="1.63078" fill="black"/>
<ellipse cx="51.5998" cy="51.4931" rx="1.63077" ry="1.63078" fill="black"/>
<ellipse cx="59.7538" cy="42.8151" rx="1.63078" ry="1.63078" fill="black"/>
<ellipse cx="72.1779" cy="43.0898" rx="1.63076" ry="1.63077" fill="black"/>
<circle cx="73.2858" cy="55.278" r="1.63076" fill="black"/>
<ellipse cx="93.9997" cy="42.8151" rx="1.63078" ry="1.63078" fill="black"/>
<ellipse cx="79.3798" cy="72.3468" rx="1.63078" ry="1.63078" fill="black"/>
<ellipse cx="77.6918" cy="37.9225" rx="1.63076" ry="1.63078" fill="black"/>
<ellipse cx="77.6918" cy="42.8151" rx="1.63076" ry="1.63078" fill="black"/>
<ellipse cx="100.522" cy="42.8151" rx="1.63077" ry="1.63078" fill="black"/>
<ellipse cx="104.6" cy="42.8151" rx="1.63078" ry="1.63078" fill="black"/>
<ellipse cx="42.6305" cy="38.7384" rx="1.63077" ry="1.63076" fill="black"/>
<ellipse cx="35.2917" cy="35.4762" rx="1.63077" ry="1.63077" fill="black"/>
<circle cx="51.5998" cy="31.3998" r="1.63077" fill="black"/>
<ellipse cx="59.7538" cy="34.661" rx="1.63078" ry="1.63077" fill="black"/>
<ellipse cx="63.8307" cy="24.8764" rx="1.63078" ry="1.63077" fill="black"/>
<ellipse cx="63.8307" cy="28.9535" rx="1.63078" ry="1.63077" fill="black"/>
<ellipse cx="67.9071" cy="24.8764" rx="1.63078" ry="1.63077" fill="black"/>
<ellipse cx="63.8307" cy="14.2763" rx="1.63078" ry="1.63077" fill="black"/>
<ellipse cx="47.5226" cy="35.4762" rx="1.63078" ry="1.63077" fill="black"/>
<ellipse cx="35.2917" cy="31.3998" rx="1.63077" ry="1.63077" fill="black"/>
<ellipse cx="51.5998" cy="27.3227" rx="1.63077" ry="1.63077" fill="black"/>
<ellipse cx="59.7538" cy="30.5844" rx="1.63078" ry="1.63076" fill="black"/>
<ellipse cx="63.8307" cy="20.7997" rx="1.63078" ry="1.63077" fill="black"/>
<ellipse cx="47.5226" cy="16.7226" rx="1.63078" ry="1.63077" fill="black"/>
<circle cx="51.5998" cy="12.6457" r="1.63077" fill="black"/>
<ellipse cx="59.7538" cy="20.7997" rx="1.63078" ry="1.63077" fill="black"/>
<ellipse cx="59.7538" cy="16.7226" rx="1.63078" ry="1.63077" fill="black"/>
<ellipse cx="43.4457" cy="16.7226" rx="1.63077" ry="1.63077" fill="black"/>
<ellipse cx="47.5226" cy="12.6457" rx="1.63078" ry="1.63077" fill="black"/>
<ellipse cx="55.6767" cy="20.7997" rx="1.63077" ry="1.63077" fill="black"/>
<ellipse cx="39.3688" cy="16.7226" rx="1.63077" ry="1.63077" fill="black"/>
<ellipse cx="39.3688" cy="12.6457" rx="1.63077" ry="1.63077" fill="black"/>
<ellipse cx="39.3688" cy="6.12271" rx="1.63077" ry="1.63077" fill="black"/>
<circle cx="31.2152" cy="9.38468" r="1.63077" fill="black"/>
<ellipse cx="42.6305" cy="2.04581" rx="1.63077" ry="1.63077" fill="black"/>
<ellipse cx="56.4919" cy="2.04581" rx="1.63078" ry="1.63077" fill="black"/>
<ellipse cx="65.4613" cy="2.04581" rx="1.63077" ry="1.63077" fill="black"/>
<ellipse cx="77.6918" cy="6.12271" rx="1.63076" ry="1.63077" fill="black"/>
<ellipse cx="69.5382" cy="2.04581" rx="1.63076" ry="1.63077" fill="black"/>
<ellipse cx="69.5382" cy="6.12271" rx="1.63076" ry="1.63077" fill="black"/>
<ellipse cx="81.7687" cy="6.12271" rx="1.63077" ry="1.63077" fill="black"/>
<ellipse cx="92.3691" cy="2.04581" rx="1.63078" ry="1.63077" fill="black"/>
<ellipse cx="73.6154" cy="2.04581" rx="1.63078" ry="1.63077" fill="black"/>
<ellipse cx="73.6154" cy="6.12271" rx="1.63078" ry="1.63077" fill="black"/>
<ellipse cx="85.8458" cy="6.12271" rx="1.63075" ry="1.63077" fill="black"/>
<ellipse cx="96.4457" cy="2.04581" rx="1.63076" ry="1.63077" fill="black"/>
<ellipse cx="100.522" cy="14.2763" rx="1.63077" ry="1.63077" fill="black"/>
<ellipse cx="104.6" cy="22.4303" rx="1.63078" ry="1.63077" fill="black"/>
<ellipse cx="81.7687" cy="13.4611" rx="1.63077" ry="1.63076" fill="black"/>
<ellipse cx="81.7687" cy="29.7692" rx="1.63077" ry="1.63077" fill="black"/>
<ellipse cx="89.9228" cy="29.7692" rx="1.63076" ry="1.63077" fill="black"/>
<ellipse cx="93.9999" cy="33.8456" rx="1.63078" ry="1.63077" fill="black"/>
<ellipse cx="77.6918" cy="29.7692" rx="1.63076" ry="1.63077" fill="black"/>
<ellipse cx="77.6918" cy="2.04581" rx="1.63076" ry="1.63077" fill="black"/>
<ellipse cx="89.9228" cy="6.12271" rx="1.63076" ry="1.63077" fill="black"/>
<ellipse cx="96.4457" cy="6.12271" rx="1.63076" ry="1.63077" fill="black"/>
<ellipse cx="100.522" cy="18.3532" rx="1.63077" ry="1.63077" fill="black"/>
<ellipse cx="104.6" cy="26.5072" rx="1.63078" ry="1.63077" fill="black"/>
<ellipse cx="81.7687" cy="17.5382" rx="1.63077" ry="1.63077" fill="black"/>
<circle cx="81.7687" cy="33.8456" r="1.63077" fill="black"/>
<ellipse cx="85.8458" cy="33.8456" rx="1.63075" ry="1.63077" fill="black"/>
<ellipse cx="89.9228" cy="33.8456" rx="1.63076" ry="1.63077" fill="black"/>
<ellipse cx="93.9999" cy="37.9225" rx="1.63078" ry="1.63078" fill="black"/>
<ellipse cx="100.522" cy="2.04581" rx="1.63077" ry="1.63077" fill="black"/>
<ellipse cx="104.6" cy="14.2763" rx="1.63078" ry="1.63077" fill="black"/>
<ellipse cx="51.5998" cy="20.7997" rx="1.63077" ry="1.63077" fill="black"/>
<ellipse cx="51.5998" cy="16.7226" rx="1.63077" ry="1.63077" fill="black"/>
<circle cx="35.2917" cy="16.7226" r="1.63077" fill="black"/>
<ellipse cx="47.5226" cy="20.7997" rx="1.63078" ry="1.63077" fill="black"/>
<ellipse cx="47.5226" cy="24.8764" rx="1.63078" ry="1.63077" fill="black"/>
<ellipse cx="39.3688" cy="24.0614" rx="1.63077" ry="1.63077" fill="black"/>
<circle cx="31.2152" cy="16.7226" r="1.63077" fill="black"/>
<ellipse cx="31.2152" cy="20.7997" rx="1.63077" ry="1.63077" fill="black"/>
<ellipse cx="31.2152" cy="24.8764" rx="1.63077" ry="1.63077" fill="black"/>
<ellipse cx="63.8307" cy="10.1999" rx="1.63078" ry="1.63077" fill="black"/>
<ellipse cx="73.6154" cy="10.1999" rx="1.63078" ry="1.63077" fill="black"/>
<ellipse cx="71.1691" cy="13.4611" rx="1.63078" ry="1.63076" fill="black"/>
<ellipse cx="71.1691" cy="17.5382" rx="1.63078" ry="1.63077" fill="black"/>
<ellipse cx="71.1691" cy="21.6151" rx="1.63078" ry="1.63077" fill="black"/>
<ellipse cx="77.6918" cy="10.1999" rx="1.63076" ry="1.63077" fill="black"/>
<ellipse cx="89.9228" cy="10.1999" rx="1.63076" ry="1.63077" fill="black"/>
<ellipse cx="96.4457" cy="10.1999" rx="1.63076" ry="1.63077" fill="black"/>
<ellipse cx="100.522" cy="22.4303" rx="1.63077" ry="1.63077" fill="black"/>
<ellipse cx="97.2611" cy="24.8764" rx="1.63077" ry="1.63077" fill="black"/>
<ellipse cx="104.6" cy="30.5844" rx="1.63078" ry="1.63076" fill="black"/>
<circle cx="81.7687" cy="21.6151" r="1.63077" fill="black"/>
<ellipse cx="89.9228" cy="21.6151" rx="1.63076" ry="1.63077" fill="black"/>
<ellipse cx="77.6918" cy="21.6151" rx="1.63076" ry="1.63077" fill="black"/>
<ellipse cx="75.246" cy="24.8764" rx="1.63076" ry="1.63077" fill="black"/>
<ellipse cx="85.8458" cy="21.6151" rx="1.63075" ry="1.63077" fill="black"/>
<ellipse cx="81.7687" cy="37.9225" rx="1.63077" ry="1.63078" fill="black"/>
<ellipse cx="104.6" cy="34.661" rx="1.63078" ry="1.63077" fill="black"/>
<ellipse cx="81.7687" cy="25.692" rx="1.63077" ry="1.63077" fill="black"/>
<ellipse cx="89.9228" cy="25.692" rx="1.63076" ry="1.63077" fill="black"/>
<ellipse cx="93.9999" cy="29.7692" rx="1.63078" ry="1.63077" fill="black"/>
<ellipse cx="116.83" cy="34.661" rx="1.63076" ry="1.63077" fill="black"/>
<circle cx="108.677" cy="34.661" r="1.63077" fill="black"/>
<ellipse cx="120.907" cy="34.661" rx="1.63077" ry="1.63077" fill="black"/>
<ellipse cx="124.984" cy="34.661" rx="1.63078" ry="1.63077" fill="black"/>
<ellipse cx="129.061" cy="37.9225" rx="1.63076" ry="1.63078" fill="black"/>
<ellipse cx="112.754" cy="37.9225" rx="1.63076" ry="1.63078" fill="black"/>
<ellipse cx="59.7538" cy="10.1999" rx="1.63078" ry="1.63077" fill="black"/>
<ellipse cx="49.9689" cy="6.12271" rx="1.63076" ry="1.63077" fill="black"/>
<ellipse cx="55.6767" cy="38.7384" rx="1.63077" ry="1.63076" fill="black"/>
<ellipse cx="67.9071" cy="38.7384" rx="1.63078" ry="1.63076" fill="black"/>
<ellipse cx="67.9071" cy="42.8151" rx="1.63078" ry="1.63078" fill="black"/>
<ellipse cx="67.7458" cy="52.4025" rx="1.63077" ry="1.63078" fill="black"/>
<ellipse cx="89.9225" cy="42.8151" rx="1.63077" ry="1.63078" fill="black"/>
<ellipse cx="82.1498" cy="46.8625" rx="1.63076" ry="1.63077" fill="black"/>
<circle cx="73.6154" cy="37.9225" r="1.63078" fill="black"/>
<ellipse cx="73.8085" cy="34.1203" rx="1.63078" ry="1.63077" fill="black"/>
<ellipse cx="74.9164" cy="46.3085" rx="1.63077" ry="1.63076" fill="black"/>
<ellipse cx="17.3537" cy="42.8151" rx="1.63077" ry="1.63078" fill="black"/>
<ellipse cx="21.4306" cy="42.8151" rx="1.63077" ry="1.63078" fill="black"/>
<ellipse cx="19.8" cy="46.892" rx="1.63077" ry="1.63077" fill="black"/>
<circle cx="23.8769" cy="46.892" r="1.63077" fill="black"/>
<ellipse cx="16.5385" cy="31.3998" rx="1.63077" ry="1.63077" fill="black"/>
<circle cx="23.8769" cy="31.3998" r="1.63077" fill="black"/>
</svg>
