<svg width="722" height="798" viewBox="0 0 722 798" fill="none" xmlns="http://www.w3.org/2000/svg">
<g opacity="0.5" filter="url(#filter0_f_346_8714)">
<circle cx="529" cy="338" r="139" transform="rotate(-180 529 338)" fill="#5761D7"/>
<circle cx="390" cy="376" r="190" transform="rotate(-180 390 376)" fill="#A5E9FD"/>
<circle cx="485.5" cy="448.5" r="149.5" transform="rotate(-180 485.5 448.5)" fill="#AD8CF6"/>
</g>
<g clip-path="url(#clip0_346_8714)">
<g opacity="0.21">
<g opacity="0.21">
<path opacity="0.21" d="M602.949 362.133C611.73 367.203 618.831 379.499 618.8 389.59L618.147 620.371C618.116 630.449 610.972 634.52 602.192 629.451L264.522 434.501C255.738 429.431 248.64 417.15 248.671 407.059L249.324 176.279C249.352 166.2 256.495 162.116 265.279 167.186L602.949 362.133Z" fill="#CCD8EF"/>
</g>
</g>
<path d="M589.578 370.499C598.359 375.569 605.46 387.865 605.429 397.956L604.775 628.746C604.745 638.825 597.601 642.896 588.821 637.826L251.15 442.861C242.367 437.791 235.269 425.511 235.299 415.42L235.947 184.639C235.974 174.56 243.121 170.477 251.902 175.547L589.578 370.499Z" fill="#252532"/>
<path d="M595.897 366.827L258.242 171.871C253.823 169.321 249.819 169.086 246.927 170.766L240.608 174.431C243.5 172.751 247.504 172.989 251.908 175.54L589.578 370.498C598.359 375.568 605.46 387.864 605.429 397.955L604.775 628.745C604.76 633.757 602.992 637.278 600.139 638.937L606.461 635.272C609.311 633.616 611.079 630.08 611.094 625.083L611.748 394.299C611.776 384.193 604.678 371.891 595.897 366.827Z" fill="url(#paint0_linear_346_8714)"/>
<path d="M429.275 298.332C434.369 301.273 438.477 308.39 438.462 314.229L438.095 438.472C438.08 444.311 433.945 446.669 428.85 443.728L257.799 344.975C252.717 342.04 248.597 334.918 248.612 329.075L248.964 204.829C248.982 198.99 253.13 196.638 258.212 199.573L429.275 298.332Z" fill="#38374D"/>
<path d="M412.443 305.946L241.392 207.19C238.83 205.712 236.506 205.575 234.829 206.549L231.039 208.754C232.716 207.78 235.04 207.917 237.599 209.396L408.65 308.152C413.744 311.093 417.852 318.209 417.837 324.048L417.486 448.294C417.486 451.196 416.453 453.236 414.801 454.195L418.591 451.993C420.244 451.031 421.267 448.991 421.276 446.089L421.627 321.846C421.639 316.001 417.538 308.888 412.443 305.946Z" fill="#37D5C7"/>
<path d="M408.644 308.008C413.738 310.949 417.846 318.065 417.831 323.905L417.48 448.151C417.461 453.99 413.326 456.348 408.232 453.407L237.181 354.645C232.099 351.716 227.979 344.594 228 338.763L228.354 214.52C228.37 208.678 232.517 206.329 237.599 209.264L408.644 308.008Z" fill="#5761D7"/>
<g clip-path="url(#clip1_346_8714)">
<path d="M237 223L238.447 223.833L239.968 231.912L241.492 225.581L242.903 226.391L244.602 234.617H244.622L246.039 228.181L247.463 229.001L245.378 237.168L243.905 236.305L242.219 228.168H242.199L240.662 234.414L239.215 233.552L237 223Z" fill="black"/>
<path d="M248.095 229.367L253.81 232.663L253.826 234.153L249.487 231.654L249.513 234.039L253.684 236.456V237.946L249.509 235.522L249.539 238.135L253.959 240.719V242.209L248.16 238.808L248.095 229.367Z" fill="black"/>
<path d="M254.949 233.31L259.376 235.854C260.916 236.736 261.322 238.141 261.322 239.36C261.322 240.728 260.77 240.777 260.423 240.83C260.829 241.233 261.15 241.715 261.366 242.247C261.581 242.779 261.688 243.349 261.678 243.923C261.678 244.998 261.224 246.462 259.408 245.397L255.03 242.829L254.949 233.31ZM256.389 237.988L259.019 239.513C259.415 239.742 259.934 239.895 259.921 238.821C259.921 238.017 259.596 237.465 258.75 236.985L256.366 235.613L256.389 237.988ZM256.431 242.156L258.957 243.633C259.606 244.005 260.229 244.201 260.216 242.979C260.224 242.585 260.128 242.196 259.939 241.852C259.749 241.508 259.472 241.22 259.136 241.019L256.405 239.431L256.431 242.156Z" fill="black"/>
<path d="M267.348 247.056C267.368 247.629 267.536 248.187 267.837 248.674C268.137 249.161 268.559 249.561 269.06 249.833C269.991 250.375 270.721 250.264 270.711 249.228C270.711 248.631 270.474 247.595 269.128 246.824L268.317 246.354V244.998L269.226 245.524C269.998 245.971 270.461 245.886 270.452 245.086C270.452 244.394 270.062 243.495 268.95 242.855C267.928 242.267 267.529 242.855 267.51 243.642L266.125 242.842C266.258 240.63 267.594 240.647 269.099 241.512C271.22 242.731 271.895 244.485 271.908 245.886C271.908 246.514 271.671 247.157 270.876 247.02V247.049C271.285 247.424 271.616 247.877 271.85 248.382C272.084 248.887 272.216 249.433 272.239 249.99C272.239 251.038 271.914 252.93 269.07 251.257C267.643 250.421 266.005 248.83 265.979 246.249L267.348 247.056Z" fill="black"/>
<path d="M273.64 251.807L275.167 252.695L275.184 254.636L273.659 253.741L273.64 251.807Z" fill="black"/>
<path d="M279.682 257.49C277.577 256.255 276.562 253.55 276.533 250.705C276.504 247.86 277.506 246.341 279.825 247.68C281.923 248.885 282.971 251.6 283 254.455C283.029 257.31 282.027 258.865 279.682 257.49ZM279.721 249.068C278.424 248.317 277.937 249.705 277.953 251.528C277.97 253.351 278.479 255.341 279.786 256.102C281.093 256.863 281.579 255.491 281.563 253.619C281.547 251.747 281.031 249.826 279.721 249.068Z" fill="black"/>
</g>
<path opacity="0.1" d="M417.144 319.592L388.74 303.2C381.648 299.104 375.885 302.391 375.861 310.53L375.766 343.82C375.745 351.956 381.471 361.876 388.563 365.972L417.519 382.69C417.568 382.718 417.614 382.736 417.66 382.764L417.828 324.045C417.814 322.535 417.584 321.035 417.144 319.592Z" fill="#37D5C7"/>
<path d="M413.048 299.926L384.092 283.208C380.521 281.146 377.29 280.954 374.957 282.31L371.704 284.2C374.037 282.844 377.269 283.037 380.839 285.098L409.795 301.814C416.887 305.909 422.623 315.829 422.589 323.978L422.495 357.268C422.495 361.308 421.056 364.155 418.753 365.493L422.006 363.602C424.309 362.264 425.738 359.418 425.747 355.377L425.842 322.087C425.866 313.939 420.14 304.019 413.048 299.926Z" fill="url(#paint1_linear_346_8714)"/>
<path d="M409.795 301.814C416.887 305.91 422.623 315.83 422.589 323.978L422.495 357.268C422.473 365.408 416.692 368.691 409.615 364.598L380.659 347.88C373.567 343.784 367.831 333.864 367.865 325.728L367.96 292.438C367.981 284.29 373.762 281.003 380.839 285.108L409.795 301.814Z" fill="#F0F4FE"/>
<path d="M404.863 469.102C412.052 473.255 417.861 483.316 417.837 491.577L417.767 516.349C417.742 524.596 411.897 527.955 404.707 523.792L258.34 439.287C251.15 435.137 245.341 425.076 245.366 416.815L245.436 392.039C245.458 383.778 251.306 380.434 258.496 384.599L404.863 469.102Z" fill="#38374D"/>
<path d="M390.026 484.608L243.659 400.102C240.039 398.013 236.762 397.821 234.395 399.186L231.87 400.655C234.237 399.281 237.514 399.473 241.133 401.571L387.497 486.077C394.686 490.227 400.495 500.288 400.474 508.549L400.404 533.325C400.404 537.426 398.941 540.315 396.604 541.675L399.133 540.206C401.47 538.846 402.917 535.957 402.93 531.855L403 507.08C403.024 498.819 397.206 488.758 390.026 484.608Z" fill="#59FCE8"/>
<path d="M387.497 486.077C394.686 490.227 400.495 500.288 400.474 508.549L400.404 533.324C400.379 541.571 394.534 544.93 387.341 540.764L240.977 456.262C233.788 452.108 227.979 442.048 228 433.786L228.07 409.014C228.095 400.768 233.94 397.408 241.13 401.571L387.497 486.077Z" fill="#37D5C7"/>
<path d="M305.582 473.946C307.295 474.936 308.688 477.345 308.682 479.315C308.675 481.285 307.277 482.095 305.56 481.105L243.689 445.371C241.976 444.382 240.583 441.972 240.589 439.99C240.595 438.008 241.994 437.223 243.711 438.212L305.582 473.946Z" fill="#EFF3FD"/>
<path d="M370.861 492.787C372.574 493.777 373.967 496.186 373.961 498.156C373.955 500.126 372.556 500.923 370.84 499.934L243.744 426.561C242.031 425.571 240.641 423.177 240.644 421.192C240.647 419.207 242.052 418.425 243.766 419.414L370.861 492.787Z" fill="white"/>
<path d="M568.831 388.007C575.62 391.926 581.109 401.446 581.084 409.231L580.919 467.999C580.895 475.802 575.373 478.948 568.584 475.023L474.336 420.613C467.534 416.689 462.058 407.19 462.079 399.387L462.247 340.619C462.269 332.819 467.781 329.667 474.58 333.595L568.831 388.007Z" fill="#5761D7"/>
<path d="M581 406.5C565.622 419.721 548.133 420.706 527.493 418.027C502.449 414.747 479.903 404.772 462 395.5V397.5C479.998 406.84 502.709 416.409 527.973 419.719C548.436 422.407 565.534 421.83 581 409C580.934 408.272 581.139 407.217 581 406.5Z" fill="#EFF3FD"/>
<path d="M545.183 414.741C547.626 416.155 549.605 419.582 549.599 422.392C549.593 425.202 547.599 426.335 545.152 424.924C542.706 423.513 540.73 420.086 540.739 417.288C540.748 414.491 542.736 413.33 545.183 414.741Z" fill="#F0F4FE"/>
<path d="M480.169 354.712C480.473 354.915 480.724 355.187 480.903 355.505C481.083 355.823 481.185 356.179 481.201 356.544C481.201 357.189 480.722 357.46 480.163 357.137L472.427 352.65C472.125 352.455 471.875 352.191 471.695 351.88C471.516 351.568 471.413 351.219 471.395 350.86C471.395 350.185 471.847 349.895 472.436 350.25L480.169 354.712Z" fill="#37D5C7"/>
<path d="M488.476 355.026C488.785 355.227 489.042 355.497 489.227 355.815C489.412 356.134 489.519 356.491 489.539 356.859C489.539 357.503 489.057 357.775 488.47 357.436L472.442 348.182C472.141 347.986 471.89 347.722 471.71 347.411C471.53 347.1 471.426 346.751 471.407 346.392C471.407 345.714 471.859 345.427 472.448 345.781L488.476 355.026Z" fill="#EFF3FD"/>
<path d="M502.849 513.513C505.335 514.948 507.339 518.43 507.33 521.288L507.198 567.849C507.198 570.708 505.173 571.868 502.687 570.433C500.201 568.997 498.189 565.509 498.195 562.651L498.326 516.09C498.335 513.232 500.36 512.077 502.849 513.513Z" fill="#37D5C7"/>
<path d="M526.055 546.491C528.541 547.927 530.553 551.412 530.544 554.27L530.468 581.284C530.468 584.143 528.434 585.297 525.948 583.862C523.462 582.427 521.446 578.939 521.455 576.08L521.531 549.066C521.541 546.21 523.566 545.062 526.055 546.491Z" fill="#37D5C7"/>
<path d="M549.456 510.192C551.942 511.628 553.954 515.112 553.948 517.971L553.728 594.713C553.728 597.571 551.694 598.726 549.208 597.291C546.722 595.855 544.719 592.373 544.725 589.515L544.945 512.773C544.951 509.914 546.976 508.76 549.456 510.192Z" fill="#5761D7"/>
<path d="M572.78 503.791C575.269 505.23 577.273 508.708 577.264 511.567L576.989 608.145C576.989 611.001 574.967 612.161 572.478 610.726C569.989 609.291 567.979 605.803 567.985 602.947L568.26 506.369C568.269 503.525 570.294 502.356 572.78 503.791Z" fill="#4A53B9"/>
<path opacity="0.5" fill-rule="evenodd" clip-rule="evenodd" d="M356.142 355.619C355.67 382.39 335.99 392.354 312.87 378.702C290.485 365.485 272.665 334.598 272.425 308.981C272.185 282.922 290.147 270.98 313.23 283.042C337.085 295.509 356.629 328.383 356.142 355.619ZM358.878 357.118C358.354 385.562 337.4 396.102 312.863 381.528C289.143 367.472 270.273 334.748 270.003 307.587C269.718 279.953 288.745 267.209 313.237 279.968C338.614 293.215 359.418 328.173 358.878 357.148V357.118ZM333.344 368.859L333.539 350.116C333.539 350.116 348.87 360.245 349.162 341.495C349.455 322.513 334.918 315.848 334.918 315.848L326.492 324.515L337.107 330.325C337.988 331.046 338.685 331.965 339.141 333.008C339.597 334.05 339.799 335.186 339.731 336.322C339.686 340.445 337.01 338.969 337.01 338.969L321.514 330.4L317.578 334.898L333.344 368.859ZM298.109 323.982L283.28 288.102L298.056 296.049L314.01 332.904L298.116 350.424L283.595 342.05L298.109 323.982ZM308.604 314.709L316.101 305.713L331.582 314.042L315.981 331.374L308.604 314.709ZM331.043 369.361L315.839 360.59L308.544 342.964L315.951 336.15L331.043 369.361Z" fill="white"/>
<path d="M394.981 306.148C403.592 311.105 410.25 323.191 409.993 333.368C409.724 343.71 402.426 348.424 393.545 343.667C384.498 338.82 377.486 326.144 378.03 315.599C378.56 305.226 386.213 301.101 394.981 306.148Z" stroke="#5761D7" stroke-width="2.27448" stroke-miterlimit="7.5"/>
<path d="M379.289 309.847L409.264 326.711" stroke="#5761D7" stroke-width="2.27448" stroke-linecap="round" stroke-linejoin="round"/>
<path d="M378.647 322.466L408.934 339.101" stroke="#5761D7" stroke-width="2.27448" stroke-linecap="round" stroke-linejoin="round"/>
<path d="M394.963 306.642C398.572 308.717 401.218 318.348 400.877 328.307C400.541 338.423 397.273 345.138 393.554 343.143C389.801 341.134 387.115 331.104 387.562 320.905C388.008 310.866 391.327 304.551 394.963 306.642Z" stroke="#5761D7" stroke-width="2.27448" stroke-miterlimit="7.5"/>
<path d="M576.666 316.786L581.744 307.231L577.654 295.438V288.212L590.152 295.438V302.653L584.778 311.969C584.692 312.113 584.566 312.227 584.414 312.299L576.666 316.786Z" fill="#42E8E0"/>
<path opacity="0.3" d="M576.666 316.786L581.744 307.231L577.654 295.438V288.212L590.152 295.438V302.653L584.778 311.969C584.692 312.113 584.566 312.227 584.414 312.299L576.666 316.786Z" fill="#5761D7"/>
<path d="M550.011 229.189C550.082 227.887 550.458 226.62 551.109 225.491C551.761 224.362 552.669 223.402 553.761 222.69L556.817 220.929C557.979 220.341 559.264 220.034 560.566 220.034C561.869 220.034 563.153 220.341 564.316 220.929L609.239 246.822C610.331 247.534 611.24 248.494 611.891 249.623C612.542 250.752 612.918 252.019 612.989 253.321V308.368C612.918 309.669 612.542 310.936 611.891 312.065C611.24 313.194 610.331 314.154 609.239 314.866L606.183 316.627C605.021 317.215 603.736 317.522 602.434 317.522C601.131 317.522 599.847 317.215 598.684 316.627L582.312 307.209L576.95 316.514C576.872 316.646 576.758 316.753 576.622 316.823C576.485 316.893 576.332 316.922 576.179 316.908C576.027 316.893 575.881 316.836 575.76 316.742C575.639 316.648 575.547 316.522 575.495 316.377L569.815 300.005L553.749 290.746C552.658 290.033 551.749 289.074 551.098 287.944C550.446 286.815 550.07 285.549 550 284.247L550.011 229.189Z" fill="#42E8E0"/>
<path d="M582.714 290.617C583.57 290.579 584.417 290.433 585.237 290.185V298.302C585.237 299.224 584.669 299.654 583.97 299.281C583.272 298.908 582.717 297.847 582.717 296.93L582.714 290.617ZM573.644 261.767C573.338 262.422 573.557 263.515 574.14 264.243L581.33 272.933L584 272.365L575.298 261.889C574.7 261.199 573.969 261.145 573.644 261.778V261.767ZM594.272 271.058L575.32 248.734C574.954 248.323 574.527 248.128 574.164 248.193L556.601 252.839C556.06 252.998 555.848 253.872 556.149 254.795C556.249 255.103 556.402 255.391 556.601 255.647L559.983 259.808V269.716C559.99 270.449 560.146 271.172 560.44 271.843C561.575 274.549 565.985 283.775 574.705 288.458C577.432 289.955 580.166 290.682 582.727 290.585L582.749 274.622L581.341 272.917L574.719 274.308L561.68 258.285L559.547 255.715L574.73 251.818L590.879 270.945L588.489 271.448L584 272.387L584.598 273.101C584.819 273.384 584.99 273.703 585.104 274.043C585.205 274.324 585.258 274.62 585.262 274.919L585.237 290.206C587.035 289.649 588.634 288.583 589.84 287.138C590.208 286.635 590.392 286.021 590.36 285.398L590.379 274.873L594.258 274.105C594.905 273.962 595.141 273.023 594.8 272.016C594.681 271.676 594.504 271.359 594.274 271.08L594.272 271.058Z" fill="white"/>
<path opacity="0.3" d="M612.989 308.368C612.918 309.67 612.542 310.937 611.891 312.066C611.239 313.195 610.331 314.154 609.239 314.867L606.183 316.628C605.132 317.155 603.982 317.455 602.807 317.508C601.633 317.561 600.46 317.366 599.366 316.935C601.127 317.594 602.468 316.605 602.468 314.469V260.433C602.468 258.241 602.559 256.627 601.877 255.446L611.932 249.617C612.617 250.736 613.008 252.01 613.068 253.321L612.989 308.368Z" fill="#252532"/>
<path opacity="0.3" d="M550.136 228.121C550.568 226.53 552.022 226.019 553.761 226.984L598.696 252.889C599.941 253.45 601.021 254.323 601.832 255.423L611.887 249.594C611.26 248.45 610.348 247.487 609.239 246.799L564.327 220.895C563.163 220.306 561.876 220 560.572 220C559.267 220 557.981 220.306 556.817 220.895L553.761 222.667C552.815 223.279 552.006 224.08 551.382 225.018C550.759 225.956 550.335 227.012 550.136 228.121Z" fill="white"/>
</g>
<defs>
<filter id="filter0_f_346_8714" x="0" y="-14" width="868" height="812" filterUnits="userSpaceOnUse" color-interpolation-filters="sRGB">
<feFlood flood-opacity="0" result="BackgroundImageFix"/>
<feBlend mode="normal" in="SourceGraphic" in2="BackgroundImageFix" result="shape"/>
<feGaussianBlur stdDeviation="100" result="effect1_foregroundBlur_346_8714"/>
</filter>
<linearGradient id="paint0_linear_346_8714" x1="240.592" y1="404.311" x2="611.748" y2="404.311" gradientUnits="userSpaceOnUse">
<stop stop-color="#A4AEE5"/>
<stop offset="1" stop-color="#A7BBE4"/>
</linearGradient>
<linearGradient id="paint1_linear_346_8714" x1="76300.2" y1="50663.3" x2="85896.7" y2="50663.3" gradientUnits="userSpaceOnUse">
<stop stop-color="#A4AEE5"/>
<stop offset="1" stop-color="#A7BBE4"/>
</linearGradient>
<clipPath id="clip0_346_8714">
<rect width="384" height="475" fill="white" transform="translate(228 165)"/>
</clipPath>
<clipPath id="clip1_346_8714">
<rect width="46" height="35" fill="white" transform="translate(237 223)"/>
</clipPath>
</defs>
</svg>
