<svg width="24" height="24" viewBox="0 0 24 24" fill="none" xmlns="http://www.w3.org/2000/svg">
<path d="M16.8034 15.1553C16.6866 15.0385 16.6706 14.8369 16.7602 14.6977C17.4642 13.6145 17.877 12.3249 17.877 10.9393C17.877 7.11204 14.7633 4 10.9393 4C7.11204 4 4 7.11204 4 10.9393C4 14.7649 7.11204 17.877 10.9393 17.877C12.4289 17.877 13.8081 17.3986 14.9409 16.5954C15.0737 16.4994 15.2737 16.5122 15.3905 16.6274L17.8706 19.1074C17.8866 19.1234 17.9042 19.1394 17.9218 19.1522C17.9506 19.1762 18.0706 19.2882 18.1858 19.405L18.4802 19.6978C18.597 19.813 18.7858 19.813 18.901 19.6978L19.9122 18.6866C20.029 18.5698 20.029 18.381 19.9138 18.2642L16.8034 15.1553ZM15.1361 14.1713C14.9073 14.4689 14.6497 14.7409 14.3649 14.9825C13.4401 15.7681 12.2449 16.245 10.9393 16.245C8.01285 16.245 5.63202 13.8641 5.63202 10.9393C5.63202 8.01445 8.01285 5.63202 10.9393 5.63202C13.8641 5.63202 16.245 8.01285 16.245 10.9393C16.245 12.1553 15.8273 13.2753 15.1361 14.1713Z" fill="#060520"/>
</svg>
