<svg width="24" height="24" viewBox="0 0 24 24" fill="none" xmlns="http://www.w3.org/2000/svg">
<g opacity="0.6">
<path d="M5.31706 17.0687C4.89717 17.4886 4.8886 18.2341 5.32563 18.6712C5.77123 19.1082 6.51676 19.0996 6.92808 18.6883L12.0011 13.6153L17.0655 18.6797C17.494 19.1082 18.2309 19.1082 18.6679 18.6712C19.105 18.2256 19.105 17.4972 18.6765 17.0687L13.6121 12.0043L18.6765 6.9313C19.105 6.50284 19.1135 5.76588 18.6679 5.32885C18.2309 4.89182 17.494 4.89182 17.0655 5.32028L12.0011 10.3847L6.92808 5.32028C6.51676 4.90039 5.76266 4.88325 5.32563 5.32885C4.8886 5.76588 4.89717 6.51998 5.31706 6.9313L10.3815 12.0043L5.31706 17.0687Z" fill="#060520"/>
</g>
</svg>
