<svg width="38" height="51" viewBox="0 0 38 51" fill="none" xmlns="http://www.w3.org/2000/svg">
<path d="M4.12062 12.8713L24.7834 0.944395C25.7767 0.441651 26.8743 0.179688 27.9875 0.179688C29.1007 0.179688 30.1983 0.441651 31.1915 0.944395L33.8071 2.45488C34.7397 3.06348 35.5158 3.88326 36.0725 4.84777C36.6291 5.81228 36.9507 6.89439 37.0111 8.00637V31.8602C36.9507 32.9721 36.6291 34.0543 36.0725 35.0188C35.5158 35.9833 34.7397 36.8031 33.8071 37.4117L13.1443 49.3451C12.1499 49.8479 11.0512 50.1099 9.93694 50.1099C8.82266 50.1099 7.724 49.8479 6.72962 49.3451L4.11408 47.8346C3.18109 47.2264 2.40472 46.4067 1.848 45.4421C1.29129 44.4775 0.969933 43.3952 0.910034 42.2831V18.4293C0.969652 17.3155 1.29154 16.2315 1.84946 15.2657C2.40738 14.2998 3.18556 13.4794 4.12062 12.8713Z" fill="#FF8A22"/>
<path d="M13.1443 49.345C11.3723 50.3651 9.94031 49.5346 9.94031 47.488V23.6603C10.0002 22.5482 10.3216 21.4659 10.8783 20.5013C11.435 19.5367 12.2114 18.717 13.1443 18.1088L33.8072 6.18195C35.5727 5.15534 37.0112 5.98578 37.0112 8.03245V31.8862C36.9508 32.9982 36.6292 34.0803 36.0726 35.0448C35.5159 36.0094 34.7398 36.8291 33.8072 37.4377L13.1443 49.345Z" fill="#FF8A22"/>
<path opacity="0.15" d="M0.916626 42.2835C0.976525 43.3957 1.2979 44.478 1.85461 45.4426C2.41133 46.4072 3.18771 47.2268 4.12069 47.8351L6.73624 49.3455C7.64361 49.801 8.6371 50.0591 9.65141 50.1031C10.6657 50.147 11.6778 49.9758 12.6212 49.6005C11.1173 50.1694 9.96644 49.3194 9.96644 47.4885V23.6609C10.0064 22.546 10.3281 21.4595 10.9015 20.5026L1.87784 15.2715C1.29524 16.2259 0.964497 17.3126 0.916626 18.4298V42.2835Z" fill="black"/>
<path opacity="0.7" d="M36.9718 7.47035C36.743 5.82255 35.4156 5.22751 33.8005 6.16257L13.1442 18.0829C12.1958 18.6737 11.4146 19.4977 10.8752 20.4762L1.85156 15.2451C2.391 14.2666 3.17217 13.4426 4.12055 12.8518L24.7768 0.924933C25.7712 0.422127 26.8699 0.160156 27.9841 0.160156C29.0984 0.160156 30.1971 0.422127 31.1915 0.924933L33.807 2.42887C34.6658 2.99241 35.3931 3.73445 35.9392 4.60444C36.4854 5.47444 36.8376 6.45194 36.9718 7.47035Z" fill="white"/>
<path d="M22.9296 29.2136L22.5964 21.7112C22.5334 20.2431 22.5063 19.1894 22.5063 18.5319C22.491 17.7284 22.6445 16.9307 22.9567 16.1902C23.194 15.5956 23.6133 15.0912 24.1545 14.7492C24.749 14.4069 25.1542 14.497 25.3524 15.0104C25.6004 15.8484 25.7039 16.7225 25.6586 17.5952C25.6586 18.3067 25.6586 19.0363 25.5866 19.7928L25.1362 27.9707C25.1104 28.7629 25.0048 29.5504 24.821 30.3214C24.7281 30.8156 24.4431 31.2528 24.0284 31.5373C23.6502 31.7534 23.389 31.6633 23.2449 31.2581C23.0562 30.5921 22.9503 29.9054 22.9296 29.2136ZM24.0915 38.2201C23.9332 38.3435 23.7383 38.4105 23.5376 38.4105C23.3369 38.4105 23.1419 38.3435 22.9837 38.2201C22.7965 38.023 22.6563 37.7862 22.5736 37.5272C22.491 37.2683 22.468 36.9941 22.5063 36.725C22.5105 36.0454 22.6643 35.3751 22.9567 34.7616C23.1867 34.2128 23.5756 33.7455 24.0735 33.4196C24.2385 33.3015 24.4386 33.2425 24.6413 33.2523C24.844 33.2621 25.0374 33.3401 25.1903 33.4737C25.3637 33.6666 25.4949 33.8937 25.5755 34.1402C25.6562 34.3868 25.6845 34.6475 25.6586 34.9057C25.6642 35.6115 25.5038 36.3087 25.1903 36.9411C24.9465 37.4494 24.5661 37.8798 24.0915 38.184V38.2201Z" fill="white"/>
</svg>
